{
    "asset" : {
        "generator" : "Khronos glTF Blender I/O v1.1.46",
        "version" : "2.0"
    },
    "scene" : 0,
    "scenes" : [
        {
            "name" : "Scene",
            "nodes" : [
                0
            ]
        }
    ],
    "nodes" : [
        {
            "mesh" : 0,
            "name" : "bisect-3-5-2"
        }
    ],
    "materials" : [
        {
            "doubleSided" : true,
            "emissiveFactor" : [
                0,
                0,
                0
            ],
            "name" : "Material.003",
            "pbrMetallicRoughness" : {
                "metallicFactor" : 0,
                "roughnessFactor" : 0.5
            }
        }
    ],
    "meshes" : [
        {
            "name" : "bisect-3-5-2",
            "primitives" : [
                {
                    "attributes" : {
                        "POSITION" : 0,
                        "NORMAL" : 1,
                        "TEXCOORD_0" : 2,
                        "COLOR_0" : 3
                    },
                    "indices" : 4,
                    "material" : 0
                }
            ]
        }
    ],
    "accessors" : [
        {
            "bufferView" : 0,
            "componentType" : 5126,
            "count" : 1158,
            "max" : [
                82,
                122,
                -42
            ],
            "min" : [
                78.33050537109375,
                109.44446563720703,
                -62
            ],
            "type" : "VEC3"
        },
        {
            "bufferView" : 1,
            "componentType" : 5126,
            "count" : 1158,
            "type" : "VEC3"
        },
        {
            "bufferView" : 2,
            "componentType" : 5126,
            "count" : 1158,
            "type" : "VEC2"
        },
        {
            "bufferView" : 3,
            "componentType" : 5126,
            "count" : 1158,
            "type" : "VEC4"
        },
        {
            "bufferView" : 4,
            "componentType" : 5123,
            "count" : 1158,
            "type" : "SCALAR"
        }
    ],
    "bufferViews" : [
        {
            "buffer" : 0,
            "byteLength" : 13896,
            "byteOffset" : 0
        },
        {
            "buffer" : 0,
            "byteLength" : 13896,
            "byteOffset" : 13896
        },
        {
            "buffer" : 0,
            "byteLength" : 9264,
            "byteOffset" : 27792
        },
        {
            "buffer" : 0,
            "byteLength" : 18528,
            "byteOffset" : 37056
        },
        {
            "buffer" : 0,
            "byteLength" : 2316,
            "byteOffset" : 55584
        }
    ],
    "buffers" : [
        {
            "byteLength" : 57900,
            "uri" : "bisect-3-5-2.bin"
        }
    ]
}
