{
    "asset" : {
        "generator" : "Khronos glTF Blender I/O v1.1.46",
        "version" : "2.0"
    },
    "scene" : 0,
    "scenes" : [
        {
            "name" : "Scene",
            "nodes" : [
                0
            ]
        }
    ],
    "nodes" : [
        {
            "mesh" : 0,
            "name" : "bisect-9-3-1"
        }
    ],
    "materials" : [
        {
            "doubleSided" : true,
            "emissiveFactor" : [
                0,
                0,
                0
            ],
            "name" : "Material.003",
            "pbrMetallicRoughness" : {
                "metallicFactor" : 0,
                "roughnessFactor" : 0.5
            }
        }
    ],
    "meshes" : [
        {
            "name" : "bisect-9-3-1",
            "primitives" : [
                {
                    "attributes" : {
                        "POSITION" : 0,
                        "NORMAL" : 1,
                        "TEXCOORD_0" : 2,
                        "COLOR_0" : 3
                    },
                    "indices" : 4,
                    "material" : 0
                }
            ]
        }
    ],
    "accessors" : [
        {
            "bufferView" : 0,
            "componentType" : 5126,
            "count" : 75,
            "max" : [
                184.83775329589844,
                78.70209503173828,
                -37.23120880126953
            ],
            "min" : [
                182,
                62,
                -41.64045715332031
            ],
            "type" : "VEC3"
        },
        {
            "bufferView" : 1,
            "componentType" : 5126,
            "count" : 75,
            "type" : "VEC3"
        },
        {
            "bufferView" : 2,
            "componentType" : 5126,
            "count" : 75,
            "type" : "VEC2"
        },
        {
            "bufferView" : 3,
            "componentType" : 5126,
            "count" : 75,
            "type" : "VEC4"
        },
        {
            "bufferView" : 4,
            "componentType" : 5123,
            "count" : 75,
            "type" : "SCALAR"
        }
    ],
    "bufferViews" : [
        {
            "buffer" : 0,
            "byteLength" : 900,
            "byteOffset" : 0
        },
        {
            "buffer" : 0,
            "byteLength" : 900,
            "byteOffset" : 900
        },
        {
            "buffer" : 0,
            "byteLength" : 600,
            "byteOffset" : 1800
        },
        {
            "buffer" : 0,
            "byteLength" : 1200,
            "byteOffset" : 2400
        },
        {
            "buffer" : 0,
            "byteLength" : 150,
            "byteOffset" : 3600
        }
    ],
    "buffers" : [
        {
            "byteLength" : 3752,
            "uri" : "bisect-9-3-1.bin"
        }
    ]
}
