{
    "asset" : {
        "generator" : "Khronos glTF Blender I/O v1.1.46",
        "version" : "2.0"
    },
    "scene" : 0,
    "scenes" : [
        {
            "name" : "Scene",
            "nodes" : [
                0
            ]
        }
    ],
    "nodes" : [
        {
            "mesh" : 0,
            "name" : "bisect-4-6-11"
        }
    ],
    "materials" : [
        {
            "doubleSided" : true,
            "emissiveFactor" : [
                0,
                0,
                0
            ],
            "name" : "Material.003",
            "pbrMetallicRoughness" : {
                "metallicFactor" : 0,
                "roughnessFactor" : 0.5
            }
        }
    ],
    "meshes" : [
        {
            "name" : "bisect-4-6-11",
            "primitives" : [
                {
                    "attributes" : {
                        "POSITION" : 0,
                        "NORMAL" : 1,
                        "TEXCOORD_0" : 2,
                        "COLOR_0" : 3
                    },
                    "indices" : 4,
                    "material" : 0
                }
            ]
        }
    ],
    "accessors" : [
        {
            "bufferView" : 0,
            "componentType" : 5126,
            "count" : 1224,
            "max" : [
                102,
                128.8336181640625,
                -222
            ],
            "min" : [
                82,
                122.13307189941406,
                -242
            ],
            "type" : "VEC3"
        },
        {
            "bufferView" : 1,
            "componentType" : 5126,
            "count" : 1224,
            "type" : "VEC3"
        },
        {
            "bufferView" : 2,
            "componentType" : 5126,
            "count" : 1224,
            "type" : "VEC2"
        },
        {
            "bufferView" : 3,
            "componentType" : 5126,
            "count" : 1224,
            "type" : "VEC4"
        },
        {
            "bufferView" : 4,
            "componentType" : 5123,
            "count" : 1224,
            "type" : "SCALAR"
        }
    ],
    "bufferViews" : [
        {
            "buffer" : 0,
            "byteLength" : 14688,
            "byteOffset" : 0
        },
        {
            "buffer" : 0,
            "byteLength" : 14688,
            "byteOffset" : 14688
        },
        {
            "buffer" : 0,
            "byteLength" : 9792,
            "byteOffset" : 29376
        },
        {
            "buffer" : 0,
            "byteLength" : 19584,
            "byteOffset" : 39168
        },
        {
            "buffer" : 0,
            "byteLength" : 2448,
            "byteOffset" : 58752
        }
    ],
    "buffers" : [
        {
            "byteLength" : 61200,
            "uri" : "bisect-4-6-11.bin"
        }
    ]
}
