{
    "asset" : {
        "generator" : "Khronos glTF Blender I/O v1.1.46",
        "version" : "2.0"
    },
    "scene" : 0,
    "scenes" : [
        {
            "name" : "Scene",
            "nodes" : [
                0
            ]
        }
    ],
    "nodes" : [
        {
            "mesh" : 0,
            "name" : "bisect-5-3-9"
        }
    ],
    "materials" : [
        {
            "doubleSided" : true,
            "emissiveFactor" : [
                0,
                0,
                0
            ],
            "name" : "Material.003",
            "pbrMetallicRoughness" : {
                "metallicFactor" : 0,
                "roughnessFactor" : 0.5
            }
        }
    ],
    "meshes" : [
        {
            "name" : "bisect-5-3-9",
            "primitives" : [
                {
                    "attributes" : {
                        "POSITION" : 0,
                        "NORMAL" : 1,
                        "TEXCOORD_0" : 2,
                        "COLOR_0" : 3
                    },
                    "indices" : 4,
                    "material" : 0
                }
            ]
        }
    ],
    "accessors" : [
        {
            "bufferView" : 0,
            "componentType" : 5126,
            "count" : 1266,
            "max" : [
                122,
                82,
                -182
            ],
            "min" : [
                102,
                65.9621353149414,
                -202
            ],
            "type" : "VEC3"
        },
        {
            "bufferView" : 1,
            "componentType" : 5126,
            "count" : 1266,
            "type" : "VEC3"
        },
        {
            "bufferView" : 2,
            "componentType" : 5126,
            "count" : 1266,
            "type" : "VEC2"
        },
        {
            "bufferView" : 3,
            "componentType" : 5126,
            "count" : 1266,
            "type" : "VEC4"
        },
        {
            "bufferView" : 4,
            "componentType" : 5123,
            "count" : 1266,
            "type" : "SCALAR"
        }
    ],
    "bufferViews" : [
        {
            "buffer" : 0,
            "byteLength" : 15192,
            "byteOffset" : 0
        },
        {
            "buffer" : 0,
            "byteLength" : 15192,
            "byteOffset" : 15192
        },
        {
            "buffer" : 0,
            "byteLength" : 10128,
            "byteOffset" : 30384
        },
        {
            "buffer" : 0,
            "byteLength" : 20256,
            "byteOffset" : 40512
        },
        {
            "buffer" : 0,
            "byteLength" : 2532,
            "byteOffset" : 60768
        }
    ],
    "buffers" : [
        {
            "byteLength" : 63300,
            "uri" : "bisect-5-3-9.bin"
        }
    ]
}
