{
    "asset" : {
        "generator" : "Khronos glTF Blender I/O v1.1.46",
        "version" : "2.0"
    },
    "scene" : 0,
    "scenes" : [
        {
            "name" : "Scene",
            "nodes" : [
                0
            ]
        }
    ],
    "nodes" : [
        {
            "mesh" : 0,
            "name" : "bisect-6-1-5"
        }
    ],
    "materials" : [
        {
            "doubleSided" : true,
            "emissiveFactor" : [
                0,
                0,
                0
            ],
            "name" : "Material.003",
            "pbrMetallicRoughness" : {
                "metallicFactor" : 0,
                "roughnessFactor" : 0.5
            }
        }
    ],
    "meshes" : [
        {
            "name" : "bisect-6-1-5",
            "primitives" : [
                {
                    "attributes" : {
                        "POSITION" : 0,
                        "NORMAL" : 1,
                        "TEXCOORD_0" : 2,
                        "COLOR_0" : 3
                    },
                    "indices" : 4,
                    "material" : 0
                }
            ]
        }
    ],
    "accessors" : [
        {
            "bufferView" : 0,
            "componentType" : 5126,
            "count" : 684,
            "max" : [
                142,
                41.26695251464844,
                -102
            ],
            "min" : [
                122,
                30.992061614990234,
                -122
            ],
            "type" : "VEC3"
        },
        {
            "bufferView" : 1,
            "componentType" : 5126,
            "count" : 684,
            "type" : "VEC3"
        },
        {
            "bufferView" : 2,
            "componentType" : 5126,
            "count" : 684,
            "type" : "VEC2"
        },
        {
            "bufferView" : 3,
            "componentType" : 5126,
            "count" : 684,
            "type" : "VEC4"
        },
        {
            "bufferView" : 4,
            "componentType" : 5123,
            "count" : 684,
            "type" : "SCALAR"
        }
    ],
    "bufferViews" : [
        {
            "buffer" : 0,
            "byteLength" : 8208,
            "byteOffset" : 0
        },
        {
            "buffer" : 0,
            "byteLength" : 8208,
            "byteOffset" : 8208
        },
        {
            "buffer" : 0,
            "byteLength" : 5472,
            "byteOffset" : 16416
        },
        {
            "buffer" : 0,
            "byteLength" : 10944,
            "byteOffset" : 21888
        },
        {
            "buffer" : 0,
            "byteLength" : 1368,
            "byteOffset" : 32832
        }
    ],
    "buffers" : [
        {
            "byteLength" : 34200,
            "uri" : "bisect-6-1-5.bin"
        }
    ]
}
