{
    "asset" : {
        "generator" : "Khronos glTF Blender I/O v1.1.46",
        "version" : "2.0"
    },
    "scene" : 0,
    "scenes" : [
        {
            "name" : "Scene",
            "nodes" : [
                0
            ]
        }
    ],
    "nodes" : [
        {
            "mesh" : 0,
            "name" : "bisect-3-6-11"
        }
    ],
    "materials" : [
        {
            "doubleSided" : true,
            "emissiveFactor" : [
                0,
                0,
                0
            ],
            "name" : "Material.003",
            "pbrMetallicRoughness" : {
                "metallicFactor" : 0,
                "roughnessFactor" : 0.5
            }
        }
    ],
    "meshes" : [
        {
            "name" : "bisect-3-6-11",
            "primitives" : [
                {
                    "attributes" : {
                        "POSITION" : 0,
                        "NORMAL" : 1,
                        "TEXCOORD_0" : 2,
                        "COLOR_0" : 3
                    },
                    "indices" : 4,
                    "material" : 0
                }
            ]
        }
    ],
    "accessors" : [
        {
            "bufferView" : 0,
            "componentType" : 5126,
            "count" : 840,
            "max" : [
                82,
                128.46998596191406,
                -222
            ],
            "min" : [
                64.9864501953125,
                122,
                -242
            ],
            "type" : "VEC3"
        },
        {
            "bufferView" : 1,
            "componentType" : 5126,
            "count" : 840,
            "type" : "VEC3"
        },
        {
            "bufferView" : 2,
            "componentType" : 5126,
            "count" : 840,
            "type" : "VEC2"
        },
        {
            "bufferView" : 3,
            "componentType" : 5126,
            "count" : 840,
            "type" : "VEC4"
        },
        {
            "bufferView" : 4,
            "componentType" : 5123,
            "count" : 840,
            "type" : "SCALAR"
        }
    ],
    "bufferViews" : [
        {
            "buffer" : 0,
            "byteLength" : 10080,
            "byteOffset" : 0
        },
        {
            "buffer" : 0,
            "byteLength" : 10080,
            "byteOffset" : 10080
        },
        {
            "buffer" : 0,
            "byteLength" : 6720,
            "byteOffset" : 20160
        },
        {
            "buffer" : 0,
            "byteLength" : 13440,
            "byteOffset" : 26880
        },
        {
            "buffer" : 0,
            "byteLength" : 1680,
            "byteOffset" : 40320
        }
    ],
    "buffers" : [
        {
            "byteLength" : 42000,
            "uri" : "bisect-3-6-11.bin"
        }
    ]
}
