{
    "asset" : {
        "generator" : "Khronos glTF Blender I/O v1.1.46",
        "version" : "2.0"
    },
    "scene" : 0,
    "scenes" : [
        {
            "name" : "Scene",
            "nodes" : [
                0
            ]
        }
    ],
    "nodes" : [
        {
            "mesh" : 0,
            "name" : "bisect-0-5-6"
        }
    ],
    "materials" : [
        {
            "doubleSided" : true,
            "emissiveFactor" : [
                0,
                0,
                0
            ],
            "name" : "Material.003",
            "pbrMetallicRoughness" : {
                "metallicFactor" : 0,
                "roughnessFactor" : 0.5
            }
        }
    ],
    "meshes" : [
        {
            "name" : "bisect-0-5-6",
            "primitives" : [
                {
                    "attributes" : {
                        "POSITION" : 0,
                        "NORMAL" : 1,
                        "TEXCOORD_0" : 2,
                        "COLOR_0" : 3
                    },
                    "indices" : 4,
                    "material" : 0
                }
            ]
        }
    ],
    "accessors" : [
        {
            "bufferView" : 0,
            "componentType" : 5126,
            "count" : 726,
            "max" : [
                14.736126899719238,
                122,
                -122
            ],
            "min" : [
                6.807106018066406,
                105.66091918945312,
                -142
            ],
            "type" : "VEC3"
        },
        {
            "bufferView" : 1,
            "componentType" : 5126,
            "count" : 726,
            "type" : "VEC3"
        },
        {
            "bufferView" : 2,
            "componentType" : 5126,
            "count" : 726,
            "type" : "VEC2"
        },
        {
            "bufferView" : 3,
            "componentType" : 5126,
            "count" : 726,
            "type" : "VEC4"
        },
        {
            "bufferView" : 4,
            "componentType" : 5123,
            "count" : 726,
            "type" : "SCALAR"
        }
    ],
    "bufferViews" : [
        {
            "buffer" : 0,
            "byteLength" : 8712,
            "byteOffset" : 0
        },
        {
            "buffer" : 0,
            "byteLength" : 8712,
            "byteOffset" : 8712
        },
        {
            "buffer" : 0,
            "byteLength" : 5808,
            "byteOffset" : 17424
        },
        {
            "buffer" : 0,
            "byteLength" : 11616,
            "byteOffset" : 23232
        },
        {
            "buffer" : 0,
            "byteLength" : 1452,
            "byteOffset" : 34848
        }
    ],
    "buffers" : [
        {
            "byteLength" : 36300,
            "uri" : "bisect-0-5-6.bin"
        }
    ]
}
