{
    "asset" : {
        "generator" : "Khronos glTF Blender I/O v1.1.46",
        "version" : "2.0"
    },
    "scene" : 0,
    "scenes" : [
        {
            "name" : "Scene",
            "nodes" : [
                0
            ]
        }
    ],
    "nodes" : [
        {
            "mesh" : 0,
            "name" : "bisect-4-5-9"
        }
    ],
    "materials" : [
        {
            "doubleSided" : true,
            "emissiveFactor" : [
                0,
                0,
                0
            ],
            "name" : "Material.003",
            "pbrMetallicRoughness" : {
                "metallicFactor" : 0,
                "roughnessFactor" : 0.5
            }
        }
    ],
    "meshes" : [
        {
            "name" : "bisect-4-5-9",
            "primitives" : [
                {
                    "attributes" : {
                        "POSITION" : 0,
                        "NORMAL" : 1,
                        "TEXCOORD_0" : 2,
                        "COLOR_0" : 3
                    },
                    "indices" : 4,
                    "material" : 0
                }
            ]
        }
    ],
    "accessors" : [
        {
            "bufferView" : 0,
            "componentType" : 5126,
            "count" : 534,
            "max" : [
                102,
                111.68302154541016,
                -198.66781616210938
            ],
            "min" : [
                82,
                102,
                -202
            ],
            "type" : "VEC3"
        },
        {
            "bufferView" : 1,
            "componentType" : 5126,
            "count" : 534,
            "type" : "VEC3"
        },
        {
            "bufferView" : 2,
            "componentType" : 5126,
            "count" : 534,
            "type" : "VEC2"
        },
        {
            "bufferView" : 3,
            "componentType" : 5126,
            "count" : 534,
            "type" : "VEC4"
        },
        {
            "bufferView" : 4,
            "componentType" : 5123,
            "count" : 534,
            "type" : "SCALAR"
        }
    ],
    "bufferViews" : [
        {
            "buffer" : 0,
            "byteLength" : 6408,
            "byteOffset" : 0
        },
        {
            "buffer" : 0,
            "byteLength" : 6408,
            "byteOffset" : 6408
        },
        {
            "buffer" : 0,
            "byteLength" : 4272,
            "byteOffset" : 12816
        },
        {
            "buffer" : 0,
            "byteLength" : 8544,
            "byteOffset" : 17088
        },
        {
            "buffer" : 0,
            "byteLength" : 1068,
            "byteOffset" : 25632
        }
    ],
    "buffers" : [
        {
            "byteLength" : 26700,
            "uri" : "bisect-4-5-9.bin"
        }
    ]
}
