{
    "asset" : {
        "generator" : "Khronos glTF Blender I/O v1.1.46",
        "version" : "2.0"
    },
    "scene" : 0,
    "scenes" : [
        {
            "name" : "Scene",
            "nodes" : [
                0
            ]
        }
    ],
    "nodes" : [
        {
            "mesh" : 0,
            "name" : "bisect-8-4-3"
        }
    ],
    "materials" : [
        {
            "doubleSided" : true,
            "emissiveFactor" : [
                0,
                0,
                0
            ],
            "name" : "Material.003",
            "pbrMetallicRoughness" : {
                "metallicFactor" : 0,
                "roughnessFactor" : 0.5
            }
        }
    ],
    "meshes" : [
        {
            "name" : "bisect-8-4-3",
            "primitives" : [
                {
                    "attributes" : {
                        "POSITION" : 0,
                        "NORMAL" : 1,
                        "TEXCOORD_0" : 2,
                        "COLOR_0" : 3
                    },
                    "indices" : 4,
                    "material" : 0
                }
            ]
        }
    ],
    "accessors" : [
        {
            "bufferView" : 0,
            "componentType" : 5126,
            "count" : 237,
            "max" : [
                169.62669372558594,
                89.47161865234375,
                -62
            ],
            "min" : [
                162,
                82,
                -82
            ],
            "type" : "VEC3"
        },
        {
            "bufferView" : 1,
            "componentType" : 5126,
            "count" : 237,
            "type" : "VEC3"
        },
        {
            "bufferView" : 2,
            "componentType" : 5126,
            "count" : 237,
            "type" : "VEC2"
        },
        {
            "bufferView" : 3,
            "componentType" : 5126,
            "count" : 237,
            "type" : "VEC4"
        },
        {
            "bufferView" : 4,
            "componentType" : 5123,
            "count" : 237,
            "type" : "SCALAR"
        }
    ],
    "bufferViews" : [
        {
            "buffer" : 0,
            "byteLength" : 2844,
            "byteOffset" : 0
        },
        {
            "buffer" : 0,
            "byteLength" : 2844,
            "byteOffset" : 2844
        },
        {
            "buffer" : 0,
            "byteLength" : 1896,
            "byteOffset" : 5688
        },
        {
            "buffer" : 0,
            "byteLength" : 3792,
            "byteOffset" : 7584
        },
        {
            "buffer" : 0,
            "byteLength" : 474,
            "byteOffset" : 11376
        }
    ],
    "buffers" : [
        {
            "byteLength" : 11852,
            "uri" : "bisect-8-4-3.bin"
        }
    ]
}
