{
    "asset" : {
        "generator" : "Khronos glTF Blender I/O v1.1.46",
        "version" : "2.0"
    },
    "scene" : 0,
    "scenes" : [
        {
            "name" : "Scene",
            "nodes" : [
                0
            ]
        }
    ],
    "nodes" : [
        {
            "mesh" : 0,
            "name" : "bisect-6-5-10"
        }
    ],
    "materials" : [
        {
            "doubleSided" : true,
            "emissiveFactor" : [
                0,
                0,
                0
            ],
            "name" : "Material.003",
            "pbrMetallicRoughness" : {
                "metallicFactor" : 0,
                "roughnessFactor" : 0.5
            }
        }
    ],
    "meshes" : [
        {
            "name" : "bisect-6-5-10",
            "primitives" : [
                {
                    "attributes" : {
                        "POSITION" : 0,
                        "NORMAL" : 1,
                        "TEXCOORD_0" : 2,
                        "COLOR_0" : 3
                    },
                    "indices" : 4,
                    "material" : 0
                }
            ]
        }
    ],
    "accessors" : [
        {
            "bufferView" : 0,
            "componentType" : 5126,
            "count" : 594,
            "max" : [
                129.242919921875,
                107.89041900634766,
                -209.08868408203125
            ],
            "min" : [
                122,
                102,
                -222
            ],
            "type" : "VEC3"
        },
        {
            "bufferView" : 1,
            "componentType" : 5126,
            "count" : 594,
            "type" : "VEC3"
        },
        {
            "bufferView" : 2,
            "componentType" : 5126,
            "count" : 594,
            "type" : "VEC2"
        },
        {
            "bufferView" : 3,
            "componentType" : 5126,
            "count" : 594,
            "type" : "VEC4"
        },
        {
            "bufferView" : 4,
            "componentType" : 5123,
            "count" : 594,
            "type" : "SCALAR"
        }
    ],
    "bufferViews" : [
        {
            "buffer" : 0,
            "byteLength" : 7128,
            "byteOffset" : 0
        },
        {
            "buffer" : 0,
            "byteLength" : 7128,
            "byteOffset" : 7128
        },
        {
            "buffer" : 0,
            "byteLength" : 4752,
            "byteOffset" : 14256
        },
        {
            "buffer" : 0,
            "byteLength" : 9504,
            "byteOffset" : 19008
        },
        {
            "buffer" : 0,
            "byteLength" : 1188,
            "byteOffset" : 28512
        }
    ],
    "buffers" : [
        {
            "byteLength" : 29700,
            "uri" : "bisect-6-5-10.bin"
        }
    ]
}
