{
    "asset" : {
        "generator" : "Khronos glTF Blender I/O v1.1.46",
        "version" : "2.0"
    },
    "scene" : 0,
    "scenes" : [
        {
            "name" : "Scene",
            "nodes" : [
                0
            ]
        }
    ],
    "nodes" : [
        {
            "mesh" : 0,
            "name" : "bisect-3-4-6"
        }
    ],
    "materials" : [
        {
            "doubleSided" : true,
            "emissiveFactor" : [
                0,
                0,
                0
            ],
            "name" : "Material.003",
            "pbrMetallicRoughness" : {
                "metallicFactor" : 0,
                "roughnessFactor" : 0.5
            }
        }
    ],
    "meshes" : [
        {
            "name" : "bisect-3-4-6",
            "primitives" : [
                {
                    "attributes" : {
                        "POSITION" : 0,
                        "NORMAL" : 1,
                        "TEXCOORD_0" : 2,
                        "COLOR_0" : 3
                    },
                    "indices" : 4,
                    "material" : 0
                }
            ]
        }
    ],
    "accessors" : [
        {
            "bufferView" : 0,
            "componentType" : 5126,
            "count" : 1326,
            "max" : [
                82,
                102,
                -122
            ],
            "min" : [
                63.218292236328125,
                93.98963928222656,
                -142
            ],
            "type" : "VEC3"
        },
        {
            "bufferView" : 1,
            "componentType" : 5126,
            "count" : 1326,
            "type" : "VEC3"
        },
        {
            "bufferView" : 2,
            "componentType" : 5126,
            "count" : 1326,
            "type" : "VEC2"
        },
        {
            "bufferView" : 3,
            "componentType" : 5126,
            "count" : 1326,
            "type" : "VEC4"
        },
        {
            "bufferView" : 4,
            "componentType" : 5123,
            "count" : 1326,
            "type" : "SCALAR"
        }
    ],
    "bufferViews" : [
        {
            "buffer" : 0,
            "byteLength" : 15912,
            "byteOffset" : 0
        },
        {
            "buffer" : 0,
            "byteLength" : 15912,
            "byteOffset" : 15912
        },
        {
            "buffer" : 0,
            "byteLength" : 10608,
            "byteOffset" : 31824
        },
        {
            "buffer" : 0,
            "byteLength" : 21216,
            "byteOffset" : 42432
        },
        {
            "buffer" : 0,
            "byteLength" : 2652,
            "byteOffset" : 63648
        }
    ],
    "buffers" : [
        {
            "byteLength" : 66300,
            "uri" : "bisect-3-4-6.bin"
        }
    ]
}
