{
    "asset" : {
        "generator" : "Khronos glTF Blender I/O v1.1.46",
        "version" : "2.0"
    },
    "scene" : 0,
    "scenes" : [
        {
            "name" : "Scene",
            "nodes" : [
                0
            ]
        }
    ],
    "nodes" : [
        {
            "mesh" : 0,
            "name" : "bisect-7-2-5"
        }
    ],
    "materials" : [
        {
            "doubleSided" : true,
            "emissiveFactor" : [
                0,
                0,
                0
            ],
            "name" : "Material.003",
            "pbrMetallicRoughness" : {
                "metallicFactor" : 0,
                "roughnessFactor" : 0.5
            }
        }
    ],
    "meshes" : [
        {
            "name" : "bisect-7-2-5",
            "primitives" : [
                {
                    "attributes" : {
                        "POSITION" : 0,
                        "NORMAL" : 1,
                        "TEXCOORD_0" : 2,
                        "COLOR_0" : 3
                    },
                    "indices" : 4,
                    "material" : 0
                }
            ]
        }
    ],
    "accessors" : [
        {
            "bufferView" : 0,
            "componentType" : 5126,
            "count" : 969,
            "max" : [
                162,
                62,
                -102
            ],
            "min" : [
                142,
                53.517723083496094,
                -122
            ],
            "type" : "VEC3"
        },
        {
            "bufferView" : 1,
            "componentType" : 5126,
            "count" : 969,
            "type" : "VEC3"
        },
        {
            "bufferView" : 2,
            "componentType" : 5126,
            "count" : 969,
            "type" : "VEC2"
        },
        {
            "bufferView" : 3,
            "componentType" : 5126,
            "count" : 969,
            "type" : "VEC4"
        },
        {
            "bufferView" : 4,
            "componentType" : 5123,
            "count" : 969,
            "type" : "SCALAR"
        }
    ],
    "bufferViews" : [
        {
            "buffer" : 0,
            "byteLength" : 11628,
            "byteOffset" : 0
        },
        {
            "buffer" : 0,
            "byteLength" : 11628,
            "byteOffset" : 11628
        },
        {
            "buffer" : 0,
            "byteLength" : 7752,
            "byteOffset" : 23256
        },
        {
            "buffer" : 0,
            "byteLength" : 15504,
            "byteOffset" : 31008
        },
        {
            "buffer" : 0,
            "byteLength" : 1938,
            "byteOffset" : 46512
        }
    ],
    "buffers" : [
        {
            "byteLength" : 48452,
            "uri" : "bisect-7-2-5.bin"
        }
    ]
}
