{
    "asset" : {
        "generator" : "Khronos glTF Blender I/O v1.1.46",
        "version" : "2.0"
    },
    "scene" : 0,
    "scenes" : [
        {
            "name" : "Scene",
            "nodes" : [
                0
            ]
        }
    ],
    "nodes" : [
        {
            "mesh" : 0,
            "name" : "bisect-7-3-12"
        }
    ],
    "materials" : [
        {
            "doubleSided" : true,
            "emissiveFactor" : [
                0,
                0,
                0
            ],
            "name" : "Material.003",
            "pbrMetallicRoughness" : {
                "metallicFactor" : 0,
                "roughnessFactor" : 0.5
            }
        }
    ],
    "meshes" : [
        {
            "name" : "bisect-7-3-12",
            "primitives" : [
                {
                    "attributes" : {
                        "POSITION" : 0,
                        "NORMAL" : 1,
                        "TEXCOORD_0" : 2,
                        "COLOR_0" : 3
                    },
                    "indices" : 4,
                    "material" : 0
                }
            ]
        }
    ],
    "accessors" : [
        {
            "bufferView" : 0,
            "componentType" : 5126,
            "count" : 114,
            "max" : [
                144.31845092773438,
                82,
                -244.2895965576172
            ],
            "min" : [
                142,
                80.07128143310547,
                -256.4734802246094
            ],
            "type" : "VEC3"
        },
        {
            "bufferView" : 1,
            "componentType" : 5126,
            "count" : 114,
            "type" : "VEC3"
        },
        {
            "bufferView" : 2,
            "componentType" : 5126,
            "count" : 114,
            "type" : "VEC2"
        },
        {
            "bufferView" : 3,
            "componentType" : 5126,
            "count" : 114,
            "type" : "VEC4"
        },
        {
            "bufferView" : 4,
            "componentType" : 5123,
            "count" : 114,
            "type" : "SCALAR"
        }
    ],
    "bufferViews" : [
        {
            "buffer" : 0,
            "byteLength" : 1368,
            "byteOffset" : 0
        },
        {
            "buffer" : 0,
            "byteLength" : 1368,
            "byteOffset" : 1368
        },
        {
            "buffer" : 0,
            "byteLength" : 912,
            "byteOffset" : 2736
        },
        {
            "buffer" : 0,
            "byteLength" : 1824,
            "byteOffset" : 3648
        },
        {
            "buffer" : 0,
            "byteLength" : 228,
            "byteOffset" : 5472
        }
    ],
    "buffers" : [
        {
            "byteLength" : 5700,
            "uri" : "bisect-7-3-12.bin"
        }
    ]
}
