{
    "asset" : {
        "generator" : "Khronos glTF Blender I/O v1.1.46",
        "version" : "2.0"
    },
    "scene" : 0,
    "scenes" : [
        {
            "name" : "Scene",
            "nodes" : [
                0
            ]
        }
    ],
    "nodes" : [
        {
            "mesh" : 0,
            "name" : "bisect-5-3-4"
        }
    ],
    "materials" : [
        {
            "doubleSided" : true,
            "emissiveFactor" : [
                0,
                0,
                0
            ],
            "name" : "Material.003",
            "pbrMetallicRoughness" : {
                "metallicFactor" : 0,
                "roughnessFactor" : 0.5
            }
        }
    ],
    "meshes" : [
        {
            "name" : "bisect-5-3-4",
            "primitives" : [
                {
                    "attributes" : {
                        "POSITION" : 0,
                        "NORMAL" : 1,
                        "TEXCOORD_0" : 2,
                        "COLOR_0" : 3
                    },
                    "indices" : 4,
                    "material" : 0
                }
            ]
        }
    ],
    "accessors" : [
        {
            "bufferView" : 0,
            "componentType" : 5126,
            "count" : 333,
            "max" : [
                109.82917022705078,
                80.45565795898438,
                -82
            ],
            "min" : [
                102,
                62,
                -102
            ],
            "type" : "VEC3"
        },
        {
            "bufferView" : 1,
            "componentType" : 5126,
            "count" : 333,
            "type" : "VEC3"
        },
        {
            "bufferView" : 2,
            "componentType" : 5126,
            "count" : 333,
            "type" : "VEC2"
        },
        {
            "bufferView" : 3,
            "componentType" : 5126,
            "count" : 333,
            "type" : "VEC4"
        },
        {
            "bufferView" : 4,
            "componentType" : 5123,
            "count" : 333,
            "type" : "SCALAR"
        }
    ],
    "bufferViews" : [
        {
            "buffer" : 0,
            "byteLength" : 3996,
            "byteOffset" : 0
        },
        {
            "buffer" : 0,
            "byteLength" : 3996,
            "byteOffset" : 3996
        },
        {
            "buffer" : 0,
            "byteLength" : 2664,
            "byteOffset" : 7992
        },
        {
            "buffer" : 0,
            "byteLength" : 5328,
            "byteOffset" : 10656
        },
        {
            "buffer" : 0,
            "byteLength" : 666,
            "byteOffset" : 15984
        }
    ],
    "buffers" : [
        {
            "byteLength" : 16652,
            "uri" : "bisect-5-3-4.bin"
        }
    ]
}
