{
    "asset" : {
        "generator" : "Khronos glTF Blender I/O v1.1.46",
        "version" : "2.0"
    },
    "scene" : 0,
    "scenes" : [
        {
            "name" : "Scene",
            "nodes" : [
                0
            ]
        }
    ],
    "nodes" : [
        {
            "mesh" : 0,
            "name" : "bisect-5-3-2"
        }
    ],
    "materials" : [
        {
            "doubleSided" : true,
            "emissiveFactor" : [
                0,
                0,
                0
            ],
            "name" : "Material.003",
            "pbrMetallicRoughness" : {
                "metallicFactor" : 0,
                "roughnessFactor" : 0.5
            }
        }
    ],
    "meshes" : [
        {
            "name" : "bisect-5-3-2",
            "primitives" : [
                {
                    "attributes" : {
                        "POSITION" : 0,
                        "NORMAL" : 1,
                        "TEXCOORD_0" : 2,
                        "COLOR_0" : 3
                    },
                    "indices" : 4,
                    "material" : 0
                }
            ]
        }
    ],
    "accessors" : [
        {
            "bufferView" : 0,
            "componentType" : 5126,
            "count" : 159,
            "max" : [
                122,
                79.71559143066406,
                -42
            ],
            "min" : [
                115.27497100830078,
                62,
                -47.66859817504883
            ],
            "type" : "VEC3"
        },
        {
            "bufferView" : 1,
            "componentType" : 5126,
            "count" : 159,
            "type" : "VEC3"
        },
        {
            "bufferView" : 2,
            "componentType" : 5126,
            "count" : 159,
            "type" : "VEC2"
        },
        {
            "bufferView" : 3,
            "componentType" : 5126,
            "count" : 159,
            "type" : "VEC4"
        },
        {
            "bufferView" : 4,
            "componentType" : 5123,
            "count" : 159,
            "type" : "SCALAR"
        }
    ],
    "bufferViews" : [
        {
            "buffer" : 0,
            "byteLength" : 1908,
            "byteOffset" : 0
        },
        {
            "buffer" : 0,
            "byteLength" : 1908,
            "byteOffset" : 1908
        },
        {
            "buffer" : 0,
            "byteLength" : 1272,
            "byteOffset" : 3816
        },
        {
            "buffer" : 0,
            "byteLength" : 2544,
            "byteOffset" : 5088
        },
        {
            "buffer" : 0,
            "byteLength" : 318,
            "byteOffset" : 7632
        }
    ],
    "buffers" : [
        {
            "byteLength" : 7952,
            "uri" : "bisect-5-3-2.bin"
        }
    ]
}
