{
    "asset" : {
        "generator" : "Khronos glTF Blender I/O v1.1.46",
        "version" : "2.0"
    },
    "scene" : 0,
    "scenes" : [
        {
            "name" : "Scene",
            "nodes" : [
                0
            ]
        }
    ],
    "nodes" : [
        {
            "mesh" : 0,
            "name" : "bisect-7-2-7"
        }
    ],
    "materials" : [
        {
            "doubleSided" : true,
            "emissiveFactor" : [
                0,
                0,
                0
            ],
            "name" : "Material.003",
            "pbrMetallicRoughness" : {
                "metallicFactor" : 0,
                "roughnessFactor" : 0.5
            }
        }
    ],
    "meshes" : [
        {
            "name" : "bisect-7-2-7",
            "primitives" : [
                {
                    "attributes" : {
                        "POSITION" : 0,
                        "NORMAL" : 1,
                        "TEXCOORD_0" : 2,
                        "COLOR_0" : 3
                    },
                    "indices" : 4,
                    "material" : 0
                }
            ]
        }
    ],
    "accessors" : [
        {
            "bufferView" : 0,
            "componentType" : 5126,
            "count" : 1269,
            "max" : [
                155.5946502685547,
                60.53950500488281,
                -142
            ],
            "min" : [
                142,
                42,
                -155.24545288085938
            ],
            "type" : "VEC3"
        },
        {
            "bufferView" : 1,
            "componentType" : 5126,
            "count" : 1269,
            "type" : "VEC3"
        },
        {
            "bufferView" : 2,
            "componentType" : 5126,
            "count" : 1269,
            "type" : "VEC2"
        },
        {
            "bufferView" : 3,
            "componentType" : 5126,
            "count" : 1269,
            "type" : "VEC4"
        },
        {
            "bufferView" : 4,
            "componentType" : 5123,
            "count" : 1269,
            "type" : "SCALAR"
        }
    ],
    "bufferViews" : [
        {
            "buffer" : 0,
            "byteLength" : 15228,
            "byteOffset" : 0
        },
        {
            "buffer" : 0,
            "byteLength" : 15228,
            "byteOffset" : 15228
        },
        {
            "buffer" : 0,
            "byteLength" : 10152,
            "byteOffset" : 30456
        },
        {
            "buffer" : 0,
            "byteLength" : 20304,
            "byteOffset" : 40608
        },
        {
            "buffer" : 0,
            "byteLength" : 2538,
            "byteOffset" : 60912
        }
    ],
    "buffers" : [
        {
            "byteLength" : 63452,
            "uri" : "bisect-7-2-7.bin"
        }
    ]
}
