{
    "asset" : {
        "generator" : "Khronos glTF Blender I/O v1.1.46",
        "version" : "2.0"
    },
    "scene" : 0,
    "scenes" : [
        {
            "name" : "Scene",
            "nodes" : [
                0
            ]
        }
    ],
    "nodes" : [
        {
            "mesh" : 0,
            "name" : "bisect-4-6-3"
        }
    ],
    "materials" : [
        {
            "doubleSided" : true,
            "emissiveFactor" : [
                0,
                0,
                0
            ],
            "name" : "Material.003",
            "pbrMetallicRoughness" : {
                "metallicFactor" : 0,
                "roughnessFactor" : 0.5
            }
        }
    ],
    "meshes" : [
        {
            "name" : "bisect-4-6-3",
            "primitives" : [
                {
                    "attributes" : {
                        "POSITION" : 0,
                        "NORMAL" : 1,
                        "TEXCOORD_0" : 2,
                        "COLOR_0" : 3
                    },
                    "indices" : 4,
                    "material" : 0
                }
            ]
        }
    ],
    "accessors" : [
        {
            "bufferView" : 0,
            "componentType" : 5126,
            "count" : 207,
            "max" : [
                89.92889404296875,
                122.52597045898438,
                -62
            ],
            "min" : [
                82,
                122,
                -67.25199127197266
            ],
            "type" : "VEC3"
        },
        {
            "bufferView" : 1,
            "componentType" : 5126,
            "count" : 207,
            "type" : "VEC3"
        },
        {
            "bufferView" : 2,
            "componentType" : 5126,
            "count" : 207,
            "type" : "VEC2"
        },
        {
            "bufferView" : 3,
            "componentType" : 5126,
            "count" : 207,
            "type" : "VEC4"
        },
        {
            "bufferView" : 4,
            "componentType" : 5123,
            "count" : 207,
            "type" : "SCALAR"
        }
    ],
    "bufferViews" : [
        {
            "buffer" : 0,
            "byteLength" : 2484,
            "byteOffset" : 0
        },
        {
            "buffer" : 0,
            "byteLength" : 2484,
            "byteOffset" : 2484
        },
        {
            "buffer" : 0,
            "byteLength" : 1656,
            "byteOffset" : 4968
        },
        {
            "buffer" : 0,
            "byteLength" : 3312,
            "byteOffset" : 6624
        },
        {
            "buffer" : 0,
            "byteLength" : 414,
            "byteOffset" : 9936
        }
    ],
    "buffers" : [
        {
            "byteLength" : 10352,
            "uri" : "bisect-4-6-3.bin"
        }
    ]
}
