{
    "asset" : {
        "generator" : "Khronos glTF Blender I/O v1.1.46",
        "version" : "2.0"
    },
    "scene" : 0,
    "scenes" : [
        {
            "name" : "Scene",
            "nodes" : [
                0
            ]
        }
    ],
    "nodes" : [
        {
            "mesh" : 0,
            "name" : "bisect-2-6-6"
        }
    ],
    "materials" : [
        {
            "doubleSided" : true,
            "emissiveFactor" : [
                0,
                0,
                0
            ],
            "name" : "Material.003",
            "pbrMetallicRoughness" : {
                "metallicFactor" : 0,
                "roughnessFactor" : 0.5
            }
        }
    ],
    "meshes" : [
        {
            "name" : "bisect-2-6-6",
            "primitives" : [
                {
                    "attributes" : {
                        "POSITION" : 0,
                        "NORMAL" : 1,
                        "TEXCOORD_0" : 2,
                        "COLOR_0" : 3
                    },
                    "indices" : 4,
                    "material" : 0
                }
            ]
        }
    ],
    "accessors" : [
        {
            "bufferView" : 0,
            "componentType" : 5126,
            "count" : 32601,
            "max" : [
                61.87400817871094,
                126.4371337890625,
                -122
            ],
            "min" : [
                42,
                122,
                -142
            ],
            "type" : "VEC3"
        },
        {
            "bufferView" : 1,
            "componentType" : 5126,
            "count" : 32601,
            "type" : "VEC3"
        },
        {
            "bufferView" : 2,
            "componentType" : 5126,
            "count" : 32601,
            "type" : "VEC2"
        },
        {
            "bufferView" : 3,
            "componentType" : 5126,
            "count" : 32601,
            "type" : "VEC4"
        },
        {
            "bufferView" : 4,
            "componentType" : 5123,
            "count" : 32601,
            "type" : "SCALAR"
        }
    ],
    "bufferViews" : [
        {
            "buffer" : 0,
            "byteLength" : 391212,
            "byteOffset" : 0
        },
        {
            "buffer" : 0,
            "byteLength" : 391212,
            "byteOffset" : 391212
        },
        {
            "buffer" : 0,
            "byteLength" : 260808,
            "byteOffset" : 782424
        },
        {
            "buffer" : 0,
            "byteLength" : 521616,
            "byteOffset" : 1043232
        },
        {
            "buffer" : 0,
            "byteLength" : 65202,
            "byteOffset" : 1564848
        }
    ],
    "buffers" : [
        {
            "byteLength" : 1630052,
            "uri" : "bisect-2-6-6.bin"
        }
    ]
}
