{
    "asset" : {
        "generator" : "Khronos glTF Blender I/O v1.1.46",
        "version" : "2.0"
    },
    "scene" : 0,
    "scenes" : [
        {
            "name" : "Scene",
            "nodes" : [
                0
            ]
        }
    ],
    "nodes" : [
        {
            "mesh" : 0,
            "name" : "bisect-6-4-9"
        }
    ],
    "materials" : [
        {
            "doubleSided" : true,
            "emissiveFactor" : [
                0,
                0,
                0
            ],
            "name" : "Material.003",
            "pbrMetallicRoughness" : {
                "metallicFactor" : 0,
                "roughnessFactor" : 0.5
            }
        }
    ],
    "meshes" : [
        {
            "name" : "bisect-6-4-9",
            "primitives" : [
                {
                    "attributes" : {
                        "POSITION" : 0,
                        "NORMAL" : 1,
                        "TEXCOORD_0" : 2,
                        "COLOR_0" : 3
                    },
                    "indices" : 4,
                    "material" : 0
                }
            ]
        }
    ],
    "accessors" : [
        {
            "bufferView" : 0,
            "componentType" : 5126,
            "count" : 1134,
            "max" : [
                140.78302001953125,
                91.35567474365234,
                -186.6403350830078
            ],
            "min" : [
                122,
                82,
                -202
            ],
            "type" : "VEC3"
        },
        {
            "bufferView" : 1,
            "componentType" : 5126,
            "count" : 1134,
            "type" : "VEC3"
        },
        {
            "bufferView" : 2,
            "componentType" : 5126,
            "count" : 1134,
            "type" : "VEC2"
        },
        {
            "bufferView" : 3,
            "componentType" : 5126,
            "count" : 1134,
            "type" : "VEC4"
        },
        {
            "bufferView" : 4,
            "componentType" : 5123,
            "count" : 1134,
            "type" : "SCALAR"
        }
    ],
    "bufferViews" : [
        {
            "buffer" : 0,
            "byteLength" : 13608,
            "byteOffset" : 0
        },
        {
            "buffer" : 0,
            "byteLength" : 13608,
            "byteOffset" : 13608
        },
        {
            "buffer" : 0,
            "byteLength" : 9072,
            "byteOffset" : 27216
        },
        {
            "buffer" : 0,
            "byteLength" : 18144,
            "byteOffset" : 36288
        },
        {
            "buffer" : 0,
            "byteLength" : 2268,
            "byteOffset" : 54432
        }
    ],
    "buffers" : [
        {
            "byteLength" : 56700,
            "uri" : "bisect-6-4-9.bin"
        }
    ]
}
