{
    "asset" : {
        "generator" : "Khronos glTF Blender I/O v1.1.46",
        "version" : "2.0"
    },
    "scene" : 0,
    "scenes" : [
        {
            "name" : "Scene",
            "nodes" : [
                0
            ]
        }
    ],
    "nodes" : [
        {
            "mesh" : 0,
            "name" : "bisect-1-5-6"
        }
    ],
    "materials" : [
        {
            "doubleSided" : true,
            "emissiveFactor" : [
                0,
                0,
                0
            ],
            "name" : "Material.003",
            "pbrMetallicRoughness" : {
                "metallicFactor" : 0,
                "roughnessFactor" : 0.5
            }
        }
    ],
    "meshes" : [
        {
            "name" : "bisect-1-5-6",
            "primitives" : [
                {
                    "attributes" : {
                        "POSITION" : 0,
                        "NORMAL" : 1,
                        "TEXCOORD_0" : 2,
                        "COLOR_0" : 3
                    },
                    "indices" : 4,
                    "material" : 0
                }
            ]
        }
    ],
    "accessors" : [
        {
            "bufferView" : 0,
            "componentType" : 5126,
            "count" : 3894,
            "max" : [
                42,
                122,
                -122
            ],
            "min" : [
                25.01644515991211,
                107.37382507324219,
                -141.24217224121094
            ],
            "type" : "VEC3"
        },
        {
            "bufferView" : 1,
            "componentType" : 5126,
            "count" : 3894,
            "type" : "VEC3"
        },
        {
            "bufferView" : 2,
            "componentType" : 5126,
            "count" : 3894,
            "type" : "VEC2"
        },
        {
            "bufferView" : 3,
            "componentType" : 5126,
            "count" : 3894,
            "type" : "VEC4"
        },
        {
            "bufferView" : 4,
            "componentType" : 5123,
            "count" : 3894,
            "type" : "SCALAR"
        }
    ],
    "bufferViews" : [
        {
            "buffer" : 0,
            "byteLength" : 46728,
            "byteOffset" : 0
        },
        {
            "buffer" : 0,
            "byteLength" : 46728,
            "byteOffset" : 46728
        },
        {
            "buffer" : 0,
            "byteLength" : 31152,
            "byteOffset" : 93456
        },
        {
            "buffer" : 0,
            "byteLength" : 62304,
            "byteOffset" : 124608
        },
        {
            "buffer" : 0,
            "byteLength" : 7788,
            "byteOffset" : 186912
        }
    ],
    "buffers" : [
        {
            "byteLength" : 194700,
            "uri" : "bisect-1-5-6.bin"
        }
    ]
}
