{
    "asset" : {
        "generator" : "Khronos glTF Blender I/O v1.1.46",
        "version" : "2.0"
    },
    "scene" : 0,
    "scenes" : [
        {
            "name" : "Scene",
            "nodes" : [
                0
            ]
        }
    ],
    "nodes" : [
        {
            "mesh" : 0,
            "name" : "bisect-3-3-3"
        }
    ],
    "materials" : [
        {
            "doubleSided" : true,
            "emissiveFactor" : [
                0,
                0,
                0
            ],
            "name" : "Material.003",
            "pbrMetallicRoughness" : {
                "metallicFactor" : 0,
                "roughnessFactor" : 0.5
            }
        }
    ],
    "meshes" : [
        {
            "name" : "bisect-3-3-3",
            "primitives" : [
                {
                    "attributes" : {
                        "POSITION" : 0,
                        "NORMAL" : 1,
                        "TEXCOORD_0" : 2,
                        "COLOR_0" : 3
                    },
                    "indices" : 4,
                    "material" : 0
                }
            ]
        }
    ],
    "accessors" : [
        {
            "bufferView" : 0,
            "componentType" : 5126,
            "count" : 390,
            "max" : [
                82,
                82,
                -62
            ],
            "min" : [
                71.51020050048828,
                62.61043167114258,
                -70.13162994384766
            ],
            "type" : "VEC3"
        },
        {
            "bufferView" : 1,
            "componentType" : 5126,
            "count" : 390,
            "type" : "VEC3"
        },
        {
            "bufferView" : 2,
            "componentType" : 5126,
            "count" : 390,
            "type" : "VEC2"
        },
        {
            "bufferView" : 3,
            "componentType" : 5126,
            "count" : 390,
            "type" : "VEC4"
        },
        {
            "bufferView" : 4,
            "componentType" : 5123,
            "count" : 390,
            "type" : "SCALAR"
        }
    ],
    "bufferViews" : [
        {
            "buffer" : 0,
            "byteLength" : 4680,
            "byteOffset" : 0
        },
        {
            "buffer" : 0,
            "byteLength" : 4680,
            "byteOffset" : 4680
        },
        {
            "buffer" : 0,
            "byteLength" : 3120,
            "byteOffset" : 9360
        },
        {
            "buffer" : 0,
            "byteLength" : 6240,
            "byteOffset" : 12480
        },
        {
            "buffer" : 0,
            "byteLength" : 780,
            "byteOffset" : 18720
        }
    ],
    "buffers" : [
        {
            "byteLength" : 19500,
            "uri" : "bisect-3-3-3.bin"
        }
    ]
}
