{
    "asset" : {
        "generator" : "Khronos glTF Blender I/O v1.1.46",
        "version" : "2.0"
    },
    "scene" : 0,
    "scenes" : [
        {
            "name" : "Scene",
            "nodes" : [
                0
            ]
        }
    ],
    "nodes" : [
        {
            "mesh" : 0,
            "name" : "bisect-7-4-3"
        }
    ],
    "materials" : [
        {
            "doubleSided" : true,
            "emissiveFactor" : [
                0,
                0,
                0
            ],
            "name" : "Material.003",
            "pbrMetallicRoughness" : {
                "metallicFactor" : 0,
                "roughnessFactor" : 0.5
            }
        }
    ],
    "meshes" : [
        {
            "name" : "bisect-7-4-3",
            "primitives" : [
                {
                    "attributes" : {
                        "POSITION" : 0,
                        "NORMAL" : 1,
                        "TEXCOORD_0" : 2,
                        "COLOR_0" : 3
                    },
                    "indices" : 4,
                    "material" : 0
                }
            ]
        }
    ],
    "accessors" : [
        {
            "bufferView" : 0,
            "componentType" : 5126,
            "count" : 537,
            "max" : [
                162,
                92.6843490600586,
                -62
            ],
            "min" : [
                142,
                82.34591674804688,
                -82
            ],
            "type" : "VEC3"
        },
        {
            "bufferView" : 1,
            "componentType" : 5126,
            "count" : 537,
            "type" : "VEC3"
        },
        {
            "bufferView" : 2,
            "componentType" : 5126,
            "count" : 537,
            "type" : "VEC2"
        },
        {
            "bufferView" : 3,
            "componentType" : 5126,
            "count" : 537,
            "type" : "VEC4"
        },
        {
            "bufferView" : 4,
            "componentType" : 5123,
            "count" : 537,
            "type" : "SCALAR"
        }
    ],
    "bufferViews" : [
        {
            "buffer" : 0,
            "byteLength" : 6444,
            "byteOffset" : 0
        },
        {
            "buffer" : 0,
            "byteLength" : 6444,
            "byteOffset" : 6444
        },
        {
            "buffer" : 0,
            "byteLength" : 4296,
            "byteOffset" : 12888
        },
        {
            "buffer" : 0,
            "byteLength" : 8592,
            "byteOffset" : 17184
        },
        {
            "buffer" : 0,
            "byteLength" : 1074,
            "byteOffset" : 25776
        }
    ],
    "buffers" : [
        {
            "byteLength" : 26852,
            "uri" : "bisect-7-4-3.bin"
        }
    ]
}
