{
    "asset" : {
        "generator" : "Khronos glTF Blender I/O v1.1.46",
        "version" : "2.0"
    },
    "scene" : 0,
    "scenes" : [
        {
            "name" : "Scene",
            "nodes" : [
                0
            ]
        }
    ],
    "nodes" : [
        {
            "mesh" : 0,
            "name" : "bisect-7-3-11"
        }
    ],
    "materials" : [
        {
            "doubleSided" : true,
            "emissiveFactor" : [
                0,
                0,
                0
            ],
            "name" : "Material.003",
            "pbrMetallicRoughness" : {
                "metallicFactor" : 0,
                "roughnessFactor" : 0.5
            }
        }
    ],
    "meshes" : [
        {
            "name" : "bisect-7-3-11",
            "primitives" : [
                {
                    "attributes" : {
                        "POSITION" : 0,
                        "NORMAL" : 1,
                        "TEXCOORD_0" : 2,
                        "COLOR_0" : 3
                    },
                    "indices" : 4,
                    "material" : 0
                }
            ]
        }
    ],
    "accessors" : [
        {
            "bufferView" : 0,
            "componentType" : 5126,
            "count" : 144,
            "max" : [
                151.3301239013672,
                82,
                -222
            ],
            "min" : [
                142,
                77.9432144165039,
                -227.37965393066406
            ],
            "type" : "VEC3"
        },
        {
            "bufferView" : 1,
            "componentType" : 5126,
            "count" : 144,
            "type" : "VEC3"
        },
        {
            "bufferView" : 2,
            "componentType" : 5126,
            "count" : 144,
            "type" : "VEC2"
        },
        {
            "bufferView" : 3,
            "componentType" : 5126,
            "count" : 144,
            "type" : "VEC4"
        },
        {
            "bufferView" : 4,
            "componentType" : 5123,
            "count" : 144,
            "type" : "SCALAR"
        }
    ],
    "bufferViews" : [
        {
            "buffer" : 0,
            "byteLength" : 1728,
            "byteOffset" : 0
        },
        {
            "buffer" : 0,
            "byteLength" : 1728,
            "byteOffset" : 1728
        },
        {
            "buffer" : 0,
            "byteLength" : 1152,
            "byteOffset" : 3456
        },
        {
            "buffer" : 0,
            "byteLength" : 2304,
            "byteOffset" : 4608
        },
        {
            "buffer" : 0,
            "byteLength" : 288,
            "byteOffset" : 6912
        }
    ],
    "buffers" : [
        {
            "byteLength" : 7200,
            "uri" : "bisect-7-3-11.bin"
        }
    ]
}
