{
    "asset" : {
        "generator" : "Khronos glTF Blender I/O v1.1.46",
        "version" : "2.0"
    },
    "scene" : 0,
    "scenes" : [
        {
            "name" : "Scene",
            "nodes" : [
                0
            ]
        }
    ],
    "nodes" : [
        {
            "mesh" : 0,
            "name" : "bisect-3-4-11"
        }
    ],
    "materials" : [
        {
            "doubleSided" : true,
            "emissiveFactor" : [
                0,
                0,
                0
            ],
            "name" : "Material.003",
            "pbrMetallicRoughness" : {
                "metallicFactor" : 0,
                "roughnessFactor" : 0.5
            }
        }
    ],
    "meshes" : [
        {
            "name" : "bisect-3-4-11",
            "primitives" : [
                {
                    "attributes" : {
                        "POSITION" : 0,
                        "NORMAL" : 1,
                        "TEXCOORD_0" : 2,
                        "COLOR_0" : 3,
                        "JOINTS_0" : 4,
                        "WEIGHTS_0" : 5
                    },
                    "indices" : 6,
                    "material" : 0
                }
            ]
        }
    ],
    "accessors" : [
        {
            "bufferView" : 0,
            "componentType" : 5126,
            "count" : 1377,
            "max" : [
                82,
                102,
                -222
            ],
            "min" : [
                62,
                82,
                -242
            ],
            "type" : "VEC3"
        },
        {
            "bufferView" : 1,
            "componentType" : 5126,
            "count" : 1377,
            "type" : "VEC3"
        },
        {
            "bufferView" : 2,
            "componentType" : 5126,
            "count" : 1377,
            "type" : "VEC2"
        },
        {
            "bufferView" : 3,
            "componentType" : 5126,
            "count" : 1377,
            "type" : "VEC4"
        },
        {
            "bufferView" : 4,
            "componentType" : 5123,
            "count" : 1377,
            "type" : "VEC4"
        },
        {
            "bufferView" : 5,
            "componentType" : 5126,
            "count" : 1377,
            "type" : "VEC4"
        },
        {
            "bufferView" : 6,
            "componentType" : 5123,
            "count" : 1377,
            "type" : "SCALAR"
        }
    ],
    "bufferViews" : [
        {
            "buffer" : 0,
            "byteLength" : 16524,
            "byteOffset" : 0
        },
        {
            "buffer" : 0,
            "byteLength" : 16524,
            "byteOffset" : 16524
        },
        {
            "buffer" : 0,
            "byteLength" : 11016,
            "byteOffset" : 33048
        },
        {
            "buffer" : 0,
            "byteLength" : 22032,
            "byteOffset" : 44064
        },
        {
            "buffer" : 0,
            "byteLength" : 11016,
            "byteOffset" : 66096
        },
        {
            "buffer" : 0,
            "byteLength" : 22032,
            "byteOffset" : 77112
        },
        {
            "buffer" : 0,
            "byteLength" : 2754,
            "byteOffset" : 99144
        }
    ],
    "buffers" : [
        {
            "byteLength" : 101900,
            "uri" : "bisect-3-4-11.bin"
        }
    ]
}
