{
    "asset" : {
        "generator" : "Khronos glTF Blender I/O v1.1.46",
        "version" : "2.0"
    },
    "scene" : 0,
    "scenes" : [
        {
            "name" : "Scene",
            "nodes" : [
                0
            ]
        }
    ],
    "nodes" : [
        {
            "mesh" : 0,
            "name" : "bisect-5-5-12"
        }
    ],
    "materials" : [
        {
            "doubleSided" : true,
            "emissiveFactor" : [
                0,
                0,
                0
            ],
            "name" : "Material.003",
            "pbrMetallicRoughness" : {
                "metallicFactor" : 0,
                "roughnessFactor" : 0.5
            }
        }
    ],
    "meshes" : [
        {
            "name" : "bisect-5-5-12",
            "primitives" : [
                {
                    "attributes" : {
                        "POSITION" : 0,
                        "NORMAL" : 1,
                        "TEXCOORD_0" : 2,
                        "COLOR_0" : 3,
                        "JOINTS_0" : 4,
                        "WEIGHTS_0" : 5
                    },
                    "indices" : 6,
                    "material" : 0
                }
            ]
        }
    ],
    "accessors" : [
        {
            "bufferView" : 0,
            "componentType" : 5126,
            "count" : 993,
            "max" : [
                122,
                122,
                -242
            ],
            "min" : [
                102,
                102,
                -257.1862487792969
            ],
            "type" : "VEC3"
        },
        {
            "bufferView" : 1,
            "componentType" : 5126,
            "count" : 993,
            "type" : "VEC3"
        },
        {
            "bufferView" : 2,
            "componentType" : 5126,
            "count" : 993,
            "type" : "VEC2"
        },
        {
            "bufferView" : 3,
            "componentType" : 5126,
            "count" : 993,
            "type" : "VEC4"
        },
        {
            "bufferView" : 4,
            "componentType" : 5123,
            "count" : 993,
            "type" : "VEC4"
        },
        {
            "bufferView" : 5,
            "componentType" : 5126,
            "count" : 993,
            "type" : "VEC4"
        },
        {
            "bufferView" : 6,
            "componentType" : 5123,
            "count" : 993,
            "type" : "SCALAR"
        }
    ],
    "bufferViews" : [
        {
            "buffer" : 0,
            "byteLength" : 11916,
            "byteOffset" : 0
        },
        {
            "buffer" : 0,
            "byteLength" : 11916,
            "byteOffset" : 11916
        },
        {
            "buffer" : 0,
            "byteLength" : 7944,
            "byteOffset" : 23832
        },
        {
            "buffer" : 0,
            "byteLength" : 15888,
            "byteOffset" : 31776
        },
        {
            "buffer" : 0,
            "byteLength" : 7944,
            "byteOffset" : 47664
        },
        {
            "buffer" : 0,
            "byteLength" : 15888,
            "byteOffset" : 55608
        },
        {
            "buffer" : 0,
            "byteLength" : 1986,
            "byteOffset" : 71496
        }
    ],
    "buffers" : [
        {
            "byteLength" : 73484,
            "uri" : "bisect-5-5-12.bin"
        }
    ]
}
