{
    "asset" : {
        "generator" : "Khronos glTF Blender I/O v1.1.46",
        "version" : "2.0"
    },
    "scene" : 0,
    "scenes" : [
        {
            "name" : "Scene",
            "nodes" : [
                0
            ]
        }
    ],
    "nodes" : [
        {
            "mesh" : 0,
            "name" : "bisect-7-5-11"
        }
    ],
    "materials" : [
        {
            "doubleSided" : true,
            "emissiveFactor" : [
                0,
                0,
                0
            ],
            "name" : "Material.003",
            "pbrMetallicRoughness" : {
                "metallicFactor" : 0,
                "roughnessFactor" : 0.5
            }
        }
    ],
    "meshes" : [
        {
            "name" : "bisect-7-5-11",
            "primitives" : [
                {
                    "attributes" : {
                        "POSITION" : 0,
                        "NORMAL" : 1,
                        "TEXCOORD_0" : 2,
                        "COLOR_0" : 3,
                        "JOINTS_0" : 4,
                        "WEIGHTS_0" : 5
                    },
                    "indices" : 6,
                    "material" : 0
                }
            ]
        }
    ],
    "accessors" : [
        {
            "bufferView" : 0,
            "componentType" : 5126,
            "count" : 573,
            "max" : [
                162,
                121.38056182861328,
                -222
            ],
            "min" : [
                155.07437133789062,
                102,
                -242
            ],
            "type" : "VEC3"
        },
        {
            "bufferView" : 1,
            "componentType" : 5126,
            "count" : 573,
            "type" : "VEC3"
        },
        {
            "bufferView" : 2,
            "componentType" : 5126,
            "count" : 573,
            "type" : "VEC2"
        },
        {
            "bufferView" : 3,
            "componentType" : 5126,
            "count" : 573,
            "type" : "VEC4"
        },
        {
            "bufferView" : 4,
            "componentType" : 5123,
            "count" : 573,
            "type" : "VEC4"
        },
        {
            "bufferView" : 5,
            "componentType" : 5126,
            "count" : 573,
            "type" : "VEC4"
        },
        {
            "bufferView" : 6,
            "componentType" : 5123,
            "count" : 573,
            "type" : "SCALAR"
        }
    ],
    "bufferViews" : [
        {
            "buffer" : 0,
            "byteLength" : 6876,
            "byteOffset" : 0
        },
        {
            "buffer" : 0,
            "byteLength" : 6876,
            "byteOffset" : 6876
        },
        {
            "buffer" : 0,
            "byteLength" : 4584,
            "byteOffset" : 13752
        },
        {
            "buffer" : 0,
            "byteLength" : 9168,
            "byteOffset" : 18336
        },
        {
            "buffer" : 0,
            "byteLength" : 4584,
            "byteOffset" : 27504
        },
        {
            "buffer" : 0,
            "byteLength" : 9168,
            "byteOffset" : 32088
        },
        {
            "buffer" : 0,
            "byteLength" : 1146,
            "byteOffset" : 41256
        }
    ],
    "buffers" : [
        {
            "byteLength" : 42404,
            "uri" : "bisect-7-5-11.bin"
        }
    ]
}
