{
    "asset" : {
        "generator" : "Khronos glTF Blender I/O v1.1.46",
        "version" : "2.0"
    },
    "scene" : 0,
    "scenes" : [
        {
            "name" : "Scene",
            "nodes" : [
                0
            ]
        }
    ],
    "nodes" : [
        {
            "mesh" : 0,
            "name" : "bisect-2-4-5"
        }
    ],
    "materials" : [
        {
            "doubleSided" : true,
            "emissiveFactor" : [
                0,
                0,
                0
            ],
            "name" : "Material.003",
            "pbrMetallicRoughness" : {
                "metallicFactor" : 0,
                "roughnessFactor" : 0.5
            }
        }
    ],
    "meshes" : [
        {
            "name" : "bisect-2-4-5",
            "primitives" : [
                {
                    "attributes" : {
                        "POSITION" : 0,
                        "NORMAL" : 1,
                        "TEXCOORD_0" : 2,
                        "COLOR_0" : 3,
                        "JOINTS_0" : 4,
                        "WEIGHTS_0" : 5
                    },
                    "indices" : 6,
                    "material" : 0
                }
            ]
        }
    ],
    "accessors" : [
        {
            "bufferView" : 0,
            "componentType" : 5126,
            "count" : 2058,
            "max" : [
                62,
                102,
                -102
            ],
            "min" : [
                42,
                86.31160736083984,
                -117.86634063720703
            ],
            "type" : "VEC3"
        },
        {
            "bufferView" : 1,
            "componentType" : 5126,
            "count" : 2058,
            "type" : "VEC3"
        },
        {
            "bufferView" : 2,
            "componentType" : 5126,
            "count" : 2058,
            "type" : "VEC2"
        },
        {
            "bufferView" : 3,
            "componentType" : 5126,
            "count" : 2058,
            "type" : "VEC4"
        },
        {
            "bufferView" : 4,
            "componentType" : 5123,
            "count" : 2058,
            "type" : "VEC4"
        },
        {
            "bufferView" : 5,
            "componentType" : 5126,
            "count" : 2058,
            "type" : "VEC4"
        },
        {
            "bufferView" : 6,
            "componentType" : 5123,
            "count" : 2058,
            "type" : "SCALAR"
        }
    ],
    "bufferViews" : [
        {
            "buffer" : 0,
            "byteLength" : 24696,
            "byteOffset" : 0
        },
        {
            "buffer" : 0,
            "byteLength" : 24696,
            "byteOffset" : 24696
        },
        {
            "buffer" : 0,
            "byteLength" : 16464,
            "byteOffset" : 49392
        },
        {
            "buffer" : 0,
            "byteLength" : 32928,
            "byteOffset" : 65856
        },
        {
            "buffer" : 0,
            "byteLength" : 16464,
            "byteOffset" : 98784
        },
        {
            "buffer" : 0,
            "byteLength" : 32928,
            "byteOffset" : 115248
        },
        {
            "buffer" : 0,
            "byteLength" : 4116,
            "byteOffset" : 148176
        }
    ],
    "buffers" : [
        {
            "byteLength" : 152292,
            "uri" : "bisect-2-4-5.bin"
        }
    ]
}
