{
    "asset" : {
        "generator" : "Khronos glTF Blender I/O v1.1.46",
        "version" : "2.0"
    },
    "scene" : 0,
    "scenes" : [
        {
            "name" : "Scene",
            "nodes" : [
                0
            ]
        }
    ],
    "nodes" : [
        {
            "mesh" : 0,
            "name" : "bisect-2-6-6"
        }
    ],
    "materials" : [
        {
            "doubleSided" : true,
            "emissiveFactor" : [
                0,
                0,
                0
            ],
            "name" : "Material.003",
            "pbrMetallicRoughness" : {
                "metallicFactor" : 0,
                "roughnessFactor" : 0.5
            }
        }
    ],
    "meshes" : [
        {
            "name" : "bisect-2-6-6",
            "primitives" : [
                {
                    "attributes" : {
                        "POSITION" : 0,
                        "NORMAL" : 1,
                        "TEXCOORD_0" : 2,
                        "COLOR_0" : 3,
                        "JOINTS_0" : 4,
                        "WEIGHTS_0" : 5
                    },
                    "indices" : 6,
                    "material" : 0
                }
            ]
        }
    ],
    "accessors" : [
        {
            "bufferView" : 0,
            "componentType" : 5126,
            "count" : 2322,
            "max" : [
                61.87400817871094,
                126.42717742919922,
                -121.99718475341797
            ],
            "min" : [
                42,
                122,
                -142
            ],
            "type" : "VEC3"
        },
        {
            "bufferView" : 1,
            "componentType" : 5126,
            "count" : 2322,
            "type" : "VEC3"
        },
        {
            "bufferView" : 2,
            "componentType" : 5126,
            "count" : 2322,
            "type" : "VEC2"
        },
        {
            "bufferView" : 3,
            "componentType" : 5126,
            "count" : 2322,
            "type" : "VEC4"
        },
        {
            "bufferView" : 4,
            "componentType" : 5123,
            "count" : 2322,
            "type" : "VEC4"
        },
        {
            "bufferView" : 5,
            "componentType" : 5126,
            "count" : 2322,
            "type" : "VEC4"
        },
        {
            "bufferView" : 6,
            "componentType" : 5123,
            "count" : 2322,
            "type" : "SCALAR"
        }
    ],
    "bufferViews" : [
        {
            "buffer" : 0,
            "byteLength" : 27864,
            "byteOffset" : 0
        },
        {
            "buffer" : 0,
            "byteLength" : 27864,
            "byteOffset" : 27864
        },
        {
            "buffer" : 0,
            "byteLength" : 18576,
            "byteOffset" : 55728
        },
        {
            "buffer" : 0,
            "byteLength" : 37152,
            "byteOffset" : 74304
        },
        {
            "buffer" : 0,
            "byteLength" : 18576,
            "byteOffset" : 111456
        },
        {
            "buffer" : 0,
            "byteLength" : 37152,
            "byteOffset" : 130032
        },
        {
            "buffer" : 0,
            "byteLength" : 4644,
            "byteOffset" : 167184
        }
    ],
    "buffers" : [
        {
            "byteLength" : 171828,
            "uri" : "bisect-2-6-6.bin"
        }
    ]
}
