{
    "asset" : {
        "generator" : "Khronos glTF Blender I/O v1.1.46",
        "version" : "2.0"
    },
    "scene" : 0,
    "scenes" : [
        {
            "name" : "Scene",
            "nodes" : [
                0
            ]
        }
    ],
    "nodes" : [
        {
            "mesh" : 0,
            "name" : "bisect-0-6-6"
        }
    ],
    "materials" : [
        {
            "doubleSided" : true,
            "emissiveFactor" : [
                0,
                0,
                0
            ],
            "name" : "Material.003",
            "pbrMetallicRoughness" : {
                "metallicFactor" : 0,
                "roughnessFactor" : 0.5
            }
        }
    ],
    "meshes" : [
        {
            "name" : "bisect-0-6-6",
            "primitives" : [
                {
                    "attributes" : {
                        "POSITION" : 0,
                        "NORMAL" : 1,
                        "TEXCOORD_0" : 2,
                        "COLOR_0" : 3,
                        "JOINTS_0" : 4,
                        "WEIGHTS_0" : 5
                    },
                    "indices" : 6,
                    "material" : 0
                }
            ]
        }
    ],
    "accessors" : [
        {
            "bufferView" : 0,
            "componentType" : 5126,
            "count" : 2742,
            "max" : [
                22,
                140.18113708496094,
                -122
            ],
            "min" : [
                11.27182674407959,
                122,
                -142
            ],
            "type" : "VEC3"
        },
        {
            "bufferView" : 1,
            "componentType" : 5126,
            "count" : 2742,
            "type" : "VEC3"
        },
        {
            "bufferView" : 2,
            "componentType" : 5126,
            "count" : 2742,
            "type" : "VEC2"
        },
        {
            "bufferView" : 3,
            "componentType" : 5126,
            "count" : 2742,
            "type" : "VEC4"
        },
        {
            "bufferView" : 4,
            "componentType" : 5123,
            "count" : 2742,
            "type" : "VEC4"
        },
        {
            "bufferView" : 5,
            "componentType" : 5126,
            "count" : 2742,
            "type" : "VEC4"
        },
        {
            "bufferView" : 6,
            "componentType" : 5123,
            "count" : 2742,
            "type" : "SCALAR"
        }
    ],
    "bufferViews" : [
        {
            "buffer" : 0,
            "byteLength" : 32904,
            "byteOffset" : 0
        },
        {
            "buffer" : 0,
            "byteLength" : 32904,
            "byteOffset" : 32904
        },
        {
            "buffer" : 0,
            "byteLength" : 21936,
            "byteOffset" : 65808
        },
        {
            "buffer" : 0,
            "byteLength" : 43872,
            "byteOffset" : 87744
        },
        {
            "buffer" : 0,
            "byteLength" : 21936,
            "byteOffset" : 131616
        },
        {
            "buffer" : 0,
            "byteLength" : 43872,
            "byteOffset" : 153552
        },
        {
            "buffer" : 0,
            "byteLength" : 5484,
            "byteOffset" : 197424
        }
    ],
    "buffers" : [
        {
            "byteLength" : 202908,
            "uri" : "bisect-0-6-6.bin"
        }
    ]
}
