{
    "asset" : {
        "generator" : "Khronos glTF Blender I/O v1.1.46",
        "version" : "2.0"
    },
    "scene" : 0,
    "scenes" : [
        {
            "name" : "Scene",
            "nodes" : [
                0
            ]
        }
    ],
    "nodes" : [
        {
            "mesh" : 0,
            "name" : "bisect-2-6-7"
        }
    ],
    "materials" : [
        {
            "doubleSided" : true,
            "emissiveFactor" : [
                0,
                0,
                0
            ],
            "name" : "Material.003",
            "pbrMetallicRoughness" : {
                "metallicFactor" : 0,
                "roughnessFactor" : 0.5
            }
        }
    ],
    "meshes" : [
        {
            "name" : "bisect-2-6-7",
            "primitives" : [
                {
                    "attributes" : {
                        "POSITION" : 0,
                        "NORMAL" : 1,
                        "TEXCOORD_0" : 2,
                        "COLOR_0" : 3,
                        "JOINTS_0" : 4,
                        "WEIGHTS_0" : 5
                    },
                    "indices" : 6,
                    "material" : 0
                }
            ]
        }
    ],
    "accessors" : [
        {
            "bufferView" : 0,
            "componentType" : 5126,
            "count" : 288,
            "max" : [
                60.06342315673828,
                122.75505828857422,
                -142
            ],
            "min" : [
                42,
                122,
                -162
            ],
            "type" : "VEC3"
        },
        {
            "bufferView" : 1,
            "componentType" : 5126,
            "count" : 288,
            "type" : "VEC3"
        },
        {
            "bufferView" : 2,
            "componentType" : 5126,
            "count" : 288,
            "type" : "VEC2"
        },
        {
            "bufferView" : 3,
            "componentType" : 5126,
            "count" : 288,
            "type" : "VEC4"
        },
        {
            "bufferView" : 4,
            "componentType" : 5123,
            "count" : 288,
            "type" : "VEC4"
        },
        {
            "bufferView" : 5,
            "componentType" : 5126,
            "count" : 288,
            "type" : "VEC4"
        },
        {
            "bufferView" : 6,
            "componentType" : 5123,
            "count" : 288,
            "type" : "SCALAR"
        }
    ],
    "bufferViews" : [
        {
            "buffer" : 0,
            "byteLength" : 3456,
            "byteOffset" : 0
        },
        {
            "buffer" : 0,
            "byteLength" : 3456,
            "byteOffset" : 3456
        },
        {
            "buffer" : 0,
            "byteLength" : 2304,
            "byteOffset" : 6912
        },
        {
            "buffer" : 0,
            "byteLength" : 4608,
            "byteOffset" : 9216
        },
        {
            "buffer" : 0,
            "byteLength" : 2304,
            "byteOffset" : 13824
        },
        {
            "buffer" : 0,
            "byteLength" : 4608,
            "byteOffset" : 16128
        },
        {
            "buffer" : 0,
            "byteLength" : 576,
            "byteOffset" : 20736
        }
    ],
    "buffers" : [
        {
            "byteLength" : 21312,
            "uri" : "bisect-2-6-7.bin"
        }
    ]
}
