{
    "asset" : {
        "generator" : "Khronos glTF Blender I/O v1.1.46",
        "version" : "2.0"
    },
    "scene" : 0,
    "scenes" : [
        {
            "name" : "Scene",
            "nodes" : [
                0
            ]
        }
    ],
    "nodes" : [
        {
            "mesh" : 0,
            "name" : "bisect-8-0-2"
        }
    ],
    "materials" : [
        {
            "doubleSided" : true,
            "emissiveFactor" : [
                0,
                0,
                0
            ],
            "name" : "Material.003",
            "pbrMetallicRoughness" : {
                "metallicFactor" : 0,
                "roughnessFactor" : 0.5
            }
        }
    ],
    "meshes" : [
        {
            "name" : "bisect-8-0-2",
            "primitives" : [
                {
                    "attributes" : {
                        "POSITION" : 0,
                        "NORMAL" : 1,
                        "TEXCOORD_0" : 2,
                        "COLOR_0" : 3,
                        "JOINTS_0" : 4,
                        "WEIGHTS_0" : 5
                    },
                    "indices" : 6,
                    "material" : 0
                }
            ]
        }
    ],
    "accessors" : [
        {
            "bufferView" : 0,
            "componentType" : 5126,
            "count" : 381,
            "max" : [
                182,
                22,
                -42
            ],
            "min" : [
                162,
                2,
                -62
            ],
            "type" : "VEC3"
        },
        {
            "bufferView" : 1,
            "componentType" : 5126,
            "count" : 381,
            "type" : "VEC3"
        },
        {
            "bufferView" : 2,
            "componentType" : 5126,
            "count" : 381,
            "type" : "VEC2"
        },
        {
            "bufferView" : 3,
            "componentType" : 5126,
            "count" : 381,
            "type" : "VEC4"
        },
        {
            "bufferView" : 4,
            "componentType" : 5123,
            "count" : 381,
            "type" : "VEC4"
        },
        {
            "bufferView" : 5,
            "componentType" : 5126,
            "count" : 381,
            "type" : "VEC4"
        },
        {
            "bufferView" : 6,
            "componentType" : 5123,
            "count" : 381,
            "type" : "SCALAR"
        }
    ],
    "bufferViews" : [
        {
            "buffer" : 0,
            "byteLength" : 4572,
            "byteOffset" : 0
        },
        {
            "buffer" : 0,
            "byteLength" : 4572,
            "byteOffset" : 4572
        },
        {
            "buffer" : 0,
            "byteLength" : 3048,
            "byteOffset" : 9144
        },
        {
            "buffer" : 0,
            "byteLength" : 6096,
            "byteOffset" : 12192
        },
        {
            "buffer" : 0,
            "byteLength" : 3048,
            "byteOffset" : 18288
        },
        {
            "buffer" : 0,
            "byteLength" : 6096,
            "byteOffset" : 21336
        },
        {
            "buffer" : 0,
            "byteLength" : 762,
            "byteOffset" : 27432
        }
    ],
    "buffers" : [
        {
            "byteLength" : 28196,
            "uri" : "bisect-8-0-2.bin"
        }
    ]
}
