{
    "asset" : {
        "generator" : "Khronos glTF Blender I/O v1.1.46",
        "version" : "2.0"
    },
    "scene" : 0,
    "scenes" : [
        {
            "name" : "Scene",
            "nodes" : [
                0
            ]
        }
    ],
    "nodes" : [
        {
            "mesh" : 0,
            "name" : "bisect-8-3-5"
        }
    ],
    "materials" : [
        {
            "doubleSided" : true,
            "emissiveFactor" : [
                0,
                0,
                0
            ],
            "name" : "Material.003",
            "pbrMetallicRoughness" : {
                "metallicFactor" : 0,
                "roughnessFactor" : 0.5
            }
        }
    ],
    "meshes" : [
        {
            "name" : "bisect-8-3-5",
            "primitives" : [
                {
                    "attributes" : {
                        "POSITION" : 0,
                        "NORMAL" : 1,
                        "TEXCOORD_0" : 2,
                        "COLOR_0" : 3,
                        "JOINTS_0" : 4,
                        "WEIGHTS_0" : 5
                    },
                    "indices" : 6,
                    "material" : 0
                }
            ]
        }
    ],
    "accessors" : [
        {
            "bufferView" : 0,
            "componentType" : 5126,
            "count" : 645,
            "max" : [
                170.94911193847656,
                79.52967071533203,
                -102
            ],
            "min" : [
                162,
                62,
                -122
            ],
            "type" : "VEC3"
        },
        {
            "bufferView" : 1,
            "componentType" : 5126,
            "count" : 645,
            "type" : "VEC3"
        },
        {
            "bufferView" : 2,
            "componentType" : 5126,
            "count" : 645,
            "type" : "VEC2"
        },
        {
            "bufferView" : 3,
            "componentType" : 5126,
            "count" : 645,
            "type" : "VEC4"
        },
        {
            "bufferView" : 4,
            "componentType" : 5123,
            "count" : 645,
            "type" : "VEC4"
        },
        {
            "bufferView" : 5,
            "componentType" : 5126,
            "count" : 645,
            "type" : "VEC4"
        },
        {
            "bufferView" : 6,
            "componentType" : 5123,
            "count" : 645,
            "type" : "SCALAR"
        }
    ],
    "bufferViews" : [
        {
            "buffer" : 0,
            "byteLength" : 7740,
            "byteOffset" : 0
        },
        {
            "buffer" : 0,
            "byteLength" : 7740,
            "byteOffset" : 7740
        },
        {
            "buffer" : 0,
            "byteLength" : 5160,
            "byteOffset" : 15480
        },
        {
            "buffer" : 0,
            "byteLength" : 10320,
            "byteOffset" : 20640
        },
        {
            "buffer" : 0,
            "byteLength" : 5160,
            "byteOffset" : 30960
        },
        {
            "buffer" : 0,
            "byteLength" : 10320,
            "byteOffset" : 36120
        },
        {
            "buffer" : 0,
            "byteLength" : 1290,
            "byteOffset" : 46440
        }
    ],
    "buffers" : [
        {
            "byteLength" : 47732,
            "uri" : "bisect-8-3-5.bin"
        }
    ]
}
