{
    "asset" : {
        "generator" : "Khronos glTF Blender I/O v1.1.46",
        "version" : "2.0"
    },
    "scene" : 0,
    "scenes" : [
        {
            "name" : "Scene",
            "nodes" : [
                0
            ]
        }
    ],
    "nodes" : [
        {
            "mesh" : 0,
            "name" : "bisect-3-4-10"
        }
    ],
    "materials" : [
        {
            "doubleSided" : true,
            "emissiveFactor" : [
                0,
                0,
                0
            ],
            "name" : "Material.003",
            "pbrMetallicRoughness" : {
                "metallicFactor" : 0,
                "roughnessFactor" : 0.5
            }
        }
    ],
    "meshes" : [
        {
            "name" : "bisect-3-4-10",
            "primitives" : [
                {
                    "attributes" : {
                        "POSITION" : 0,
                        "NORMAL" : 1,
                        "TEXCOORD_0" : 2,
                        "COLOR_0" : 3,
                        "JOINTS_0" : 4,
                        "WEIGHTS_0" : 5
                    },
                    "indices" : 6,
                    "material" : 0
                }
            ]
        }
    ],
    "accessors" : [
        {
            "bufferView" : 0,
            "componentType" : 5126,
            "count" : 1659,
            "max" : [
                82,
                102,
                -202
            ],
            "min" : [
                62,
                82,
                -222
            ],
            "type" : "VEC3"
        },
        {
            "bufferView" : 1,
            "componentType" : 5126,
            "count" : 1659,
            "type" : "VEC3"
        },
        {
            "bufferView" : 2,
            "componentType" : 5126,
            "count" : 1659,
            "type" : "VEC2"
        },
        {
            "bufferView" : 3,
            "componentType" : 5126,
            "count" : 1659,
            "type" : "VEC4"
        },
        {
            "bufferView" : 4,
            "componentType" : 5123,
            "count" : 1659,
            "type" : "VEC4"
        },
        {
            "bufferView" : 5,
            "componentType" : 5126,
            "count" : 1659,
            "type" : "VEC4"
        },
        {
            "bufferView" : 6,
            "componentType" : 5123,
            "count" : 1659,
            "type" : "SCALAR"
        }
    ],
    "bufferViews" : [
        {
            "buffer" : 0,
            "byteLength" : 19908,
            "byteOffset" : 0
        },
        {
            "buffer" : 0,
            "byteLength" : 19908,
            "byteOffset" : 19908
        },
        {
            "buffer" : 0,
            "byteLength" : 13272,
            "byteOffset" : 39816
        },
        {
            "buffer" : 0,
            "byteLength" : 26544,
            "byteOffset" : 53088
        },
        {
            "buffer" : 0,
            "byteLength" : 13272,
            "byteOffset" : 79632
        },
        {
            "buffer" : 0,
            "byteLength" : 26544,
            "byteOffset" : 92904
        },
        {
            "buffer" : 0,
            "byteLength" : 3318,
            "byteOffset" : 119448
        }
    ],
    "buffers" : [
        {
            "byteLength" : 122768,
            "uri" : "bisect-3-4-10.bin"
        }
    ]
}
