{
    "asset" : {
        "generator" : "Khronos glTF Blender I/O v1.1.46",
        "version" : "2.0"
    },
    "scene" : 0,
    "scenes" : [
        {
            "name" : "Scene",
            "nodes" : [
                0
            ]
        }
    ],
    "nodes" : [
        {
            "mesh" : 0,
            "name" : "bisect-6-3-4"
        }
    ],
    "materials" : [
        {
            "doubleSided" : true,
            "emissiveFactor" : [
                0,
                0,
                0
            ],
            "name" : "Material.003",
            "pbrMetallicRoughness" : {
                "metallicFactor" : 0,
                "roughnessFactor" : 0.5
            }
        }
    ],
    "meshes" : [
        {
            "name" : "bisect-6-3-4",
            "primitives" : [
                {
                    "attributes" : {
                        "POSITION" : 0,
                        "NORMAL" : 1,
                        "TEXCOORD_0" : 2,
                        "COLOR_0" : 3,
                        "JOINTS_0" : 4,
                        "WEIGHTS_0" : 5
                    },
                    "indices" : 6,
                    "material" : 0
                }
            ]
        }
    ],
    "accessors" : [
        {
            "bufferView" : 0,
            "componentType" : 5126,
            "count" : 402,
            "max" : [
                139.479736328125,
                82,
                -82
            ],
            "min" : [
                131.3226776123047,
                62,
                -102
            ],
            "type" : "VEC3"
        },
        {
            "bufferView" : 1,
            "componentType" : 5126,
            "count" : 402,
            "type" : "VEC3"
        },
        {
            "bufferView" : 2,
            "componentType" : 5126,
            "count" : 402,
            "type" : "VEC2"
        },
        {
            "bufferView" : 3,
            "componentType" : 5126,
            "count" : 402,
            "type" : "VEC4"
        },
        {
            "bufferView" : 4,
            "componentType" : 5123,
            "count" : 402,
            "type" : "VEC4"
        },
        {
            "bufferView" : 5,
            "componentType" : 5126,
            "count" : 402,
            "type" : "VEC4"
        },
        {
            "bufferView" : 6,
            "componentType" : 5123,
            "count" : 402,
            "type" : "SCALAR"
        }
    ],
    "bufferViews" : [
        {
            "buffer" : 0,
            "byteLength" : 4824,
            "byteOffset" : 0
        },
        {
            "buffer" : 0,
            "byteLength" : 4824,
            "byteOffset" : 4824
        },
        {
            "buffer" : 0,
            "byteLength" : 3216,
            "byteOffset" : 9648
        },
        {
            "buffer" : 0,
            "byteLength" : 6432,
            "byteOffset" : 12864
        },
        {
            "buffer" : 0,
            "byteLength" : 3216,
            "byteOffset" : 19296
        },
        {
            "buffer" : 0,
            "byteLength" : 6432,
            "byteOffset" : 22512
        },
        {
            "buffer" : 0,
            "byteLength" : 804,
            "byteOffset" : 28944
        }
    ],
    "buffers" : [
        {
            "byteLength" : 29748,
            "uri" : "bisect-6-3-4.bin"
        }
    ]
}
