{
    "asset" : {
        "generator" : "Khronos glTF Blender I/O v1.1.46",
        "version" : "2.0"
    },
    "scene" : 0,
    "scenes" : [
        {
            "name" : "Scene",
            "nodes" : [
                0
            ]
        }
    ],
    "nodes" : [
        {
            "mesh" : 0,
            "name" : "bisect-6-2-3"
        }
    ],
    "materials" : [
        {
            "doubleSided" : true,
            "emissiveFactor" : [
                0,
                0,
                0
            ],
            "name" : "Material.003",
            "pbrMetallicRoughness" : {
                "metallicFactor" : 0,
                "roughnessFactor" : 0.5
            }
        }
    ],
    "meshes" : [
        {
            "name" : "bisect-6-2-3",
            "primitives" : [
                {
                    "attributes" : {
                        "POSITION" : 0,
                        "NORMAL" : 1,
                        "TEXCOORD_0" : 2,
                        "COLOR_0" : 3,
                        "JOINTS_0" : 4,
                        "WEIGHTS_0" : 5
                    },
                    "indices" : 6,
                    "material" : 0
                }
            ]
        }
    ],
    "accessors" : [
        {
            "bufferView" : 0,
            "componentType" : 5126,
            "count" : 477,
            "max" : [
                141.47950744628906,
                62,
                -62
            ],
            "min" : [
                122,
                42.997894287109375,
                -82
            ],
            "type" : "VEC3"
        },
        {
            "bufferView" : 1,
            "componentType" : 5126,
            "count" : 477,
            "type" : "VEC3"
        },
        {
            "bufferView" : 2,
            "componentType" : 5126,
            "count" : 477,
            "type" : "VEC2"
        },
        {
            "bufferView" : 3,
            "componentType" : 5126,
            "count" : 477,
            "type" : "VEC4"
        },
        {
            "bufferView" : 4,
            "componentType" : 5123,
            "count" : 477,
            "type" : "VEC4"
        },
        {
            "bufferView" : 5,
            "componentType" : 5126,
            "count" : 477,
            "type" : "VEC4"
        },
        {
            "bufferView" : 6,
            "componentType" : 5123,
            "count" : 477,
            "type" : "SCALAR"
        }
    ],
    "bufferViews" : [
        {
            "buffer" : 0,
            "byteLength" : 5724,
            "byteOffset" : 0
        },
        {
            "buffer" : 0,
            "byteLength" : 5724,
            "byteOffset" : 5724
        },
        {
            "buffer" : 0,
            "byteLength" : 3816,
            "byteOffset" : 11448
        },
        {
            "buffer" : 0,
            "byteLength" : 7632,
            "byteOffset" : 15264
        },
        {
            "buffer" : 0,
            "byteLength" : 3816,
            "byteOffset" : 22896
        },
        {
            "buffer" : 0,
            "byteLength" : 7632,
            "byteOffset" : 26712
        },
        {
            "buffer" : 0,
            "byteLength" : 954,
            "byteOffset" : 34344
        }
    ],
    "buffers" : [
        {
            "byteLength" : 35300,
            "uri" : "bisect-6-2-3.bin"
        }
    ]
}
