{
    "asset" : {
        "generator" : "Khronos glTF Blender I/O v1.1.46",
        "version" : "2.0"
    },
    "scene" : 0,
    "scenes" : [
        {
            "name" : "Scene",
            "nodes" : [
                0
            ]
        }
    ],
    "nodes" : [
        {
            "mesh" : 0,
            "name" : "bisect-3-5-11"
        }
    ],
    "materials" : [
        {
            "doubleSided" : true,
            "emissiveFactor" : [
                0,
                0,
                0
            ],
            "name" : "Material.003",
            "pbrMetallicRoughness" : {
                "metallicFactor" : 0,
                "roughnessFactor" : 0.5
            }
        }
    ],
    "meshes" : [
        {
            "name" : "bisect-3-5-11",
            "primitives" : [
                {
                    "attributes" : {
                        "POSITION" : 0,
                        "NORMAL" : 1,
                        "TEXCOORD_0" : 2,
                        "COLOR_0" : 3,
                        "JOINTS_0" : 4,
                        "WEIGHTS_0" : 5
                    },
                    "indices" : 6,
                    "material" : 0
                }
            ]
        }
    ],
    "accessors" : [
        {
            "bufferView" : 0,
            "componentType" : 5126,
            "count" : 1461,
            "max" : [
                82,
                122,
                -222
            ],
            "min" : [
                62,
                102,
                -242
            ],
            "type" : "VEC3"
        },
        {
            "bufferView" : 1,
            "componentType" : 5126,
            "count" : 1461,
            "type" : "VEC3"
        },
        {
            "bufferView" : 2,
            "componentType" : 5126,
            "count" : 1461,
            "type" : "VEC2"
        },
        {
            "bufferView" : 3,
            "componentType" : 5126,
            "count" : 1461,
            "type" : "VEC4"
        },
        {
            "bufferView" : 4,
            "componentType" : 5123,
            "count" : 1461,
            "type" : "VEC4"
        },
        {
            "bufferView" : 5,
            "componentType" : 5126,
            "count" : 1461,
            "type" : "VEC4"
        },
        {
            "bufferView" : 6,
            "componentType" : 5123,
            "count" : 1461,
            "type" : "SCALAR"
        }
    ],
    "bufferViews" : [
        {
            "buffer" : 0,
            "byteLength" : 17532,
            "byteOffset" : 0
        },
        {
            "buffer" : 0,
            "byteLength" : 17532,
            "byteOffset" : 17532
        },
        {
            "buffer" : 0,
            "byteLength" : 11688,
            "byteOffset" : 35064
        },
        {
            "buffer" : 0,
            "byteLength" : 23376,
            "byteOffset" : 46752
        },
        {
            "buffer" : 0,
            "byteLength" : 11688,
            "byteOffset" : 70128
        },
        {
            "buffer" : 0,
            "byteLength" : 23376,
            "byteOffset" : 81816
        },
        {
            "buffer" : 0,
            "byteLength" : 2922,
            "byteOffset" : 105192
        }
    ],
    "buffers" : [
        {
            "byteLength" : 108116,
            "uri" : "bisect-3-5-11.bin"
        }
    ]
}
