{
    "asset" : {
        "generator" : "Khronos glTF Blender I/O v1.1.46",
        "version" : "2.0"
    },
    "scene" : 0,
    "scenes" : [
        {
            "name" : "Scene",
            "nodes" : [
                0
            ]
        }
    ],
    "nodes" : [
        {
            "mesh" : 0,
            "name" : "bisect-3-4-7"
        }
    ],
    "materials" : [
        {
            "doubleSided" : true,
            "emissiveFactor" : [
                0,
                0,
                0
            ],
            "name" : "Material.003",
            "pbrMetallicRoughness" : {
                "metallicFactor" : 0,
                "roughnessFactor" : 0.5
            }
        }
    ],
    "meshes" : [
        {
            "name" : "bisect-3-4-7",
            "primitives" : [
                {
                    "attributes" : {
                        "POSITION" : 0,
                        "NORMAL" : 1,
                        "TEXCOORD_0" : 2,
                        "COLOR_0" : 3,
                        "JOINTS_0" : 4,
                        "WEIGHTS_0" : 5
                    },
                    "indices" : 6,
                    "material" : 0
                }
            ]
        }
    ],
    "accessors" : [
        {
            "bufferView" : 0,
            "componentType" : 5126,
            "count" : 423,
            "max" : [
                82,
                102,
                -142
            ],
            "min" : [
                66.51002502441406,
                93.54519653320312,
                -162
            ],
            "type" : "VEC3"
        },
        {
            "bufferView" : 1,
            "componentType" : 5126,
            "count" : 423,
            "type" : "VEC3"
        },
        {
            "bufferView" : 2,
            "componentType" : 5126,
            "count" : 423,
            "type" : "VEC2"
        },
        {
            "bufferView" : 3,
            "componentType" : 5126,
            "count" : 423,
            "type" : "VEC4"
        },
        {
            "bufferView" : 4,
            "componentType" : 5123,
            "count" : 423,
            "type" : "VEC4"
        },
        {
            "bufferView" : 5,
            "componentType" : 5126,
            "count" : 423,
            "type" : "VEC4"
        },
        {
            "bufferView" : 6,
            "componentType" : 5123,
            "count" : 423,
            "type" : "SCALAR"
        }
    ],
    "bufferViews" : [
        {
            "buffer" : 0,
            "byteLength" : 5076,
            "byteOffset" : 0
        },
        {
            "buffer" : 0,
            "byteLength" : 5076,
            "byteOffset" : 5076
        },
        {
            "buffer" : 0,
            "byteLength" : 3384,
            "byteOffset" : 10152
        },
        {
            "buffer" : 0,
            "byteLength" : 6768,
            "byteOffset" : 13536
        },
        {
            "buffer" : 0,
            "byteLength" : 3384,
            "byteOffset" : 20304
        },
        {
            "buffer" : 0,
            "byteLength" : 6768,
            "byteOffset" : 23688
        },
        {
            "buffer" : 0,
            "byteLength" : 846,
            "byteOffset" : 30456
        }
    ],
    "buffers" : [
        {
            "byteLength" : 31304,
            "uri" : "bisect-3-4-7.bin"
        }
    ]
}
