{
    "asset" : {
        "generator" : "Khronos glTF Blender I/O v1.1.46",
        "version" : "2.0"
    },
    "scene" : 0,
    "scenes" : [
        {
            "name" : "Scene",
            "nodes" : [
                0
            ]
        }
    ],
    "nodes" : [
        {
            "mesh" : 0,
            "name" : "bisect-1-6-5"
        }
    ],
    "materials" : [
        {
            "doubleSided" : true,
            "emissiveFactor" : [
                0,
                0,
                0
            ],
            "name" : "Material.003",
            "pbrMetallicRoughness" : {
                "metallicFactor" : 0,
                "roughnessFactor" : 0.5
            }
        }
    ],
    "meshes" : [
        {
            "name" : "bisect-1-6-5",
            "primitives" : [
                {
                    "attributes" : {
                        "POSITION" : 0,
                        "NORMAL" : 1,
                        "TEXCOORD_0" : 2,
                        "COLOR_0" : 3,
                        "JOINTS_0" : 4,
                        "WEIGHTS_0" : 5
                    },
                    "indices" : 6,
                    "material" : 0
                }
            ]
        }
    ],
    "accessors" : [
        {
            "bufferView" : 0,
            "componentType" : 5126,
            "count" : 3516,
            "max" : [
                42,
                138.59555053710938,
                -102
            ],
            "min" : [
                22,
                122,
                -122
            ],
            "type" : "VEC3"
        },
        {
            "bufferView" : 1,
            "componentType" : 5126,
            "count" : 3516,
            "type" : "VEC3"
        },
        {
            "bufferView" : 2,
            "componentType" : 5126,
            "count" : 3516,
            "type" : "VEC2"
        },
        {
            "bufferView" : 3,
            "componentType" : 5126,
            "count" : 3516,
            "type" : "VEC4"
        },
        {
            "bufferView" : 4,
            "componentType" : 5123,
            "count" : 3516,
            "type" : "VEC4"
        },
        {
            "bufferView" : 5,
            "componentType" : 5126,
            "count" : 3516,
            "type" : "VEC4"
        },
        {
            "bufferView" : 6,
            "componentType" : 5123,
            "count" : 3516,
            "type" : "SCALAR"
        }
    ],
    "bufferViews" : [
        {
            "buffer" : 0,
            "byteLength" : 42192,
            "byteOffset" : 0
        },
        {
            "buffer" : 0,
            "byteLength" : 42192,
            "byteOffset" : 42192
        },
        {
            "buffer" : 0,
            "byteLength" : 28128,
            "byteOffset" : 84384
        },
        {
            "buffer" : 0,
            "byteLength" : 56256,
            "byteOffset" : 112512
        },
        {
            "buffer" : 0,
            "byteLength" : 28128,
            "byteOffset" : 168768
        },
        {
            "buffer" : 0,
            "byteLength" : 56256,
            "byteOffset" : 196896
        },
        {
            "buffer" : 0,
            "byteLength" : 7032,
            "byteOffset" : 253152
        }
    ],
    "buffers" : [
        {
            "byteLength" : 260184,
            "uri" : "bisect-1-6-5.bin"
        }
    ]
}
