{
    "asset" : {
        "generator" : "Khronos glTF Blender I/O v1.1.46",
        "version" : "2.0"
    },
    "scene" : 0,
    "scenes" : [
        {
            "name" : "Scene",
            "nodes" : [
                0
            ]
        }
    ],
    "nodes" : [
        {
            "mesh" : 0,
            "name" : "bisect-2-5-8"
        }
    ],
    "materials" : [
        {
            "doubleSided" : true,
            "emissiveFactor" : [
                0,
                0,
                0
            ],
            "name" : "Material.003",
            "pbrMetallicRoughness" : {
                "metallicFactor" : 0,
                "roughnessFactor" : 0.5
            }
        }
    ],
    "meshes" : [
        {
            "name" : "bisect-2-5-8",
            "primitives" : [
                {
                    "attributes" : {
                        "POSITION" : 0,
                        "NORMAL" : 1,
                        "TEXCOORD_0" : 2,
                        "COLOR_0" : 3,
                        "JOINTS_0" : 4,
                        "WEIGHTS_0" : 5
                    },
                    "indices" : 6,
                    "material" : 0
                }
            ]
        }
    ],
    "accessors" : [
        {
            "bufferView" : 0,
            "componentType" : 5126,
            "count" : 882,
            "max" : [
                62,
                122,
                -162
            ],
            "min" : [
                42,
                102,
                -182
            ],
            "type" : "VEC3"
        },
        {
            "bufferView" : 1,
            "componentType" : 5126,
            "count" : 882,
            "type" : "VEC3"
        },
        {
            "bufferView" : 2,
            "componentType" : 5126,
            "count" : 882,
            "type" : "VEC2"
        },
        {
            "bufferView" : 3,
            "componentType" : 5126,
            "count" : 882,
            "type" : "VEC4"
        },
        {
            "bufferView" : 4,
            "componentType" : 5123,
            "count" : 882,
            "type" : "VEC4"
        },
        {
            "bufferView" : 5,
            "componentType" : 5126,
            "count" : 882,
            "type" : "VEC4"
        },
        {
            "bufferView" : 6,
            "componentType" : 5123,
            "count" : 882,
            "type" : "SCALAR"
        }
    ],
    "bufferViews" : [
        {
            "buffer" : 0,
            "byteLength" : 10584,
            "byteOffset" : 0
        },
        {
            "buffer" : 0,
            "byteLength" : 10584,
            "byteOffset" : 10584
        },
        {
            "buffer" : 0,
            "byteLength" : 7056,
            "byteOffset" : 21168
        },
        {
            "buffer" : 0,
            "byteLength" : 14112,
            "byteOffset" : 28224
        },
        {
            "buffer" : 0,
            "byteLength" : 7056,
            "byteOffset" : 42336
        },
        {
            "buffer" : 0,
            "byteLength" : 14112,
            "byteOffset" : 49392
        },
        {
            "buffer" : 0,
            "byteLength" : 1764,
            "byteOffset" : 63504
        }
    ],
    "buffers" : [
        {
            "byteLength" : 65268,
            "uri" : "bisect-2-5-8.bin"
        }
    ]
}
