{
    "asset" : {
        "generator" : "Khronos glTF Blender I/O v1.1.46",
        "version" : "2.0"
    },
    "scene" : 0,
    "scenes" : [
        {
            "name" : "Scene",
            "nodes" : [
                0
            ]
        }
    ],
    "nodes" : [
        {
            "mesh" : 0,
            "name" : "bisect-4-5-2"
        }
    ],
    "materials" : [
        {
            "doubleSided" : true,
            "emissiveFactor" : [
                0,
                0,
                0
            ],
            "name" : "Material.003",
            "pbrMetallicRoughness" : {
                "metallicFactor" : 0,
                "roughnessFactor" : 0.5
            }
        }
    ],
    "meshes" : [
        {
            "name" : "bisect-4-5-2",
            "primitives" : [
                {
                    "attributes" : {
                        "POSITION" : 0,
                        "NORMAL" : 1,
                        "TEXCOORD_0" : 2,
                        "COLOR_0" : 3,
                        "JOINTS_0" : 4,
                        "WEIGHTS_0" : 5
                    },
                    "indices" : 6,
                    "material" : 0
                }
            ]
        }
    ],
    "accessors" : [
        {
            "bufferView" : 0,
            "componentType" : 5126,
            "count" : 1428,
            "max" : [
                95.13795471191406,
                122,
                -42
            ],
            "min" : [
                82,
                108.7877197265625,
                -62
            ],
            "type" : "VEC3"
        },
        {
            "bufferView" : 1,
            "componentType" : 5126,
            "count" : 1428,
            "type" : "VEC3"
        },
        {
            "bufferView" : 2,
            "componentType" : 5126,
            "count" : 1428,
            "type" : "VEC2"
        },
        {
            "bufferView" : 3,
            "componentType" : 5126,
            "count" : 1428,
            "type" : "VEC4"
        },
        {
            "bufferView" : 4,
            "componentType" : 5123,
            "count" : 1428,
            "type" : "VEC4"
        },
        {
            "bufferView" : 5,
            "componentType" : 5126,
            "count" : 1428,
            "type" : "VEC4"
        },
        {
            "bufferView" : 6,
            "componentType" : 5123,
            "count" : 1428,
            "type" : "SCALAR"
        }
    ],
    "bufferViews" : [
        {
            "buffer" : 0,
            "byteLength" : 17136,
            "byteOffset" : 0
        },
        {
            "buffer" : 0,
            "byteLength" : 17136,
            "byteOffset" : 17136
        },
        {
            "buffer" : 0,
            "byteLength" : 11424,
            "byteOffset" : 34272
        },
        {
            "buffer" : 0,
            "byteLength" : 22848,
            "byteOffset" : 45696
        },
        {
            "buffer" : 0,
            "byteLength" : 11424,
            "byteOffset" : 68544
        },
        {
            "buffer" : 0,
            "byteLength" : 22848,
            "byteOffset" : 79968
        },
        {
            "buffer" : 0,
            "byteLength" : 2856,
            "byteOffset" : 102816
        }
    ],
    "buffers" : [
        {
            "byteLength" : 105672,
            "uri" : "bisect-4-5-2.bin"
        }
    ]
}
