{
    "asset" : {
        "generator" : "Khronos glTF Blender I/O v1.1.46",
        "version" : "2.0"
    },
    "scene" : 0,
    "scenes" : [
        {
            "name" : "Scene",
            "nodes" : [
                0
            ]
        }
    ],
    "nodes" : [
        {
            "mesh" : 0,
            "name" : "bisect-4-4-1"
        }
    ],
    "materials" : [
        {
            "doubleSided" : true,
            "emissiveFactor" : [
                0,
                0,
                0
            ],
            "name" : "Material.003",
            "pbrMetallicRoughness" : {
                "metallicFactor" : 0,
                "roughnessFactor" : 0.5
            }
        }
    ],
    "meshes" : [
        {
            "name" : "bisect-4-4-1",
            "primitives" : [
                {
                    "attributes" : {
                        "POSITION" : 0,
                        "NORMAL" : 1,
                        "TEXCOORD_0" : 2,
                        "COLOR_0" : 3,
                        "JOINTS_0" : 4,
                        "WEIGHTS_0" : 5
                    },
                    "indices" : 6,
                    "material" : 0
                }
            ]
        }
    ],
    "accessors" : [
        {
            "bufferView" : 0,
            "componentType" : 5126,
            "count" : 1197,
            "max" : [
                102,
                102,
                -22
            ],
            "min" : [
                82,
                82,
                -34.321834564208984
            ],
            "type" : "VEC3"
        },
        {
            "bufferView" : 1,
            "componentType" : 5126,
            "count" : 1197,
            "type" : "VEC3"
        },
        {
            "bufferView" : 2,
            "componentType" : 5126,
            "count" : 1197,
            "type" : "VEC2"
        },
        {
            "bufferView" : 3,
            "componentType" : 5126,
            "count" : 1197,
            "type" : "VEC4"
        },
        {
            "bufferView" : 4,
            "componentType" : 5123,
            "count" : 1197,
            "type" : "VEC4"
        },
        {
            "bufferView" : 5,
            "componentType" : 5126,
            "count" : 1197,
            "type" : "VEC4"
        },
        {
            "bufferView" : 6,
            "componentType" : 5123,
            "count" : 1197,
            "type" : "SCALAR"
        }
    ],
    "bufferViews" : [
        {
            "buffer" : 0,
            "byteLength" : 14364,
            "byteOffset" : 0
        },
        {
            "buffer" : 0,
            "byteLength" : 14364,
            "byteOffset" : 14364
        },
        {
            "buffer" : 0,
            "byteLength" : 9576,
            "byteOffset" : 28728
        },
        {
            "buffer" : 0,
            "byteLength" : 19152,
            "byteOffset" : 38304
        },
        {
            "buffer" : 0,
            "byteLength" : 9576,
            "byteOffset" : 57456
        },
        {
            "buffer" : 0,
            "byteLength" : 19152,
            "byteOffset" : 67032
        },
        {
            "buffer" : 0,
            "byteLength" : 2394,
            "byteOffset" : 86184
        }
    ],
    "buffers" : [
        {
            "byteLength" : 88580,
            "uri" : "bisect-4-4-1.bin"
        }
    ]
}
