{
    "asset" : {
        "generator" : "Khronos glTF Blender I/O v1.1.46",
        "version" : "2.0"
    },
    "scene" : 0,
    "scenes" : [
        {
            "name" : "Scene",
            "nodes" : [
                0
            ]
        }
    ],
    "nodes" : [
        {
            "mesh" : 0,
            "name" : "bisect-4-4-5"
        }
    ],
    "materials" : [
        {
            "doubleSided" : true,
            "emissiveFactor" : [
                0,
                0,
                0
            ],
            "name" : "Material.003",
            "pbrMetallicRoughness" : {
                "metallicFactor" : 0,
                "roughnessFactor" : 0.5
            }
        }
    ],
    "meshes" : [
        {
            "name" : "bisect-4-4-5",
            "primitives" : [
                {
                    "attributes" : {
                        "POSITION" : 0,
                        "NORMAL" : 1,
                        "TEXCOORD_0" : 2,
                        "COLOR_0" : 3,
                        "JOINTS_0" : 4,
                        "WEIGHTS_0" : 5
                    },
                    "indices" : 6,
                    "material" : 0
                }
            ]
        }
    ],
    "accessors" : [
        {
            "bufferView" : 0,
            "componentType" : 5126,
            "count" : 1359,
            "max" : [
                102,
                98.02256774902344,
                -102
            ],
            "min" : [
                82,
                82,
                -122
            ],
            "type" : "VEC3"
        },
        {
            "bufferView" : 1,
            "componentType" : 5126,
            "count" : 1359,
            "type" : "VEC3"
        },
        {
            "bufferView" : 2,
            "componentType" : 5126,
            "count" : 1359,
            "type" : "VEC2"
        },
        {
            "bufferView" : 3,
            "componentType" : 5126,
            "count" : 1359,
            "type" : "VEC4"
        },
        {
            "bufferView" : 4,
            "componentType" : 5123,
            "count" : 1359,
            "type" : "VEC4"
        },
        {
            "bufferView" : 5,
            "componentType" : 5126,
            "count" : 1359,
            "type" : "VEC4"
        },
        {
            "bufferView" : 6,
            "componentType" : 5123,
            "count" : 1359,
            "type" : "SCALAR"
        }
    ],
    "bufferViews" : [
        {
            "buffer" : 0,
            "byteLength" : 16308,
            "byteOffset" : 0
        },
        {
            "buffer" : 0,
            "byteLength" : 16308,
            "byteOffset" : 16308
        },
        {
            "buffer" : 0,
            "byteLength" : 10872,
            "byteOffset" : 32616
        },
        {
            "buffer" : 0,
            "byteLength" : 21744,
            "byteOffset" : 43488
        },
        {
            "buffer" : 0,
            "byteLength" : 10872,
            "byteOffset" : 65232
        },
        {
            "buffer" : 0,
            "byteLength" : 21744,
            "byteOffset" : 76104
        },
        {
            "buffer" : 0,
            "byteLength" : 2718,
            "byteOffset" : 97848
        }
    ],
    "buffers" : [
        {
            "byteLength" : 100568,
            "uri" : "bisect-4-4-5.bin"
        }
    ]
}
