{
    "asset" : {
        "generator" : "Khronos glTF Blender I/O v1.1.46",
        "version" : "2.0"
    },
    "scene" : 0,
    "scenes" : [
        {
            "name" : "Scene",
            "nodes" : [
                0
            ]
        }
    ],
    "nodes" : [
        {
            "mesh" : 0,
            "name" : "bisect-4-4-8"
        }
    ],
    "materials" : [
        {
            "doubleSided" : true,
            "emissiveFactor" : [
                0,
                0,
                0
            ],
            "name" : "Material.003",
            "pbrMetallicRoughness" : {
                "metallicFactor" : 0,
                "roughnessFactor" : 0.5
            }
        }
    ],
    "meshes" : [
        {
            "name" : "bisect-4-4-8",
            "primitives" : [
                {
                    "attributes" : {
                        "POSITION" : 0,
                        "NORMAL" : 1,
                        "TEXCOORD_0" : 2,
                        "COLOR_0" : 3,
                        "JOINTS_0" : 4,
                        "WEIGHTS_0" : 5
                    },
                    "indices" : 6,
                    "material" : 0
                }
            ]
        }
    ],
    "accessors" : [
        {
            "bufferView" : 0,
            "componentType" : 5126,
            "count" : 3279,
            "max" : [
                102,
                100.37133026123047,
                -162
            ],
            "min" : [
                82,
                82,
                -182
            ],
            "type" : "VEC3"
        },
        {
            "bufferView" : 1,
            "componentType" : 5126,
            "count" : 3279,
            "type" : "VEC3"
        },
        {
            "bufferView" : 2,
            "componentType" : 5126,
            "count" : 3279,
            "type" : "VEC2"
        },
        {
            "bufferView" : 3,
            "componentType" : 5126,
            "count" : 3279,
            "type" : "VEC4"
        },
        {
            "bufferView" : 4,
            "componentType" : 5123,
            "count" : 3279,
            "type" : "VEC4"
        },
        {
            "bufferView" : 5,
            "componentType" : 5126,
            "count" : 3279,
            "type" : "VEC4"
        },
        {
            "bufferView" : 6,
            "componentType" : 5123,
            "count" : 3279,
            "type" : "SCALAR"
        }
    ],
    "bufferViews" : [
        {
            "buffer" : 0,
            "byteLength" : 39348,
            "byteOffset" : 0
        },
        {
            "buffer" : 0,
            "byteLength" : 39348,
            "byteOffset" : 39348
        },
        {
            "buffer" : 0,
            "byteLength" : 26232,
            "byteOffset" : 78696
        },
        {
            "buffer" : 0,
            "byteLength" : 52464,
            "byteOffset" : 104928
        },
        {
            "buffer" : 0,
            "byteLength" : 26232,
            "byteOffset" : 157392
        },
        {
            "buffer" : 0,
            "byteLength" : 52464,
            "byteOffset" : 183624
        },
        {
            "buffer" : 0,
            "byteLength" : 6558,
            "byteOffset" : 236088
        }
    ],
    "buffers" : [
        {
            "byteLength" : 242648,
            "uri" : "bisect-4-4-8.bin"
        }
    ]
}
