{
    "asset" : {
        "generator" : "Khronos glTF Blender I/O v1.1.46",
        "version" : "2.0"
    },
    "scene" : 0,
    "scenes" : [
        {
            "name" : "Scene",
            "nodes" : [
                0
            ]
        }
    ],
    "nodes" : [
        {
            "mesh" : 0,
            "name" : "bisect-7-4-5"
        }
    ],
    "materials" : [
        {
            "doubleSided" : true,
            "emissiveFactor" : [
                0,
                0,
                0
            ],
            "name" : "Material.003",
            "pbrMetallicRoughness" : {
                "metallicFactor" : 0,
                "roughnessFactor" : 0.5
            }
        }
    ],
    "meshes" : [
        {
            "name" : "bisect-7-4-5",
            "primitives" : [
                {
                    "attributes" : {
                        "POSITION" : 0,
                        "NORMAL" : 1,
                        "TEXCOORD_0" : 2,
                        "COLOR_0" : 3,
                        "JOINTS_0" : 4,
                        "WEIGHTS_0" : 5
                    },
                    "indices" : 6,
                    "material" : 0
                }
            ]
        }
    ],
    "accessors" : [
        {
            "bufferView" : 0,
            "componentType" : 5126,
            "count" : 1002,
            "max" : [
                160.54368591308594,
                97.42201232910156,
                -102
            ],
            "min" : [
                142,
                82,
                -122
            ],
            "type" : "VEC3"
        },
        {
            "bufferView" : 1,
            "componentType" : 5126,
            "count" : 1002,
            "type" : "VEC3"
        },
        {
            "bufferView" : 2,
            "componentType" : 5126,
            "count" : 1002,
            "type" : "VEC2"
        },
        {
            "bufferView" : 3,
            "componentType" : 5126,
            "count" : 1002,
            "type" : "VEC4"
        },
        {
            "bufferView" : 4,
            "componentType" : 5123,
            "count" : 1002,
            "type" : "VEC4"
        },
        {
            "bufferView" : 5,
            "componentType" : 5126,
            "count" : 1002,
            "type" : "VEC4"
        },
        {
            "bufferView" : 6,
            "componentType" : 5123,
            "count" : 1002,
            "type" : "SCALAR"
        }
    ],
    "bufferViews" : [
        {
            "buffer" : 0,
            "byteLength" : 12024,
            "byteOffset" : 0
        },
        {
            "buffer" : 0,
            "byteLength" : 12024,
            "byteOffset" : 12024
        },
        {
            "buffer" : 0,
            "byteLength" : 8016,
            "byteOffset" : 24048
        },
        {
            "buffer" : 0,
            "byteLength" : 16032,
            "byteOffset" : 32064
        },
        {
            "buffer" : 0,
            "byteLength" : 8016,
            "byteOffset" : 48096
        },
        {
            "buffer" : 0,
            "byteLength" : 16032,
            "byteOffset" : 56112
        },
        {
            "buffer" : 0,
            "byteLength" : 2004,
            "byteOffset" : 72144
        }
    ],
    "buffers" : [
        {
            "byteLength" : 74148,
            "uri" : "bisect-7-4-5.bin"
        }
    ]
}
