{
    "asset" : {
        "generator" : "Khronos glTF Blender I/O v1.1.46",
        "version" : "2.0"
    },
    "scene" : 0,
    "scenes" : [
        {
            "name" : "Scene",
            "nodes" : [
                0
            ]
        }
    ],
    "nodes" : [
        {
            "mesh" : 0,
            "name" : "bisect-5-4-9"
        }
    ],
    "materials" : [
        {
            "doubleSided" : true,
            "emissiveFactor" : [
                0,
                0,
                0
            ],
            "name" : "Material.003",
            "pbrMetallicRoughness" : {
                "metallicFactor" : 0,
                "roughnessFactor" : 0.5
            }
        }
    ],
    "meshes" : [
        {
            "name" : "bisect-5-4-9",
            "primitives" : [
                {
                    "attributes" : {
                        "POSITION" : 0,
                        "NORMAL" : 1,
                        "TEXCOORD_0" : 2,
                        "COLOR_0" : 3,
                        "JOINTS_0" : 4,
                        "WEIGHTS_0" : 5
                    },
                    "indices" : 6,
                    "material" : 0
                }
            ]
        }
    ],
    "accessors" : [
        {
            "bufferView" : 0,
            "componentType" : 5126,
            "count" : 816,
            "max" : [
                122,
                102,
                -188.78663635253906
            ],
            "min" : [
                102,
                82,
                -202
            ],
            "type" : "VEC3"
        },
        {
            "bufferView" : 1,
            "componentType" : 5126,
            "count" : 816,
            "type" : "VEC3"
        },
        {
            "bufferView" : 2,
            "componentType" : 5126,
            "count" : 816,
            "type" : "VEC2"
        },
        {
            "bufferView" : 3,
            "componentType" : 5126,
            "count" : 816,
            "type" : "VEC4"
        },
        {
            "bufferView" : 4,
            "componentType" : 5123,
            "count" : 816,
            "type" : "VEC4"
        },
        {
            "bufferView" : 5,
            "componentType" : 5126,
            "count" : 816,
            "type" : "VEC4"
        },
        {
            "bufferView" : 6,
            "componentType" : 5123,
            "count" : 816,
            "type" : "SCALAR"
        }
    ],
    "bufferViews" : [
        {
            "buffer" : 0,
            "byteLength" : 9792,
            "byteOffset" : 0
        },
        {
            "buffer" : 0,
            "byteLength" : 9792,
            "byteOffset" : 9792
        },
        {
            "buffer" : 0,
            "byteLength" : 6528,
            "byteOffset" : 19584
        },
        {
            "buffer" : 0,
            "byteLength" : 13056,
            "byteOffset" : 26112
        },
        {
            "buffer" : 0,
            "byteLength" : 6528,
            "byteOffset" : 39168
        },
        {
            "buffer" : 0,
            "byteLength" : 13056,
            "byteOffset" : 45696
        },
        {
            "buffer" : 0,
            "byteLength" : 1632,
            "byteOffset" : 58752
        }
    ],
    "buffers" : [
        {
            "byteLength" : 60384,
            "uri" : "bisect-5-4-9.bin"
        }
    ]
}
