{
    "asset" : {
        "generator" : "Khronos glTF Blender I/O v1.1.46",
        "version" : "2.0"
    },
    "scene" : 0,
    "scenes" : [
        {
            "name" : "Scene",
            "nodes" : [
                0
            ]
        }
    ],
    "nodes" : [
        {
            "mesh" : 0,
            "name" : "bisect-5-3-11"
        }
    ],
    "materials" : [
        {
            "doubleSided" : true,
            "emissiveFactor" : [
                0,
                0,
                0
            ],
            "name" : "Material.003",
            "pbrMetallicRoughness" : {
                "metallicFactor" : 0,
                "roughnessFactor" : 0.5
            }
        }
    ],
    "meshes" : [
        {
            "name" : "bisect-5-3-11",
            "primitives" : [
                {
                    "attributes" : {
                        "POSITION" : 0,
                        "NORMAL" : 1,
                        "TEXCOORD_0" : 2,
                        "COLOR_0" : 3,
                        "JOINTS_0" : 4,
                        "WEIGHTS_0" : 5
                    },
                    "indices" : 6,
                    "material" : 0
                }
            ]
        }
    ],
    "accessors" : [
        {
            "bufferView" : 0,
            "componentType" : 5126,
            "count" : 789,
            "max" : [
                116.48665618896484,
                82,
                -222
            ],
            "min" : [
                102,
                62,
                -241.3632354736328
            ],
            "type" : "VEC3"
        },
        {
            "bufferView" : 1,
            "componentType" : 5126,
            "count" : 789,
            "type" : "VEC3"
        },
        {
            "bufferView" : 2,
            "componentType" : 5126,
            "count" : 789,
            "type" : "VEC2"
        },
        {
            "bufferView" : 3,
            "componentType" : 5126,
            "count" : 789,
            "type" : "VEC4"
        },
        {
            "bufferView" : 4,
            "componentType" : 5123,
            "count" : 789,
            "type" : "VEC4"
        },
        {
            "bufferView" : 5,
            "componentType" : 5126,
            "count" : 789,
            "type" : "VEC4"
        },
        {
            "bufferView" : 6,
            "componentType" : 5123,
            "count" : 789,
            "type" : "SCALAR"
        }
    ],
    "bufferViews" : [
        {
            "buffer" : 0,
            "byteLength" : 9468,
            "byteOffset" : 0
        },
        {
            "buffer" : 0,
            "byteLength" : 9468,
            "byteOffset" : 9468
        },
        {
            "buffer" : 0,
            "byteLength" : 6312,
            "byteOffset" : 18936
        },
        {
            "buffer" : 0,
            "byteLength" : 12624,
            "byteOffset" : 25248
        },
        {
            "buffer" : 0,
            "byteLength" : 6312,
            "byteOffset" : 37872
        },
        {
            "buffer" : 0,
            "byteLength" : 12624,
            "byteOffset" : 44184
        },
        {
            "buffer" : 0,
            "byteLength" : 1578,
            "byteOffset" : 56808
        }
    ],
    "buffers" : [
        {
            "byteLength" : 58388,
            "uri" : "bisect-5-3-11.bin"
        }
    ]
}
