{
    "asset" : {
        "generator" : "Khronos glTF Blender I/O v1.1.46",
        "version" : "2.0"
    },
    "scene" : 0,
    "scenes" : [
        {
            "name" : "Scene",
            "nodes" : [
                0
            ]
        }
    ],
    "nodes" : [
        {
            "mesh" : 0,
            "name" : "bisect-8-4-0"
        }
    ],
    "materials" : [
        {
            "doubleSided" : true,
            "emissiveFactor" : [
                0,
                0,
                0
            ],
            "name" : "Material.003",
            "pbrMetallicRoughness" : {
                "metallicFactor" : 0,
                "roughnessFactor" : 0.5
            }
        }
    ],
    "meshes" : [
        {
            "name" : "bisect-8-4-0",
            "primitives" : [
                {
                    "attributes" : {
                        "POSITION" : 0,
                        "NORMAL" : 1,
                        "TEXCOORD_0" : 2,
                        "COLOR_0" : 3,
                        "JOINTS_0" : 4,
                        "WEIGHTS_0" : 5
                    },
                    "indices" : 6,
                    "material" : 0
                }
            ]
        }
    ],
    "accessors" : [
        {
            "bufferView" : 0,
            "componentType" : 5126,
            "count" : 75,
            "max" : [
                178.47616577148438,
                101.54973602294922,
                -2
            ],
            "min" : [
                162,
                94.15575408935547,
                -22
            ],
            "type" : "VEC3"
        },
        {
            "bufferView" : 1,
            "componentType" : 5126,
            "count" : 75,
            "type" : "VEC3"
        },
        {
            "bufferView" : 2,
            "componentType" : 5126,
            "count" : 75,
            "type" : "VEC2"
        },
        {
            "bufferView" : 3,
            "componentType" : 5126,
            "count" : 75,
            "type" : "VEC4"
        },
        {
            "bufferView" : 4,
            "componentType" : 5123,
            "count" : 75,
            "type" : "VEC4"
        },
        {
            "bufferView" : 5,
            "componentType" : 5126,
            "count" : 75,
            "type" : "VEC4"
        },
        {
            "bufferView" : 6,
            "componentType" : 5123,
            "count" : 75,
            "type" : "SCALAR"
        }
    ],
    "bufferViews" : [
        {
            "buffer" : 0,
            "byteLength" : 900,
            "byteOffset" : 0
        },
        {
            "buffer" : 0,
            "byteLength" : 900,
            "byteOffset" : 900
        },
        {
            "buffer" : 0,
            "byteLength" : 600,
            "byteOffset" : 1800
        },
        {
            "buffer" : 0,
            "byteLength" : 1200,
            "byteOffset" : 2400
        },
        {
            "buffer" : 0,
            "byteLength" : 600,
            "byteOffset" : 3600
        },
        {
            "buffer" : 0,
            "byteLength" : 1200,
            "byteOffset" : 4200
        },
        {
            "buffer" : 0,
            "byteLength" : 150,
            "byteOffset" : 5400
        }
    ],
    "buffers" : [
        {
            "byteLength" : 5552,
            "uri" : "bisect-8-4-0.bin"
        }
    ]
}
