{
    "asset" : {
        "generator" : "Khronos glTF Blender I/O v1.1.46",
        "version" : "2.0"
    },
    "scene" : 0,
    "scenes" : [
        {
            "name" : "Scene",
            "nodes" : [
                0
            ]
        }
    ],
    "nodes" : [
        {
            "mesh" : 0,
            "name" : "bisect-1-5-6"
        }
    ],
    "materials" : [
        {
            "doubleSided" : true,
            "emissiveFactor" : [
                0,
                0,
                0
            ],
            "name" : "Material.003",
            "pbrMetallicRoughness" : {
                "metallicFactor" : 0,
                "roughnessFactor" : 0.5
            }
        }
    ],
    "meshes" : [
        {
            "name" : "bisect-1-5-6",
            "primitives" : [
                {
                    "attributes" : {
                        "POSITION" : 0,
                        "NORMAL" : 1,
                        "TEXCOORD_0" : 2,
                        "COLOR_0" : 3,
                        "JOINTS_0" : 4,
                        "WEIGHTS_0" : 5
                    },
                    "indices" : 6,
                    "material" : 0
                }
            ]
        }
    ],
    "accessors" : [
        {
            "bufferView" : 0,
            "componentType" : 5126,
            "count" : 2484,
            "max" : [
                42,
                122,
                -122
            ],
            "min" : [
                25.01644515991211,
                107.37382507324219,
                -141.24217224121094
            ],
            "type" : "VEC3"
        },
        {
            "bufferView" : 1,
            "componentType" : 5126,
            "count" : 2484,
            "type" : "VEC3"
        },
        {
            "bufferView" : 2,
            "componentType" : 5126,
            "count" : 2484,
            "type" : "VEC2"
        },
        {
            "bufferView" : 3,
            "componentType" : 5126,
            "count" : 2484,
            "type" : "VEC4"
        },
        {
            "bufferView" : 4,
            "componentType" : 5123,
            "count" : 2484,
            "type" : "VEC4"
        },
        {
            "bufferView" : 5,
            "componentType" : 5126,
            "count" : 2484,
            "type" : "VEC4"
        },
        {
            "bufferView" : 6,
            "componentType" : 5123,
            "count" : 2484,
            "type" : "SCALAR"
        }
    ],
    "bufferViews" : [
        {
            "buffer" : 0,
            "byteLength" : 29808,
            "byteOffset" : 0
        },
        {
            "buffer" : 0,
            "byteLength" : 29808,
            "byteOffset" : 29808
        },
        {
            "buffer" : 0,
            "byteLength" : 19872,
            "byteOffset" : 59616
        },
        {
            "buffer" : 0,
            "byteLength" : 39744,
            "byteOffset" : 79488
        },
        {
            "buffer" : 0,
            "byteLength" : 19872,
            "byteOffset" : 119232
        },
        {
            "buffer" : 0,
            "byteLength" : 39744,
            "byteOffset" : 139104
        },
        {
            "buffer" : 0,
            "byteLength" : 4968,
            "byteOffset" : 178848
        }
    ],
    "buffers" : [
        {
            "byteLength" : 183816,
            "uri" : "bisect-1-5-6.bin"
        }
    ]
}
