{
    "asset" : {
        "generator" : "Khronos glTF Blender I/O v1.1.46",
        "version" : "2.0"
    },
    "scene" : 0,
    "scenes" : [
        {
            "name" : "Scene",
            "nodes" : [
                0
            ]
        }
    ],
    "nodes" : [
        {
            "mesh" : 0,
            "name" : "bisect-3-6-10"
        }
    ],
    "materials" : [
        {
            "doubleSided" : true,
            "emissiveFactor" : [
                0,
                0,
                0
            ],
            "name" : "Material.003",
            "pbrMetallicRoughness" : {
                "metallicFactor" : 0,
                "roughnessFactor" : 0.5
            }
        }
    ],
    "meshes" : [
        {
            "name" : "bisect-3-6-10",
            "primitives" : [
                {
                    "attributes" : {
                        "POSITION" : 0,
                        "NORMAL" : 1,
                        "TEXCOORD_0" : 2,
                        "COLOR_0" : 3,
                        "JOINTS_0" : 4,
                        "WEIGHTS_0" : 5
                    },
                    "indices" : 6,
                    "material" : 0
                }
            ]
        }
    ],
    "accessors" : [
        {
            "bufferView" : 0,
            "componentType" : 5126,
            "count" : 351,
            "max" : [
                82,
                128.18846130371094,
                -209.3560028076172
            ],
            "min" : [
                65.51097869873047,
                122,
                -222
            ],
            "type" : "VEC3"
        },
        {
            "bufferView" : 1,
            "componentType" : 5126,
            "count" : 351,
            "type" : "VEC3"
        },
        {
            "bufferView" : 2,
            "componentType" : 5126,
            "count" : 351,
            "type" : "VEC2"
        },
        {
            "bufferView" : 3,
            "componentType" : 5126,
            "count" : 351,
            "type" : "VEC4"
        },
        {
            "bufferView" : 4,
            "componentType" : 5123,
            "count" : 351,
            "type" : "VEC4"
        },
        {
            "bufferView" : 5,
            "componentType" : 5126,
            "count" : 351,
            "type" : "VEC4"
        },
        {
            "bufferView" : 6,
            "componentType" : 5123,
            "count" : 351,
            "type" : "SCALAR"
        }
    ],
    "bufferViews" : [
        {
            "buffer" : 0,
            "byteLength" : 4212,
            "byteOffset" : 0
        },
        {
            "buffer" : 0,
            "byteLength" : 4212,
            "byteOffset" : 4212
        },
        {
            "buffer" : 0,
            "byteLength" : 2808,
            "byteOffset" : 8424
        },
        {
            "buffer" : 0,
            "byteLength" : 5616,
            "byteOffset" : 11232
        },
        {
            "buffer" : 0,
            "byteLength" : 2808,
            "byteOffset" : 16848
        },
        {
            "buffer" : 0,
            "byteLength" : 5616,
            "byteOffset" : 19656
        },
        {
            "buffer" : 0,
            "byteLength" : 702,
            "byteOffset" : 25272
        }
    ],
    "buffers" : [
        {
            "byteLength" : 25976,
            "uri" : "bisect-3-6-10.bin"
        }
    ]
}
