{
    "asset" : {
        "generator" : "Khronos glTF Blender I/O v1.1.46",
        "version" : "2.0"
    },
    "scene" : 0,
    "scenes" : [
        {
            "name" : "Scene",
            "nodes" : [
                0
            ]
        }
    ],
    "nodes" : [
        {
            "mesh" : 0,
            "name" : "bisect-7-5-12"
        }
    ],
    "materials" : [
        {
            "doubleSided" : true,
            "emissiveFactor" : [
                0,
                0,
                0
            ],
            "name" : "Material.003",
            "pbrMetallicRoughness" : {
                "metallicFactor" : 0,
                "roughnessFactor" : 0.5
            }
        }
    ],
    "meshes" : [
        {
            "name" : "bisect-7-5-12",
            "primitives" : [
                {
                    "attributes" : {
                        "POSITION" : 0,
                        "NORMAL" : 1,
                        "TEXCOORD_0" : 2,
                        "COLOR_0" : 3,
                        "JOINTS_0" : 4,
                        "WEIGHTS_0" : 5
                    },
                    "indices" : 6,
                    "material" : 0
                }
            ]
        }
    ],
    "accessors" : [
        {
            "bufferView" : 0,
            "componentType" : 5126,
            "count" : 513,
            "max" : [
                162,
                116.87393951416016,
                -242
            ],
            "min" : [
                149.7373504638672,
                102,
                -262
            ],
            "type" : "VEC3"
        },
        {
            "bufferView" : 1,
            "componentType" : 5126,
            "count" : 513,
            "type" : "VEC3"
        },
        {
            "bufferView" : 2,
            "componentType" : 5126,
            "count" : 513,
            "type" : "VEC2"
        },
        {
            "bufferView" : 3,
            "componentType" : 5126,
            "count" : 513,
            "type" : "VEC4"
        },
        {
            "bufferView" : 4,
            "componentType" : 5123,
            "count" : 513,
            "type" : "VEC4"
        },
        {
            "bufferView" : 5,
            "componentType" : 5126,
            "count" : 513,
            "type" : "VEC4"
        },
        {
            "bufferView" : 6,
            "componentType" : 5123,
            "count" : 513,
            "type" : "SCALAR"
        }
    ],
    "bufferViews" : [
        {
            "buffer" : 0,
            "byteLength" : 6156,
            "byteOffset" : 0
        },
        {
            "buffer" : 0,
            "byteLength" : 6156,
            "byteOffset" : 6156
        },
        {
            "buffer" : 0,
            "byteLength" : 4104,
            "byteOffset" : 12312
        },
        {
            "buffer" : 0,
            "byteLength" : 8208,
            "byteOffset" : 16416
        },
        {
            "buffer" : 0,
            "byteLength" : 4104,
            "byteOffset" : 24624
        },
        {
            "buffer" : 0,
            "byteLength" : 8208,
            "byteOffset" : 28728
        },
        {
            "buffer" : 0,
            "byteLength" : 1026,
            "byteOffset" : 36936
        }
    ],
    "buffers" : [
        {
            "byteLength" : 37964,
            "uri" : "bisect-7-5-12.bin"
        }
    ]
}
