{
    "asset" : {
        "generator" : "Khronos glTF Blender I/O v1.1.46",
        "version" : "2.0"
    },
    "scene" : 0,
    "scenes" : [
        {
            "name" : "Scene",
            "nodes" : [
                0
            ]
        }
    ],
    "nodes" : [
        {
            "mesh" : 0,
            "name" : "bisect-7-4-7"
        }
    ],
    "materials" : [
        {
            "doubleSided" : true,
            "emissiveFactor" : [
                0,
                0,
                0
            ],
            "name" : "Material.003",
            "pbrMetallicRoughness" : {
                "metallicFactor" : 0,
                "roughnessFactor" : 0.5
            }
        }
    ],
    "meshes" : [
        {
            "name" : "bisect-7-4-7",
            "primitives" : [
                {
                    "attributes" : {
                        "POSITION" : 0,
                        "NORMAL" : 1,
                        "TEXCOORD_0" : 2,
                        "COLOR_0" : 3,
                        "JOINTS_0" : 4,
                        "WEIGHTS_0" : 5
                    },
                    "indices" : 6,
                    "material" : 0
                }
            ]
        }
    ],
    "accessors" : [
        {
            "bufferView" : 0,
            "componentType" : 5126,
            "count" : 1320,
            "max" : [
                161.8891143798828,
                97.04792022705078,
                -142
            ],
            "min" : [
                142,
                82,
                -161.19200134277344
            ],
            "type" : "VEC3"
        },
        {
            "bufferView" : 1,
            "componentType" : 5126,
            "count" : 1320,
            "type" : "VEC3"
        },
        {
            "bufferView" : 2,
            "componentType" : 5126,
            "count" : 1320,
            "type" : "VEC2"
        },
        {
            "bufferView" : 3,
            "componentType" : 5126,
            "count" : 1320,
            "type" : "VEC4"
        },
        {
            "bufferView" : 4,
            "componentType" : 5123,
            "count" : 1320,
            "type" : "VEC4"
        },
        {
            "bufferView" : 5,
            "componentType" : 5126,
            "count" : 1320,
            "type" : "VEC4"
        },
        {
            "bufferView" : 6,
            "componentType" : 5123,
            "count" : 1320,
            "type" : "SCALAR"
        }
    ],
    "bufferViews" : [
        {
            "buffer" : 0,
            "byteLength" : 15840,
            "byteOffset" : 0
        },
        {
            "buffer" : 0,
            "byteLength" : 15840,
            "byteOffset" : 15840
        },
        {
            "buffer" : 0,
            "byteLength" : 10560,
            "byteOffset" : 31680
        },
        {
            "buffer" : 0,
            "byteLength" : 21120,
            "byteOffset" : 42240
        },
        {
            "buffer" : 0,
            "byteLength" : 10560,
            "byteOffset" : 63360
        },
        {
            "buffer" : 0,
            "byteLength" : 21120,
            "byteOffset" : 73920
        },
        {
            "buffer" : 0,
            "byteLength" : 2640,
            "byteOffset" : 95040
        }
    ],
    "buffers" : [
        {
            "byteLength" : 97680,
            "uri" : "bisect-7-4-7.bin"
        }
    ]
}
