{
    "asset" : {
        "generator" : "Khronos glTF Blender I/O v1.1.46",
        "version" : "2.0"
    },
    "scene" : 0,
    "scenes" : [
        {
            "name" : "Scene",
            "nodes" : [
                0
            ]
        }
    ],
    "nodes" : [
        {
            "mesh" : 0,
            "name" : "bisect-1-6-6"
        }
    ],
    "materials" : [
        {
            "doubleSided" : true,
            "emissiveFactor" : [
                0,
                0,
                0
            ],
            "name" : "Material.003",
            "pbrMetallicRoughness" : {
                "metallicFactor" : 0,
                "roughnessFactor" : 0.5
            }
        }
    ],
    "meshes" : [
        {
            "name" : "bisect-1-6-6",
            "primitives" : [
                {
                    "attributes" : {
                        "POSITION" : 0,
                        "NORMAL" : 1,
                        "TEXCOORD_0" : 2,
                        "COLOR_0" : 3,
                        "JOINTS_0" : 4,
                        "WEIGHTS_0" : 5
                    },
                    "indices" : 6,
                    "material" : 0
                }
            ]
        }
    ],
    "accessors" : [
        {
            "bufferView" : 0,
            "componentType" : 5126,
            "count" : 2703,
            "max" : [
                42,
                138.85450744628906,
                -122
            ],
            "min" : [
                22,
                122,
                -142
            ],
            "type" : "VEC3"
        },
        {
            "bufferView" : 1,
            "componentType" : 5126,
            "count" : 2703,
            "type" : "VEC3"
        },
        {
            "bufferView" : 2,
            "componentType" : 5126,
            "count" : 2703,
            "type" : "VEC2"
        },
        {
            "bufferView" : 3,
            "componentType" : 5126,
            "count" : 2703,
            "type" : "VEC4"
        },
        {
            "bufferView" : 4,
            "componentType" : 5123,
            "count" : 2703,
            "type" : "VEC4"
        },
        {
            "bufferView" : 5,
            "componentType" : 5126,
            "count" : 2703,
            "type" : "VEC4"
        },
        {
            "bufferView" : 6,
            "componentType" : 5123,
            "count" : 2703,
            "type" : "SCALAR"
        }
    ],
    "bufferViews" : [
        {
            "buffer" : 0,
            "byteLength" : 32436,
            "byteOffset" : 0
        },
        {
            "buffer" : 0,
            "byteLength" : 32436,
            "byteOffset" : 32436
        },
        {
            "buffer" : 0,
            "byteLength" : 21624,
            "byteOffset" : 64872
        },
        {
            "buffer" : 0,
            "byteLength" : 43248,
            "byteOffset" : 86496
        },
        {
            "buffer" : 0,
            "byteLength" : 21624,
            "byteOffset" : 129744
        },
        {
            "buffer" : 0,
            "byteLength" : 43248,
            "byteOffset" : 151368
        },
        {
            "buffer" : 0,
            "byteLength" : 5406,
            "byteOffset" : 194616
        }
    ],
    "buffers" : [
        {
            "byteLength" : 200024,
            "uri" : "bisect-1-6-6.bin"
        }
    ]
}
