{
    "asset" : {
        "generator" : "Khronos glTF Blender I/O v1.1.46",
        "version" : "2.0"
    },
    "scene" : 0,
    "scenes" : [
        {
            "name" : "Scene",
            "nodes" : [
                0
            ]
        }
    ],
    "nodes" : [
        {
            "mesh" : 0,
            "name" : "bisect-9-5-11"
        }
    ],
    "materials" : [
        {
            "doubleSided" : true,
            "emissiveFactor" : [
                0,
                0,
                0
            ],
            "name" : "Material.003",
            "pbrMetallicRoughness" : {
                "metallicFactor" : 0,
                "roughnessFactor" : 0.5
            }
        }
    ],
    "meshes" : [
        {
            "name" : "bisect-9-5-11",
            "primitives" : [
                {
                    "attributes" : {
                        "POSITION" : 0,
                        "NORMAL" : 1,
                        "TEXCOORD_0" : 2,
                        "COLOR_0" : 3,
                        "JOINTS_0" : 4,
                        "WEIGHTS_0" : 5
                    },
                    "indices" : 6,
                    "material" : 0
                }
            ]
        }
    ],
    "accessors" : [
        {
            "bufferView" : 0,
            "componentType" : 5126,
            "count" : 300,
            "max" : [
                189.4043731689453,
                122,
                -223.3753662109375
            ],
            "min" : [
                182,
                102,
                -242
            ],
            "type" : "VEC3"
        },
        {
            "bufferView" : 1,
            "componentType" : 5126,
            "count" : 300,
            "type" : "VEC3"
        },
        {
            "bufferView" : 2,
            "componentType" : 5126,
            "count" : 300,
            "type" : "VEC2"
        },
        {
            "bufferView" : 3,
            "componentType" : 5126,
            "count" : 300,
            "type" : "VEC4"
        },
        {
            "bufferView" : 4,
            "componentType" : 5123,
            "count" : 300,
            "type" : "VEC4"
        },
        {
            "bufferView" : 5,
            "componentType" : 5126,
            "count" : 300,
            "type" : "VEC4"
        },
        {
            "bufferView" : 6,
            "componentType" : 5123,
            "count" : 300,
            "type" : "SCALAR"
        }
    ],
    "bufferViews" : [
        {
            "buffer" : 0,
            "byteLength" : 3600,
            "byteOffset" : 0
        },
        {
            "buffer" : 0,
            "byteLength" : 3600,
            "byteOffset" : 3600
        },
        {
            "buffer" : 0,
            "byteLength" : 2400,
            "byteOffset" : 7200
        },
        {
            "buffer" : 0,
            "byteLength" : 4800,
            "byteOffset" : 9600
        },
        {
            "buffer" : 0,
            "byteLength" : 2400,
            "byteOffset" : 14400
        },
        {
            "buffer" : 0,
            "byteLength" : 4800,
            "byteOffset" : 16800
        },
        {
            "buffer" : 0,
            "byteLength" : 600,
            "byteOffset" : 21600
        }
    ],
    "buffers" : [
        {
            "byteLength" : 22200,
            "uri" : "bisect-9-5-11.bin"
        }
    ]
}
