{
    "asset" : {
        "generator" : "Khronos glTF Blender I/O v1.1.46",
        "version" : "2.0"
    },
    "scene" : 0,
    "scenes" : [
        {
            "name" : "Scene",
            "nodes" : [
                0
            ]
        }
    ],
    "nodes" : [
        {
            "mesh" : 0,
            "name" : "bisect-2-6-4"
        }
    ],
    "materials" : [
        {
            "doubleSided" : true,
            "emissiveFactor" : [
                0,
                0,
                0
            ],
            "name" : "Material.003",
            "pbrMetallicRoughness" : {
                "metallicFactor" : 0,
                "roughnessFactor" : 0.5
            }
        }
    ],
    "meshes" : [
        {
            "name" : "bisect-2-6-4",
            "primitives" : [
                {
                    "attributes" : {
                        "POSITION" : 0,
                        "NORMAL" : 1,
                        "TEXCOORD_0" : 2,
                        "COLOR_0" : 3,
                        "JOINTS_0" : 4,
                        "WEIGHTS_0" : 5
                    },
                    "indices" : 6,
                    "material" : 0
                }
            ]
        }
    ],
    "accessors" : [
        {
            "bufferView" : 0,
            "componentType" : 5126,
            "count" : 3141,
            "max" : [
                56.5648193359375,
                132.2787322998047,
                -93.08770751953125
            ],
            "min" : [
                42,
                122,
                -102
            ],
            "type" : "VEC3"
        },
        {
            "bufferView" : 1,
            "componentType" : 5126,
            "count" : 3141,
            "type" : "VEC3"
        },
        {
            "bufferView" : 2,
            "componentType" : 5126,
            "count" : 3141,
            "type" : "VEC2"
        },
        {
            "bufferView" : 3,
            "componentType" : 5126,
            "count" : 3141,
            "type" : "VEC4"
        },
        {
            "bufferView" : 4,
            "componentType" : 5123,
            "count" : 3141,
            "type" : "VEC4"
        },
        {
            "bufferView" : 5,
            "componentType" : 5126,
            "count" : 3141,
            "type" : "VEC4"
        },
        {
            "bufferView" : 6,
            "componentType" : 5123,
            "count" : 3141,
            "type" : "SCALAR"
        }
    ],
    "bufferViews" : [
        {
            "buffer" : 0,
            "byteLength" : 37692,
            "byteOffset" : 0
        },
        {
            "buffer" : 0,
            "byteLength" : 37692,
            "byteOffset" : 37692
        },
        {
            "buffer" : 0,
            "byteLength" : 25128,
            "byteOffset" : 75384
        },
        {
            "buffer" : 0,
            "byteLength" : 50256,
            "byteOffset" : 100512
        },
        {
            "buffer" : 0,
            "byteLength" : 25128,
            "byteOffset" : 150768
        },
        {
            "buffer" : 0,
            "byteLength" : 50256,
            "byteOffset" : 175896
        },
        {
            "buffer" : 0,
            "byteLength" : 6282,
            "byteOffset" : 226152
        }
    ],
    "buffers" : [
        {
            "byteLength" : 232436,
            "uri" : "bisect-2-6-4.bin"
        }
    ]
}
