{
    "asset" : {
        "generator" : "Khronos glTF Blender I/O v1.1.46",
        "version" : "2.0"
    },
    "scene" : 0,
    "scenes" : [
        {
            "name" : "Scene",
            "nodes" : [
                0
            ]
        }
    ],
    "nodes" : [
        {
            "mesh" : 0,
            "name" : "bisect-2-5-5"
        }
    ],
    "materials" : [
        {
            "doubleSided" : true,
            "emissiveFactor" : [
                0,
                0,
                0
            ],
            "name" : "Material.003",
            "pbrMetallicRoughness" : {
                "metallicFactor" : 0,
                "roughnessFactor" : 0.5
            }
        }
    ],
    "meshes" : [
        {
            "name" : "bisect-2-5-5",
            "primitives" : [
                {
                    "attributes" : {
                        "POSITION" : 0,
                        "NORMAL" : 1,
                        "TEXCOORD_0" : 2,
                        "COLOR_0" : 3,
                        "JOINTS_0" : 4,
                        "WEIGHTS_0" : 5
                    },
                    "indices" : 6,
                    "material" : 0
                }
            ]
        }
    ],
    "accessors" : [
        {
            "bufferView" : 0,
            "componentType" : 5126,
            "count" : 2763,
            "max" : [
                62,
                122,
                -102
            ],
            "min" : [
                42,
                102,
                -122.0006103515625
            ],
            "type" : "VEC3"
        },
        {
            "bufferView" : 1,
            "componentType" : 5126,
            "count" : 2763,
            "type" : "VEC3"
        },
        {
            "bufferView" : 2,
            "componentType" : 5126,
            "count" : 2763,
            "type" : "VEC2"
        },
        {
            "bufferView" : 3,
            "componentType" : 5126,
            "count" : 2763,
            "type" : "VEC4"
        },
        {
            "bufferView" : 4,
            "componentType" : 5123,
            "count" : 2763,
            "type" : "VEC4"
        },
        {
            "bufferView" : 5,
            "componentType" : 5126,
            "count" : 2763,
            "type" : "VEC4"
        },
        {
            "bufferView" : 6,
            "componentType" : 5123,
            "count" : 2763,
            "type" : "SCALAR"
        }
    ],
    "bufferViews" : [
        {
            "buffer" : 0,
            "byteLength" : 33156,
            "byteOffset" : 0
        },
        {
            "buffer" : 0,
            "byteLength" : 33156,
            "byteOffset" : 33156
        },
        {
            "buffer" : 0,
            "byteLength" : 22104,
            "byteOffset" : 66312
        },
        {
            "buffer" : 0,
            "byteLength" : 44208,
            "byteOffset" : 88416
        },
        {
            "buffer" : 0,
            "byteLength" : 22104,
            "byteOffset" : 132624
        },
        {
            "buffer" : 0,
            "byteLength" : 44208,
            "byteOffset" : 154728
        },
        {
            "buffer" : 0,
            "byteLength" : 5526,
            "byteOffset" : 198936
        }
    ],
    "buffers" : [
        {
            "byteLength" : 204464,
            "uri" : "bisect-2-5-5.bin"
        }
    ]
}
