{
    "asset" : {
        "generator" : "Khronos glTF Blender I/O v1.1.46",
        "version" : "2.0"
    },
    "scene" : 0,
    "scenes" : [
        {
            "name" : "Scene",
            "nodes" : [
                0
            ]
        }
    ],
    "nodes" : [
        {
            "mesh" : 0,
            "name" : "bisect-4-3-8"
        }
    ],
    "materials" : [
        {
            "doubleSided" : true,
            "emissiveFactor" : [
                0,
                0,
                0
            ],
            "name" : "Material.003",
            "pbrMetallicRoughness" : {
                "metallicFactor" : 0,
                "roughnessFactor" : 0.5
            }
        }
    ],
    "meshes" : [
        {
            "name" : "bisect-4-3-8",
            "primitives" : [
                {
                    "attributes" : {
                        "POSITION" : 0,
                        "NORMAL" : 1,
                        "TEXCOORD_0" : 2,
                        "COLOR_0" : 3,
                        "JOINTS_0" : 4,
                        "WEIGHTS_0" : 5
                    },
                    "indices" : 6,
                    "material" : 0
                }
            ]
        }
    ],
    "accessors" : [
        {
            "bufferView" : 0,
            "componentType" : 5126,
            "count" : 429,
            "max" : [
                102,
                82,
                -162.41366577148438
            ],
            "min" : [
                93.89945983886719,
                69.93008422851562,
                -182
            ],
            "type" : "VEC3"
        },
        {
            "bufferView" : 1,
            "componentType" : 5126,
            "count" : 429,
            "type" : "VEC3"
        },
        {
            "bufferView" : 2,
            "componentType" : 5126,
            "count" : 429,
            "type" : "VEC2"
        },
        {
            "bufferView" : 3,
            "componentType" : 5126,
            "count" : 429,
            "type" : "VEC4"
        },
        {
            "bufferView" : 4,
            "componentType" : 5123,
            "count" : 429,
            "type" : "VEC4"
        },
        {
            "bufferView" : 5,
            "componentType" : 5126,
            "count" : 429,
            "type" : "VEC4"
        },
        {
            "bufferView" : 6,
            "componentType" : 5123,
            "count" : 429,
            "type" : "SCALAR"
        }
    ],
    "bufferViews" : [
        {
            "buffer" : 0,
            "byteLength" : 5148,
            "byteOffset" : 0
        },
        {
            "buffer" : 0,
            "byteLength" : 5148,
            "byteOffset" : 5148
        },
        {
            "buffer" : 0,
            "byteLength" : 3432,
            "byteOffset" : 10296
        },
        {
            "buffer" : 0,
            "byteLength" : 6864,
            "byteOffset" : 13728
        },
        {
            "buffer" : 0,
            "byteLength" : 3432,
            "byteOffset" : 20592
        },
        {
            "buffer" : 0,
            "byteLength" : 6864,
            "byteOffset" : 24024
        },
        {
            "buffer" : 0,
            "byteLength" : 858,
            "byteOffset" : 30888
        }
    ],
    "buffers" : [
        {
            "byteLength" : 31748,
            "uri" : "bisect-4-3-8.bin"
        }
    ]
}
