{
    "asset" : {
        "generator" : "Khronos glTF Blender I/O v1.1.46",
        "version" : "2.0"
    },
    "scene" : 0,
    "scenes" : [
        {
            "name" : "Scene",
            "nodes" : [
                0
            ]
        }
    ],
    "nodes" : [
        {
            "mesh" : 0,
            "name" : "bisect-6-3-8"
        }
    ],
    "materials" : [
        {
            "doubleSided" : true,
            "emissiveFactor" : [
                0,
                0,
                0
            ],
            "name" : "Material.003",
            "pbrMetallicRoughness" : {
                "metallicFactor" : 0,
                "roughnessFactor" : 0.5
            }
        }
    ],
    "meshes" : [
        {
            "name" : "bisect-6-3-8",
            "primitives" : [
                {
                    "attributes" : {
                        "POSITION" : 0,
                        "NORMAL" : 1,
                        "TEXCOORD_0" : 2,
                        "COLOR_0" : 3,
                        "JOINTS_0" : 4,
                        "WEIGHTS_0" : 5
                    },
                    "indices" : 6,
                    "material" : 0
                }
            ]
        }
    ],
    "accessors" : [
        {
            "bufferView" : 0,
            "componentType" : 5126,
            "count" : 675,
            "max" : [
                142,
                75.07518005371094,
                -162
            ],
            "min" : [
                122,
                62,
                -182
            ],
            "type" : "VEC3"
        },
        {
            "bufferView" : 1,
            "componentType" : 5126,
            "count" : 675,
            "type" : "VEC3"
        },
        {
            "bufferView" : 2,
            "componentType" : 5126,
            "count" : 675,
            "type" : "VEC2"
        },
        {
            "bufferView" : 3,
            "componentType" : 5126,
            "count" : 675,
            "type" : "VEC4"
        },
        {
            "bufferView" : 4,
            "componentType" : 5123,
            "count" : 675,
            "type" : "VEC4"
        },
        {
            "bufferView" : 5,
            "componentType" : 5126,
            "count" : 675,
            "type" : "VEC4"
        },
        {
            "bufferView" : 6,
            "componentType" : 5123,
            "count" : 675,
            "type" : "SCALAR"
        }
    ],
    "bufferViews" : [
        {
            "buffer" : 0,
            "byteLength" : 8100,
            "byteOffset" : 0
        },
        {
            "buffer" : 0,
            "byteLength" : 8100,
            "byteOffset" : 8100
        },
        {
            "buffer" : 0,
            "byteLength" : 5400,
            "byteOffset" : 16200
        },
        {
            "buffer" : 0,
            "byteLength" : 10800,
            "byteOffset" : 21600
        },
        {
            "buffer" : 0,
            "byteLength" : 5400,
            "byteOffset" : 32400
        },
        {
            "buffer" : 0,
            "byteLength" : 10800,
            "byteOffset" : 37800
        },
        {
            "buffer" : 0,
            "byteLength" : 1350,
            "byteOffset" : 48600
        }
    ],
    "buffers" : [
        {
            "byteLength" : 49952,
            "uri" : "bisect-6-3-8.bin"
        }
    ]
}
