{
    "asset" : {
        "generator" : "Khronos glTF Blender I/O v1.1.46",
        "version" : "2.0"
    },
    "scene" : 0,
    "scenes" : [
        {
            "name" : "Scene",
            "nodes" : [
                0
            ]
        }
    ],
    "nodes" : [
        {
            "mesh" : 0,
            "name" : "bisect-7-2-7"
        }
    ],
    "materials" : [
        {
            "doubleSided" : true,
            "emissiveFactor" : [
                0,
                0,
                0
            ],
            "name" : "Material.003",
            "pbrMetallicRoughness" : {
                "metallicFactor" : 0,
                "roughnessFactor" : 0.5
            }
        }
    ],
    "meshes" : [
        {
            "name" : "bisect-7-2-7",
            "primitives" : [
                {
                    "attributes" : {
                        "POSITION" : 0,
                        "NORMAL" : 1,
                        "TEXCOORD_0" : 2,
                        "COLOR_0" : 3,
                        "JOINTS_0" : 4,
                        "WEIGHTS_0" : 5
                    },
                    "indices" : 6,
                    "material" : 0
                }
            ]
        }
    ],
    "accessors" : [
        {
            "bufferView" : 0,
            "componentType" : 5126,
            "count" : 1011,
            "max" : [
                155.5946502685547,
                60.57871627807617,
                -142
            ],
            "min" : [
                142,
                42,
                -155.24545288085938
            ],
            "type" : "VEC3"
        },
        {
            "bufferView" : 1,
            "componentType" : 5126,
            "count" : 1011,
            "type" : "VEC3"
        },
        {
            "bufferView" : 2,
            "componentType" : 5126,
            "count" : 1011,
            "type" : "VEC2"
        },
        {
            "bufferView" : 3,
            "componentType" : 5126,
            "count" : 1011,
            "type" : "VEC4"
        },
        {
            "bufferView" : 4,
            "componentType" : 5123,
            "count" : 1011,
            "type" : "VEC4"
        },
        {
            "bufferView" : 5,
            "componentType" : 5126,
            "count" : 1011,
            "type" : "VEC4"
        },
        {
            "bufferView" : 6,
            "componentType" : 5123,
            "count" : 1011,
            "type" : "SCALAR"
        }
    ],
    "bufferViews" : [
        {
            "buffer" : 0,
            "byteLength" : 12132,
            "byteOffset" : 0
        },
        {
            "buffer" : 0,
            "byteLength" : 12132,
            "byteOffset" : 12132
        },
        {
            "buffer" : 0,
            "byteLength" : 8088,
            "byteOffset" : 24264
        },
        {
            "buffer" : 0,
            "byteLength" : 16176,
            "byteOffset" : 32352
        },
        {
            "buffer" : 0,
            "byteLength" : 8088,
            "byteOffset" : 48528
        },
        {
            "buffer" : 0,
            "byteLength" : 16176,
            "byteOffset" : 56616
        },
        {
            "buffer" : 0,
            "byteLength" : 2022,
            "byteOffset" : 72792
        }
    ],
    "buffers" : [
        {
            "byteLength" : 74816,
            "uri" : "bisect-7-2-7.bin"
        }
    ]
}
