{
    "asset" : {
        "generator" : "Khronos glTF Blender I/O v1.1.46",
        "version" : "2.0"
    },
    "scene" : 0,
    "scenes" : [
        {
            "name" : "Scene",
            "nodes" : [
                0
            ]
        }
    ],
    "nodes" : [
        {
            "mesh" : 0,
            "name" : "bisect-2-5-7"
        }
    ],
    "materials" : [
        {
            "doubleSided" : true,
            "emissiveFactor" : [
                0,
                0,
                0
            ],
            "name" : "Material.003",
            "pbrMetallicRoughness" : {
                "metallicFactor" : 0,
                "roughnessFactor" : 0.5
            }
        }
    ],
    "meshes" : [
        {
            "name" : "bisect-2-5-7",
            "primitives" : [
                {
                    "attributes" : {
                        "POSITION" : 0,
                        "NORMAL" : 1,
                        "TEXCOORD_0" : 2,
                        "COLOR_0" : 3,
                        "JOINTS_0" : 4,
                        "WEIGHTS_0" : 5
                    },
                    "indices" : 6,
                    "material" : 0
                }
            ]
        }
    ],
    "accessors" : [
        {
            "bufferView" : 0,
            "componentType" : 5126,
            "count" : 1278,
            "max" : [
                62,
                122,
                -142
            ],
            "min" : [
                42,
                107.0739517211914,
                -162
            ],
            "type" : "VEC3"
        },
        {
            "bufferView" : 1,
            "componentType" : 5126,
            "count" : 1278,
            "type" : "VEC3"
        },
        {
            "bufferView" : 2,
            "componentType" : 5126,
            "count" : 1278,
            "type" : "VEC2"
        },
        {
            "bufferView" : 3,
            "componentType" : 5126,
            "count" : 1278,
            "type" : "VEC4"
        },
        {
            "bufferView" : 4,
            "componentType" : 5123,
            "count" : 1278,
            "type" : "VEC4"
        },
        {
            "bufferView" : 5,
            "componentType" : 5126,
            "count" : 1278,
            "type" : "VEC4"
        },
        {
            "bufferView" : 6,
            "componentType" : 5123,
            "count" : 1278,
            "type" : "SCALAR"
        }
    ],
    "bufferViews" : [
        {
            "buffer" : 0,
            "byteLength" : 15336,
            "byteOffset" : 0
        },
        {
            "buffer" : 0,
            "byteLength" : 15336,
            "byteOffset" : 15336
        },
        {
            "buffer" : 0,
            "byteLength" : 10224,
            "byteOffset" : 30672
        },
        {
            "buffer" : 0,
            "byteLength" : 20448,
            "byteOffset" : 40896
        },
        {
            "buffer" : 0,
            "byteLength" : 10224,
            "byteOffset" : 61344
        },
        {
            "buffer" : 0,
            "byteLength" : 20448,
            "byteOffset" : 71568
        },
        {
            "buffer" : 0,
            "byteLength" : 2556,
            "byteOffset" : 92016
        }
    ],
    "buffers" : [
        {
            "byteLength" : 94572,
            "uri" : "bisect-2-5-7.bin"
        }
    ]
}
