{
    "asset" : {
        "generator" : "Khronos glTF Blender I/O v1.1.46",
        "version" : "2.0"
    },
    "scene" : 0,
    "scenes" : [
        {
            "name" : "Scene",
            "nodes" : [
                0
            ]
        }
    ],
    "nodes" : [
        {
            "mesh" : 0,
            "name" : "bisect-4-4-10"
        }
    ],
    "materials" : [
        {
            "doubleSided" : true,
            "emissiveFactor" : [
                0,
                0,
                0
            ],
            "name" : "Material.003",
            "pbrMetallicRoughness" : {
                "metallicFactor" : 0,
                "roughnessFactor" : 0.5
            }
        }
    ],
    "meshes" : [
        {
            "name" : "bisect-4-4-10",
            "primitives" : [
                {
                    "attributes" : {
                        "POSITION" : 0,
                        "NORMAL" : 1,
                        "TEXCOORD_0" : 2,
                        "COLOR_0" : 3,
                        "JOINTS_0" : 4,
                        "WEIGHTS_0" : 5
                    },
                    "indices" : 6,
                    "material" : 0
                }
            ]
        }
    ],
    "accessors" : [
        {
            "bufferView" : 0,
            "componentType" : 5126,
            "count" : 2481,
            "max" : [
                102,
                102,
                -202
            ],
            "min" : [
                82,
                82,
                -222
            ],
            "type" : "VEC3"
        },
        {
            "bufferView" : 1,
            "componentType" : 5126,
            "count" : 2481,
            "type" : "VEC3"
        },
        {
            "bufferView" : 2,
            "componentType" : 5126,
            "count" : 2481,
            "type" : "VEC2"
        },
        {
            "bufferView" : 3,
            "componentType" : 5126,
            "count" : 2481,
            "type" : "VEC4"
        },
        {
            "bufferView" : 4,
            "componentType" : 5123,
            "count" : 2481,
            "type" : "VEC4"
        },
        {
            "bufferView" : 5,
            "componentType" : 5126,
            "count" : 2481,
            "type" : "VEC4"
        },
        {
            "bufferView" : 6,
            "componentType" : 5123,
            "count" : 2481,
            "type" : "SCALAR"
        }
    ],
    "bufferViews" : [
        {
            "buffer" : 0,
            "byteLength" : 29772,
            "byteOffset" : 0
        },
        {
            "buffer" : 0,
            "byteLength" : 29772,
            "byteOffset" : 29772
        },
        {
            "buffer" : 0,
            "byteLength" : 19848,
            "byteOffset" : 59544
        },
        {
            "buffer" : 0,
            "byteLength" : 39696,
            "byteOffset" : 79392
        },
        {
            "buffer" : 0,
            "byteLength" : 19848,
            "byteOffset" : 119088
        },
        {
            "buffer" : 0,
            "byteLength" : 39696,
            "byteOffset" : 138936
        },
        {
            "buffer" : 0,
            "byteLength" : 4962,
            "byteOffset" : 178632
        }
    ],
    "buffers" : [
        {
            "byteLength" : 183596,
            "uri" : "bisect-4-4-10.bin"
        }
    ]
}
