{
    "asset" : {
        "generator" : "Khronos glTF Blender I/O v1.1.46",
        "version" : "2.0"
    },
    "scene" : 0,
    "scenes" : [
        {
            "name" : "Scene",
            "nodes" : [
                0
            ]
        }
    ],
    "nodes" : [
        {
            "mesh" : 0,
            "name" : "bisect-8-5-12"
        }
    ],
    "materials" : [
        {
            "doubleSided" : true,
            "emissiveFactor" : [
                0,
                0,
                0
            ],
            "name" : "Material.003",
            "pbrMetallicRoughness" : {
                "metallicFactor" : 0,
                "roughnessFactor" : 0.5
            }
        }
    ],
    "meshes" : [
        {
            "name" : "bisect-8-5-12",
            "primitives" : [
                {
                    "attributes" : {
                        "POSITION" : 0,
                        "NORMAL" : 1,
                        "TEXCOORD_0" : 2,
                        "COLOR_0" : 3,
                        "JOINTS_0" : 4,
                        "WEIGHTS_0" : 5
                    },
                    "indices" : 6,
                    "material" : 0
                }
            ]
        }
    ],
    "accessors" : [
        {
            "bufferView" : 0,
            "componentType" : 5126,
            "count" : 354,
            "max" : [
                182,
                122,
                -242
            ],
            "min" : [
                162,
                115.03874969482422,
                -260.4792175292969
            ],
            "type" : "VEC3"
        },
        {
            "bufferView" : 1,
            "componentType" : 5126,
            "count" : 354,
            "type" : "VEC3"
        },
        {
            "bufferView" : 2,
            "componentType" : 5126,
            "count" : 354,
            "type" : "VEC2"
        },
        {
            "bufferView" : 3,
            "componentType" : 5126,
            "count" : 354,
            "type" : "VEC4"
        },
        {
            "bufferView" : 4,
            "componentType" : 5123,
            "count" : 354,
            "type" : "VEC4"
        },
        {
            "bufferView" : 5,
            "componentType" : 5126,
            "count" : 354,
            "type" : "VEC4"
        },
        {
            "bufferView" : 6,
            "componentType" : 5123,
            "count" : 354,
            "type" : "SCALAR"
        }
    ],
    "bufferViews" : [
        {
            "buffer" : 0,
            "byteLength" : 4248,
            "byteOffset" : 0
        },
        {
            "buffer" : 0,
            "byteLength" : 4248,
            "byteOffset" : 4248
        },
        {
            "buffer" : 0,
            "byteLength" : 2832,
            "byteOffset" : 8496
        },
        {
            "buffer" : 0,
            "byteLength" : 5664,
            "byteOffset" : 11328
        },
        {
            "buffer" : 0,
            "byteLength" : 2832,
            "byteOffset" : 16992
        },
        {
            "buffer" : 0,
            "byteLength" : 5664,
            "byteOffset" : 19824
        },
        {
            "buffer" : 0,
            "byteLength" : 708,
            "byteOffset" : 25488
        }
    ],
    "buffers" : [
        {
            "byteLength" : 26196,
            "uri" : "bisect-8-5-12.bin"
        }
    ]
}
