{
    "asset" : {
        "generator" : "Khronos glTF Blender I/O v1.1.46",
        "version" : "2.0"
    },
    "scene" : 0,
    "scenes" : [
        {
            "name" : "Scene",
            "nodes" : [
                0
            ]
        }
    ],
    "nodes" : [
        {
            "mesh" : 0,
            "name" : "bisect-5-5-10"
        }
    ],
    "materials" : [
        {
            "doubleSided" : true,
            "emissiveFactor" : [
                0,
                0,
                0
            ],
            "name" : "Material.003",
            "pbrMetallicRoughness" : {
                "metallicFactor" : 0,
                "roughnessFactor" : 0.5
            }
        }
    ],
    "meshes" : [
        {
            "name" : "bisect-5-5-10",
            "primitives" : [
                {
                    "attributes" : {
                        "POSITION" : 0,
                        "NORMAL" : 1,
                        "TEXCOORD_0" : 2,
                        "COLOR_0" : 3,
                        "JOINTS_0" : 4,
                        "WEIGHTS_0" : 5
                    },
                    "indices" : 6,
                    "material" : 0
                }
            ]
        }
    ],
    "accessors" : [
        {
            "bufferView" : 0,
            "componentType" : 5126,
            "count" : 8550,
            "max" : [
                122,
                122,
                -202
            ],
            "min" : [
                102,
                102,
                -222
            ],
            "type" : "VEC3"
        },
        {
            "bufferView" : 1,
            "componentType" : 5126,
            "count" : 8550,
            "type" : "VEC3"
        },
        {
            "bufferView" : 2,
            "componentType" : 5126,
            "count" : 8550,
            "type" : "VEC2"
        },
        {
            "bufferView" : 3,
            "componentType" : 5126,
            "count" : 8550,
            "type" : "VEC4"
        },
        {
            "bufferView" : 4,
            "componentType" : 5123,
            "count" : 8550,
            "type" : "VEC4"
        },
        {
            "bufferView" : 5,
            "componentType" : 5126,
            "count" : 8550,
            "type" : "VEC4"
        },
        {
            "bufferView" : 6,
            "componentType" : 5123,
            "count" : 8550,
            "type" : "SCALAR"
        }
    ],
    "bufferViews" : [
        {
            "buffer" : 0,
            "byteLength" : 102600,
            "byteOffset" : 0
        },
        {
            "buffer" : 0,
            "byteLength" : 102600,
            "byteOffset" : 102600
        },
        {
            "buffer" : 0,
            "byteLength" : 68400,
            "byteOffset" : 205200
        },
        {
            "buffer" : 0,
            "byteLength" : 136800,
            "byteOffset" : 273600
        },
        {
            "buffer" : 0,
            "byteLength" : 68400,
            "byteOffset" : 410400
        },
        {
            "buffer" : 0,
            "byteLength" : 136800,
            "byteOffset" : 478800
        },
        {
            "buffer" : 0,
            "byteLength" : 17100,
            "byteOffset" : 615600
        }
    ],
    "buffers" : [
        {
            "byteLength" : 632700,
            "uri" : "bisect-5-5-10.bin"
        }
    ]
}
