{
    "asset" : {
        "generator" : "Khronos glTF Blender I/O v1.1.46",
        "version" : "2.0"
    },
    "scene" : 0,
    "scenes" : [
        {
            "name" : "Scene",
            "nodes" : [
                0
            ]
        }
    ],
    "nodes" : [
        {
            "mesh" : 0,
            "name" : "bisect-7-4-6"
        }
    ],
    "materials" : [
        {
            "doubleSided" : true,
            "emissiveFactor" : [
                0,
                0,
                0
            ],
            "name" : "Material.003",
            "pbrMetallicRoughness" : {
                "metallicFactor" : 0,
                "roughnessFactor" : 0.5
            }
        }
    ],
    "meshes" : [
        {
            "name" : "bisect-7-4-6",
            "primitives" : [
                {
                    "attributes" : {
                        "POSITION" : 0,
                        "NORMAL" : 1,
                        "TEXCOORD_0" : 2,
                        "COLOR_0" : 3,
                        "JOINTS_0" : 4,
                        "WEIGHTS_0" : 5
                    },
                    "indices" : 6,
                    "material" : 0
                }
            ]
        }
    ],
    "accessors" : [
        {
            "bufferView" : 0,
            "componentType" : 5126,
            "count" : 2247,
            "max" : [
                161.39166259765625,
                96.8327865600586,
                -122
            ],
            "min" : [
                142,
                82,
                -142
            ],
            "type" : "VEC3"
        },
        {
            "bufferView" : 1,
            "componentType" : 5126,
            "count" : 2247,
            "type" : "VEC3"
        },
        {
            "bufferView" : 2,
            "componentType" : 5126,
            "count" : 2247,
            "type" : "VEC2"
        },
        {
            "bufferView" : 3,
            "componentType" : 5126,
            "count" : 2247,
            "type" : "VEC4"
        },
        {
            "bufferView" : 4,
            "componentType" : 5123,
            "count" : 2247,
            "type" : "VEC4"
        },
        {
            "bufferView" : 5,
            "componentType" : 5126,
            "count" : 2247,
            "type" : "VEC4"
        },
        {
            "bufferView" : 6,
            "componentType" : 5123,
            "count" : 2247,
            "type" : "SCALAR"
        }
    ],
    "bufferViews" : [
        {
            "buffer" : 0,
            "byteLength" : 26964,
            "byteOffset" : 0
        },
        {
            "buffer" : 0,
            "byteLength" : 26964,
            "byteOffset" : 26964
        },
        {
            "buffer" : 0,
            "byteLength" : 17976,
            "byteOffset" : 53928
        },
        {
            "buffer" : 0,
            "byteLength" : 35952,
            "byteOffset" : 71904
        },
        {
            "buffer" : 0,
            "byteLength" : 17976,
            "byteOffset" : 107856
        },
        {
            "buffer" : 0,
            "byteLength" : 35952,
            "byteOffset" : 125832
        },
        {
            "buffer" : 0,
            "byteLength" : 4494,
            "byteOffset" : 161784
        }
    ],
    "buffers" : [
        {
            "byteLength" : 166280,
            "uri" : "bisect-7-4-6.bin"
        }
    ]
}
