{
    "asset" : {
        "generator" : "Khronos glTF Blender I/O v1.1.46",
        "version" : "2.0"
    },
    "scene" : 0,
    "scenes" : [
        {
            "name" : "Scene",
            "nodes" : [
                0
            ]
        }
    ],
    "nodes" : [
        {
            "mesh" : 0,
            "name" : "bisect-6-5-11"
        }
    ],
    "materials" : [
        {
            "doubleSided" : true,
            "emissiveFactor" : [
                0,
                0,
                0
            ],
            "name" : "Material.003",
            "pbrMetallicRoughness" : {
                "metallicFactor" : 0,
                "roughnessFactor" : 0.5
            }
        }
    ],
    "meshes" : [
        {
            "name" : "bisect-6-5-11",
            "primitives" : [
                {
                    "attributes" : {
                        "POSITION" : 0,
                        "NORMAL" : 1,
                        "TEXCOORD_0" : 2,
                        "COLOR_0" : 3,
                        "JOINTS_0" : 4,
                        "WEIGHTS_0" : 5
                    },
                    "indices" : 6,
                    "material" : 0
                }
            ]
        }
    ],
    "accessors" : [
        {
            "bufferView" : 0,
            "componentType" : 5126,
            "count" : 624,
            "max" : [
                129.61883544921875,
                108.45901489257812,
                -222
            ],
            "min" : [
                122,
                102,
                -242
            ],
            "type" : "VEC3"
        },
        {
            "bufferView" : 1,
            "componentType" : 5126,
            "count" : 624,
            "type" : "VEC3"
        },
        {
            "bufferView" : 2,
            "componentType" : 5126,
            "count" : 624,
            "type" : "VEC2"
        },
        {
            "bufferView" : 3,
            "componentType" : 5126,
            "count" : 624,
            "type" : "VEC4"
        },
        {
            "bufferView" : 4,
            "componentType" : 5123,
            "count" : 624,
            "type" : "VEC4"
        },
        {
            "bufferView" : 5,
            "componentType" : 5126,
            "count" : 624,
            "type" : "VEC4"
        },
        {
            "bufferView" : 6,
            "componentType" : 5123,
            "count" : 624,
            "type" : "SCALAR"
        }
    ],
    "bufferViews" : [
        {
            "buffer" : 0,
            "byteLength" : 7488,
            "byteOffset" : 0
        },
        {
            "buffer" : 0,
            "byteLength" : 7488,
            "byteOffset" : 7488
        },
        {
            "buffer" : 0,
            "byteLength" : 4992,
            "byteOffset" : 14976
        },
        {
            "buffer" : 0,
            "byteLength" : 9984,
            "byteOffset" : 19968
        },
        {
            "buffer" : 0,
            "byteLength" : 4992,
            "byteOffset" : 29952
        },
        {
            "buffer" : 0,
            "byteLength" : 9984,
            "byteOffset" : 34944
        },
        {
            "buffer" : 0,
            "byteLength" : 1248,
            "byteOffset" : 44928
        }
    ],
    "buffers" : [
        {
            "byteLength" : 46176,
            "uri" : "bisect-6-5-11.bin"
        }
    ]
}
