{
    "asset" : {
        "generator" : "Khronos glTF Blender I/O v1.1.46",
        "version" : "2.0"
    },
    "scene" : 0,
    "scenes" : [
        {
            "name" : "Scene",
            "nodes" : [
                0
            ]
        }
    ],
    "nodes" : [
        {
            "mesh" : 0,
            "name" : "bisect-9-0-1"
        }
    ],
    "materials" : [
        {
            "doubleSided" : true,
            "emissiveFactor" : [
                0,
                0,
                0
            ],
            "name" : "Material.003",
            "pbrMetallicRoughness" : {
                "metallicFactor" : 0,
                "roughnessFactor" : 0.5
            }
        }
    ],
    "meshes" : [
        {
            "name" : "bisect-9-0-1",
            "primitives" : [
                {
                    "attributes" : {
                        "POSITION" : 0,
                        "NORMAL" : 1,
                        "TEXCOORD_0" : 2,
                        "COLOR_0" : 3,
                        "JOINTS_0" : 4,
                        "WEIGHTS_0" : 5
                    },
                    "indices" : 6,
                    "material" : 0
                }
            ]
        }
    ],
    "accessors" : [
        {
            "bufferView" : 0,
            "componentType" : 5126,
            "count" : 183,
            "max" : [
                194.1516571044922,
                22,
                -29.774702072143555
            ],
            "min" : [
                182,
                5.568848609924316,
                -42
            ],
            "type" : "VEC3"
        },
        {
            "bufferView" : 1,
            "componentType" : 5126,
            "count" : 183,
            "type" : "VEC3"
        },
        {
            "bufferView" : 2,
            "componentType" : 5126,
            "count" : 183,
            "type" : "VEC2"
        },
        {
            "bufferView" : 3,
            "componentType" : 5126,
            "count" : 183,
            "type" : "VEC4"
        },
        {
            "bufferView" : 4,
            "componentType" : 5123,
            "count" : 183,
            "type" : "VEC4"
        },
        {
            "bufferView" : 5,
            "componentType" : 5126,
            "count" : 183,
            "type" : "VEC4"
        },
        {
            "bufferView" : 6,
            "componentType" : 5123,
            "count" : 183,
            "type" : "SCALAR"
        }
    ],
    "bufferViews" : [
        {
            "buffer" : 0,
            "byteLength" : 2196,
            "byteOffset" : 0
        },
        {
            "buffer" : 0,
            "byteLength" : 2196,
            "byteOffset" : 2196
        },
        {
            "buffer" : 0,
            "byteLength" : 1464,
            "byteOffset" : 4392
        },
        {
            "buffer" : 0,
            "byteLength" : 2928,
            "byteOffset" : 5856
        },
        {
            "buffer" : 0,
            "byteLength" : 1464,
            "byteOffset" : 8784
        },
        {
            "buffer" : 0,
            "byteLength" : 2928,
            "byteOffset" : 10248
        },
        {
            "buffer" : 0,
            "byteLength" : 366,
            "byteOffset" : 13176
        }
    ],
    "buffers" : [
        {
            "byteLength" : 13544,
            "uri" : "bisect-9-0-1.bin"
        }
    ]
}
