{
    "asset" : {
        "generator" : "Khronos glTF Blender I/O v1.1.46",
        "version" : "2.0"
    },
    "scene" : 0,
    "scenes" : [
        {
            "name" : "Scene",
            "nodes" : [
                0
            ]
        }
    ],
    "nodes" : [
        {
            "mesh" : 0,
            "name" : "bisect-4-5-3"
        }
    ],
    "materials" : [
        {
            "doubleSided" : true,
            "emissiveFactor" : [
                0,
                0,
                0
            ],
            "name" : "Material.003",
            "pbrMetallicRoughness" : {
                "metallicFactor" : 0,
                "roughnessFactor" : 0.5
            }
        }
    ],
    "meshes" : [
        {
            "name" : "bisect-4-5-3",
            "primitives" : [
                {
                    "attributes" : {
                        "POSITION" : 0,
                        "NORMAL" : 1,
                        "TEXCOORD_0" : 2,
                        "COLOR_0" : 3,
                        "JOINTS_0" : 4,
                        "WEIGHTS_0" : 5
                    },
                    "indices" : 6,
                    "material" : 0
                }
            ]
        }
    ],
    "accessors" : [
        {
            "bufferView" : 0,
            "componentType" : 5126,
            "count" : 3558,
            "max" : [
                94.29285430908203,
                122,
                -62
            ],
            "min" : [
                82,
                102,
                -82
            ],
            "type" : "VEC3"
        },
        {
            "bufferView" : 1,
            "componentType" : 5126,
            "count" : 3558,
            "type" : "VEC3"
        },
        {
            "bufferView" : 2,
            "componentType" : 5126,
            "count" : 3558,
            "type" : "VEC2"
        },
        {
            "bufferView" : 3,
            "componentType" : 5126,
            "count" : 3558,
            "type" : "VEC4"
        },
        {
            "bufferView" : 4,
            "componentType" : 5123,
            "count" : 3558,
            "type" : "VEC4"
        },
        {
            "bufferView" : 5,
            "componentType" : 5126,
            "count" : 3558,
            "type" : "VEC4"
        },
        {
            "bufferView" : 6,
            "componentType" : 5123,
            "count" : 3558,
            "type" : "SCALAR"
        }
    ],
    "bufferViews" : [
        {
            "buffer" : 0,
            "byteLength" : 42696,
            "byteOffset" : 0
        },
        {
            "buffer" : 0,
            "byteLength" : 42696,
            "byteOffset" : 42696
        },
        {
            "buffer" : 0,
            "byteLength" : 28464,
            "byteOffset" : 85392
        },
        {
            "buffer" : 0,
            "byteLength" : 56928,
            "byteOffset" : 113856
        },
        {
            "buffer" : 0,
            "byteLength" : 28464,
            "byteOffset" : 170784
        },
        {
            "buffer" : 0,
            "byteLength" : 56928,
            "byteOffset" : 199248
        },
        {
            "buffer" : 0,
            "byteLength" : 7116,
            "byteOffset" : 256176
        }
    ],
    "buffers" : [
        {
            "byteLength" : 263292,
            "uri" : "bisect-4-5-3.bin"
        }
    ]
}
