{
    "asset" : {
        "generator" : "Khronos glTF Blender I/O v1.1.46",
        "version" : "2.0"
    },
    "scene" : 0,
    "scenes" : [
        {
            "name" : "Scene",
            "nodes" : [
                0
            ]
        }
    ],
    "nodes" : [
        {
            "mesh" : 0,
            "name" : "bisect-2-5-4"
        }
    ],
    "materials" : [
        {
            "doubleSided" : true,
            "emissiveFactor" : [
                0,
                0,
                0
            ],
            "name" : "Material.003",
            "pbrMetallicRoughness" : {
                "metallicFactor" : 0,
                "roughnessFactor" : 0.5
            }
        }
    ],
    "meshes" : [
        {
            "name" : "bisect-2-5-4",
            "primitives" : [
                {
                    "attributes" : {
                        "POSITION" : 0,
                        "NORMAL" : 1,
                        "TEXCOORD_0" : 2,
                        "COLOR_0" : 3,
                        "JOINTS_0" : 4,
                        "WEIGHTS_0" : 5
                    },
                    "indices" : 6,
                    "material" : 0
                }
            ]
        }
    ],
    "accessors" : [
        {
            "bufferView" : 0,
            "componentType" : 5126,
            "count" : 8628,
            "max" : [
                62,
                122,
                -82
            ],
            "min" : [
                42,
                102,
                -102
            ],
            "type" : "VEC3"
        },
        {
            "bufferView" : 1,
            "componentType" : 5126,
            "count" : 8628,
            "type" : "VEC3"
        },
        {
            "bufferView" : 2,
            "componentType" : 5126,
            "count" : 8628,
            "type" : "VEC2"
        },
        {
            "bufferView" : 3,
            "componentType" : 5126,
            "count" : 8628,
            "type" : "VEC4"
        },
        {
            "bufferView" : 4,
            "componentType" : 5123,
            "count" : 8628,
            "type" : "VEC4"
        },
        {
            "bufferView" : 5,
            "componentType" : 5126,
            "count" : 8628,
            "type" : "VEC4"
        },
        {
            "bufferView" : 6,
            "componentType" : 5123,
            "count" : 8628,
            "type" : "SCALAR"
        }
    ],
    "bufferViews" : [
        {
            "buffer" : 0,
            "byteLength" : 103536,
            "byteOffset" : 0
        },
        {
            "buffer" : 0,
            "byteLength" : 103536,
            "byteOffset" : 103536
        },
        {
            "buffer" : 0,
            "byteLength" : 69024,
            "byteOffset" : 207072
        },
        {
            "buffer" : 0,
            "byteLength" : 138048,
            "byteOffset" : 276096
        },
        {
            "buffer" : 0,
            "byteLength" : 69024,
            "byteOffset" : 414144
        },
        {
            "buffer" : 0,
            "byteLength" : 138048,
            "byteOffset" : 483168
        },
        {
            "buffer" : 0,
            "byteLength" : 17256,
            "byteOffset" : 621216
        }
    ],
    "buffers" : [
        {
            "byteLength" : 638472,
            "uri" : "bisect-2-5-4.bin"
        }
    ]
}
