{
    "asset" : {
        "generator" : "Khronos glTF Blender I/O v1.1.46",
        "version" : "2.0"
    },
    "scene" : 0,
    "scenes" : [
        {
            "name" : "Scene",
            "nodes" : [
                0
            ]
        }
    ],
    "nodes" : [
        {
            "mesh" : 0,
            "name" : "bisect-3-5-6"
        }
    ],
    "materials" : [
        {
            "doubleSided" : true,
            "emissiveFactor" : [
                0,
                0,
                0
            ],
            "name" : "Material.003",
            "pbrMetallicRoughness" : {
                "metallicFactor" : 0,
                "roughnessFactor" : 0.5
            }
        }
    ],
    "meshes" : [
        {
            "name" : "bisect-3-5-6",
            "primitives" : [
                {
                    "attributes" : {
                        "POSITION" : 0,
                        "NORMAL" : 1,
                        "TEXCOORD_0" : 2,
                        "COLOR_0" : 3,
                        "JOINTS_0" : 4,
                        "WEIGHTS_0" : 5
                    },
                    "indices" : 6,
                    "material" : 0
                }
            ]
        }
    ],
    "accessors" : [
        {
            "bufferView" : 0,
            "componentType" : 5126,
            "count" : 7722,
            "max" : [
                81.45623016357422,
                122,
                -122
            ],
            "min" : [
                62,
                102,
                -142
            ],
            "type" : "VEC3"
        },
        {
            "bufferView" : 1,
            "componentType" : 5126,
            "count" : 7722,
            "type" : "VEC3"
        },
        {
            "bufferView" : 2,
            "componentType" : 5126,
            "count" : 7722,
            "type" : "VEC2"
        },
        {
            "bufferView" : 3,
            "componentType" : 5126,
            "count" : 7722,
            "type" : "VEC4"
        },
        {
            "bufferView" : 4,
            "componentType" : 5123,
            "count" : 7722,
            "type" : "VEC4"
        },
        {
            "bufferView" : 5,
            "componentType" : 5126,
            "count" : 7722,
            "type" : "VEC4"
        },
        {
            "bufferView" : 6,
            "componentType" : 5123,
            "count" : 7722,
            "type" : "SCALAR"
        }
    ],
    "bufferViews" : [
        {
            "buffer" : 0,
            "byteLength" : 92664,
            "byteOffset" : 0
        },
        {
            "buffer" : 0,
            "byteLength" : 92664,
            "byteOffset" : 92664
        },
        {
            "buffer" : 0,
            "byteLength" : 61776,
            "byteOffset" : 185328
        },
        {
            "buffer" : 0,
            "byteLength" : 123552,
            "byteOffset" : 247104
        },
        {
            "buffer" : 0,
            "byteLength" : 61776,
            "byteOffset" : 370656
        },
        {
            "buffer" : 0,
            "byteLength" : 123552,
            "byteOffset" : 432432
        },
        {
            "buffer" : 0,
            "byteLength" : 15444,
            "byteOffset" : 555984
        }
    ],
    "buffers" : [
        {
            "byteLength" : 571428,
            "uri" : "bisect-3-5-6.bin"
        }
    ]
}
