{
    "asset" : {
        "generator" : "Khronos glTF Blender I/O v1.1.46",
        "version" : "2.0"
    },
    "scene" : 0,
    "scenes" : [
        {
            "name" : "Scene",
            "nodes" : [
                0
            ]
        }
    ],
    "nodes" : [
        {
            "mesh" : 0,
            "name" : "bisect-3-6-3"
        }
    ],
    "materials" : [
        {
            "doubleSided" : true,
            "emissiveFactor" : [
                0,
                0,
                0
            ],
            "name" : "Material.003",
            "pbrMetallicRoughness" : {
                "metallicFactor" : 0,
                "roughnessFactor" : 0.5
            }
        }
    ],
    "meshes" : [
        {
            "name" : "bisect-3-6-3",
            "primitives" : [
                {
                    "attributes" : {
                        "POSITION" : 0,
                        "NORMAL" : 1,
                        "TEXCOORD_0" : 2,
                        "COLOR_0" : 3,
                        "JOINTS_0" : 4,
                        "WEIGHTS_0" : 5
                    },
                    "indices" : 6,
                    "material" : 0
                }
            ]
        }
    ],
    "accessors" : [
        {
            "bufferView" : 0,
            "componentType" : 5126,
            "count" : 921,
            "max" : [
                82,
                122.56016540527344,
                -65.8138656616211
            ],
            "min" : [
                80.95055389404297,
                122,
                -67.34922790527344
            ],
            "type" : "VEC3"
        },
        {
            "bufferView" : 1,
            "componentType" : 5126,
            "count" : 921,
            "type" : "VEC3"
        },
        {
            "bufferView" : 2,
            "componentType" : 5126,
            "count" : 921,
            "type" : "VEC2"
        },
        {
            "bufferView" : 3,
            "componentType" : 5126,
            "count" : 921,
            "type" : "VEC4"
        },
        {
            "bufferView" : 4,
            "componentType" : 5123,
            "count" : 921,
            "type" : "VEC4"
        },
        {
            "bufferView" : 5,
            "componentType" : 5126,
            "count" : 921,
            "type" : "VEC4"
        },
        {
            "bufferView" : 6,
            "componentType" : 5123,
            "count" : 921,
            "type" : "SCALAR"
        }
    ],
    "bufferViews" : [
        {
            "buffer" : 0,
            "byteLength" : 11052,
            "byteOffset" : 0
        },
        {
            "buffer" : 0,
            "byteLength" : 11052,
            "byteOffset" : 11052
        },
        {
            "buffer" : 0,
            "byteLength" : 7368,
            "byteOffset" : 22104
        },
        {
            "buffer" : 0,
            "byteLength" : 14736,
            "byteOffset" : 29472
        },
        {
            "buffer" : 0,
            "byteLength" : 7368,
            "byteOffset" : 44208
        },
        {
            "buffer" : 0,
            "byteLength" : 14736,
            "byteOffset" : 51576
        },
        {
            "buffer" : 0,
            "byteLength" : 1842,
            "byteOffset" : 66312
        }
    ],
    "buffers" : [
        {
            "byteLength" : 68156,
            "uri" : "bisect-3-6-3.bin"
        }
    ]
}
