{
    "asset" : {
        "generator" : "Khronos glTF Blender I/O v1.1.46",
        "version" : "2.0"
    },
    "scene" : 0,
    "scenes" : [
        {
            "name" : "Scene",
            "nodes" : [
                0
            ]
        }
    ],
    "nodes" : [
        {
            "mesh" : 0,
            "name" : "bisect-4-4-6"
        }
    ],
    "materials" : [
        {
            "doubleSided" : true,
            "emissiveFactor" : [
                0,
                0,
                0
            ],
            "name" : "Material.003",
            "pbrMetallicRoughness" : {
                "metallicFactor" : 0,
                "roughnessFactor" : 0.5
            }
        }
    ],
    "meshes" : [
        {
            "name" : "bisect-4-4-6",
            "primitives" : [
                {
                    "attributes" : {
                        "POSITION" : 0,
                        "NORMAL" : 1,
                        "TEXCOORD_0" : 2,
                        "COLOR_0" : 3,
                        "JOINTS_0" : 4,
                        "WEIGHTS_0" : 5
                    },
                    "indices" : 6,
                    "material" : 0
                }
            ]
        }
    ],
    "accessors" : [
        {
            "bufferView" : 0,
            "componentType" : 5126,
            "count" : 2079,
            "max" : [
                102,
                101.5776596069336,
                -122
            ],
            "min" : [
                82,
                82,
                -142
            ],
            "type" : "VEC3"
        },
        {
            "bufferView" : 1,
            "componentType" : 5126,
            "count" : 2079,
            "type" : "VEC3"
        },
        {
            "bufferView" : 2,
            "componentType" : 5126,
            "count" : 2079,
            "type" : "VEC2"
        },
        {
            "bufferView" : 3,
            "componentType" : 5126,
            "count" : 2079,
            "type" : "VEC4"
        },
        {
            "bufferView" : 4,
            "componentType" : 5123,
            "count" : 2079,
            "type" : "VEC4"
        },
        {
            "bufferView" : 5,
            "componentType" : 5126,
            "count" : 2079,
            "type" : "VEC4"
        },
        {
            "bufferView" : 6,
            "componentType" : 5123,
            "count" : 2079,
            "type" : "SCALAR"
        }
    ],
    "bufferViews" : [
        {
            "buffer" : 0,
            "byteLength" : 24948,
            "byteOffset" : 0
        },
        {
            "buffer" : 0,
            "byteLength" : 24948,
            "byteOffset" : 24948
        },
        {
            "buffer" : 0,
            "byteLength" : 16632,
            "byteOffset" : 49896
        },
        {
            "buffer" : 0,
            "byteLength" : 33264,
            "byteOffset" : 66528
        },
        {
            "buffer" : 0,
            "byteLength" : 16632,
            "byteOffset" : 99792
        },
        {
            "buffer" : 0,
            "byteLength" : 33264,
            "byteOffset" : 116424
        },
        {
            "buffer" : 0,
            "byteLength" : 4158,
            "byteOffset" : 149688
        }
    ],
    "buffers" : [
        {
            "byteLength" : 153848,
            "uri" : "bisect-4-4-6.bin"
        }
    ]
}
