{
    "asset" : {
        "generator" : "Khronos glTF Blender I/O v1.1.46",
        "version" : "2.0"
    },
    "scene" : 0,
    "scenes" : [
        {
            "name" : "Scene",
            "nodes" : [
                0
            ]
        }
    ],
    "nodes" : [
        {
            "mesh" : 0,
            "name" : "bisect-5-3-1"
        }
    ],
    "materials" : [
        {
            "doubleSided" : true,
            "emissiveFactor" : [
                0,
                0,
                0
            ],
            "name" : "Material.003",
            "pbrMetallicRoughness" : {
                "metallicFactor" : 0,
                "roughnessFactor" : 0.5
            }
        }
    ],
    "meshes" : [
        {
            "name" : "bisect-5-3-1",
            "primitives" : [
                {
                    "attributes" : {
                        "POSITION" : 0,
                        "NORMAL" : 1,
                        "TEXCOORD_0" : 2,
                        "COLOR_0" : 3,
                        "JOINTS_0" : 4,
                        "WEIGHTS_0" : 5
                    },
                    "indices" : 6,
                    "material" : 0
                }
            ]
        }
    ],
    "accessors" : [
        {
            "bufferView" : 0,
            "componentType" : 5126,
            "count" : 273,
            "max" : [
                122,
                82,
                -27.192764282226562
            ],
            "min" : [
                102,
                62,
                -42
            ],
            "type" : "VEC3"
        },
        {
            "bufferView" : 1,
            "componentType" : 5126,
            "count" : 273,
            "type" : "VEC3"
        },
        {
            "bufferView" : 2,
            "componentType" : 5126,
            "count" : 273,
            "type" : "VEC2"
        },
        {
            "bufferView" : 3,
            "componentType" : 5126,
            "count" : 273,
            "type" : "VEC4"
        },
        {
            "bufferView" : 4,
            "componentType" : 5123,
            "count" : 273,
            "type" : "VEC4"
        },
        {
            "bufferView" : 5,
            "componentType" : 5126,
            "count" : 273,
            "type" : "VEC4"
        },
        {
            "bufferView" : 6,
            "componentType" : 5123,
            "count" : 273,
            "type" : "SCALAR"
        }
    ],
    "bufferViews" : [
        {
            "buffer" : 0,
            "byteLength" : 3276,
            "byteOffset" : 0
        },
        {
            "buffer" : 0,
            "byteLength" : 3276,
            "byteOffset" : 3276
        },
        {
            "buffer" : 0,
            "byteLength" : 2184,
            "byteOffset" : 6552
        },
        {
            "buffer" : 0,
            "byteLength" : 4368,
            "byteOffset" : 8736
        },
        {
            "buffer" : 0,
            "byteLength" : 2184,
            "byteOffset" : 13104
        },
        {
            "buffer" : 0,
            "byteLength" : 4368,
            "byteOffset" : 15288
        },
        {
            "buffer" : 0,
            "byteLength" : 546,
            "byteOffset" : 19656
        }
    ],
    "buffers" : [
        {
            "byteLength" : 20204,
            "uri" : "bisect-5-3-1.bin"
        }
    ]
}
