{
    "asset" : {
        "generator" : "Khronos glTF Blender I/O v1.1.46",
        "version" : "2.0"
    },
    "scene" : 0,
    "scenes" : [
        {
            "name" : "Scene",
            "nodes" : [
                0
            ]
        }
    ],
    "nodes" : [
        {
            "mesh" : 0,
            "name" : "bisect-3-4-8"
        }
    ],
    "materials" : [
        {
            "doubleSided" : true,
            "emissiveFactor" : [
                0,
                0,
                0
            ],
            "name" : "Material.003",
            "pbrMetallicRoughness" : {
                "metallicFactor" : 0,
                "roughnessFactor" : 0.5
            }
        }
    ],
    "meshes" : [
        {
            "name" : "bisect-3-4-8",
            "primitives" : [
                {
                    "attributes" : {
                        "POSITION" : 0,
                        "NORMAL" : 1,
                        "TEXCOORD_0" : 2,
                        "COLOR_0" : 3,
                        "JOINTS_0" : 4,
                        "WEIGHTS_0" : 5
                    },
                    "indices" : 6,
                    "material" : 0
                }
            ]
        }
    ],
    "accessors" : [
        {
            "bufferView" : 0,
            "componentType" : 5126,
            "count" : 747,
            "max" : [
                82,
                102,
                -162
            ],
            "min" : [
                62,
                91.49009704589844,
                -182
            ],
            "type" : "VEC3"
        },
        {
            "bufferView" : 1,
            "componentType" : 5126,
            "count" : 747,
            "type" : "VEC3"
        },
        {
            "bufferView" : 2,
            "componentType" : 5126,
            "count" : 747,
            "type" : "VEC2"
        },
        {
            "bufferView" : 3,
            "componentType" : 5126,
            "count" : 747,
            "type" : "VEC4"
        },
        {
            "bufferView" : 4,
            "componentType" : 5123,
            "count" : 747,
            "type" : "VEC4"
        },
        {
            "bufferView" : 5,
            "componentType" : 5126,
            "count" : 747,
            "type" : "VEC4"
        },
        {
            "bufferView" : 6,
            "componentType" : 5123,
            "count" : 747,
            "type" : "SCALAR"
        }
    ],
    "bufferViews" : [
        {
            "buffer" : 0,
            "byteLength" : 8964,
            "byteOffset" : 0
        },
        {
            "buffer" : 0,
            "byteLength" : 8964,
            "byteOffset" : 8964
        },
        {
            "buffer" : 0,
            "byteLength" : 5976,
            "byteOffset" : 17928
        },
        {
            "buffer" : 0,
            "byteLength" : 11952,
            "byteOffset" : 23904
        },
        {
            "buffer" : 0,
            "byteLength" : 5976,
            "byteOffset" : 35856
        },
        {
            "buffer" : 0,
            "byteLength" : 11952,
            "byteOffset" : 41832
        },
        {
            "buffer" : 0,
            "byteLength" : 1494,
            "byteOffset" : 53784
        }
    ],
    "buffers" : [
        {
            "byteLength" : 55280,
            "uri" : "bisect-3-4-8.bin"
        }
    ]
}
