{
    "asset" : {
        "generator" : "Khronos glTF Blender I/O v1.1.46",
        "version" : "2.0"
    },
    "scene" : 0,
    "scenes" : [
        {
            "name" : "Scene",
            "nodes" : [
                0
            ]
        }
    ],
    "nodes" : [
        {
            "mesh" : 0,
            "name" : "bisect-4-5-10"
        }
    ],
    "materials" : [
        {
            "doubleSided" : true,
            "emissiveFactor" : [
                0,
                0,
                0
            ],
            "name" : "Material.003",
            "pbrMetallicRoughness" : {
                "metallicFactor" : 0,
                "roughnessFactor" : 0.5
            }
        }
    ],
    "meshes" : [
        {
            "name" : "bisect-4-5-10",
            "primitives" : [
                {
                    "attributes" : {
                        "POSITION" : 0,
                        "NORMAL" : 1,
                        "TEXCOORD_0" : 2,
                        "COLOR_0" : 3,
                        "JOINTS_0" : 4,
                        "WEIGHTS_0" : 5
                    },
                    "indices" : 6,
                    "material" : 0
                }
            ]
        }
    ],
    "accessors" : [
        {
            "bufferView" : 0,
            "componentType" : 5126,
            "count" : 2061,
            "max" : [
                102,
                122,
                -202
            ],
            "min" : [
                82,
                102,
                -222
            ],
            "type" : "VEC3"
        },
        {
            "bufferView" : 1,
            "componentType" : 5126,
            "count" : 2061,
            "type" : "VEC3"
        },
        {
            "bufferView" : 2,
            "componentType" : 5126,
            "count" : 2061,
            "type" : "VEC2"
        },
        {
            "bufferView" : 3,
            "componentType" : 5126,
            "count" : 2061,
            "type" : "VEC4"
        },
        {
            "bufferView" : 4,
            "componentType" : 5123,
            "count" : 2061,
            "type" : "VEC4"
        },
        {
            "bufferView" : 5,
            "componentType" : 5126,
            "count" : 2061,
            "type" : "VEC4"
        },
        {
            "bufferView" : 6,
            "componentType" : 5123,
            "count" : 2061,
            "type" : "SCALAR"
        }
    ],
    "bufferViews" : [
        {
            "buffer" : 0,
            "byteLength" : 24732,
            "byteOffset" : 0
        },
        {
            "buffer" : 0,
            "byteLength" : 24732,
            "byteOffset" : 24732
        },
        {
            "buffer" : 0,
            "byteLength" : 16488,
            "byteOffset" : 49464
        },
        {
            "buffer" : 0,
            "byteLength" : 32976,
            "byteOffset" : 65952
        },
        {
            "buffer" : 0,
            "byteLength" : 16488,
            "byteOffset" : 98928
        },
        {
            "buffer" : 0,
            "byteLength" : 32976,
            "byteOffset" : 115416
        },
        {
            "buffer" : 0,
            "byteLength" : 4122,
            "byteOffset" : 148392
        }
    ],
    "buffers" : [
        {
            "byteLength" : 152516,
            "uri" : "bisect-4-5-10.bin"
        }
    ]
}
