{
    "asset" : {
        "generator" : "Khronos glTF Blender I/O v1.1.46",
        "version" : "2.0"
    },
    "scene" : 0,
    "scenes" : [
        {
            "name" : "Scene",
            "nodes" : [
                0
            ]
        }
    ],
    "nodes" : [
        {
            "mesh" : 0,
            "name" : "bisect-3-4-6"
        }
    ],
    "materials" : [
        {
            "doubleSided" : true,
            "emissiveFactor" : [
                0,
                0,
                0
            ],
            "name" : "Material.003",
            "pbrMetallicRoughness" : {
                "metallicFactor" : 0,
                "roughnessFactor" : 0.5
            }
        }
    ],
    "meshes" : [
        {
            "name" : "bisect-3-4-6",
            "primitives" : [
                {
                    "attributes" : {
                        "POSITION" : 0,
                        "NORMAL" : 1,
                        "TEXCOORD_0" : 2,
                        "COLOR_0" : 3,
                        "JOINTS_0" : 4,
                        "WEIGHTS_0" : 5
                    },
                    "indices" : 6,
                    "material" : 0
                }
            ]
        }
    ],
    "accessors" : [
        {
            "bufferView" : 0,
            "componentType" : 5126,
            "count" : 1056,
            "max" : [
                82,
                102,
                -122
            ],
            "min" : [
                63.2054443359375,
                93.98963928222656,
                -142
            ],
            "type" : "VEC3"
        },
        {
            "bufferView" : 1,
            "componentType" : 5126,
            "count" : 1056,
            "type" : "VEC3"
        },
        {
            "bufferView" : 2,
            "componentType" : 5126,
            "count" : 1056,
            "type" : "VEC2"
        },
        {
            "bufferView" : 3,
            "componentType" : 5126,
            "count" : 1056,
            "type" : "VEC4"
        },
        {
            "bufferView" : 4,
            "componentType" : 5123,
            "count" : 1056,
            "type" : "VEC4"
        },
        {
            "bufferView" : 5,
            "componentType" : 5126,
            "count" : 1056,
            "type" : "VEC4"
        },
        {
            "bufferView" : 6,
            "componentType" : 5123,
            "count" : 1056,
            "type" : "SCALAR"
        }
    ],
    "bufferViews" : [
        {
            "buffer" : 0,
            "byteLength" : 12672,
            "byteOffset" : 0
        },
        {
            "buffer" : 0,
            "byteLength" : 12672,
            "byteOffset" : 12672
        },
        {
            "buffer" : 0,
            "byteLength" : 8448,
            "byteOffset" : 25344
        },
        {
            "buffer" : 0,
            "byteLength" : 16896,
            "byteOffset" : 33792
        },
        {
            "buffer" : 0,
            "byteLength" : 8448,
            "byteOffset" : 50688
        },
        {
            "buffer" : 0,
            "byteLength" : 16896,
            "byteOffset" : 59136
        },
        {
            "buffer" : 0,
            "byteLength" : 2112,
            "byteOffset" : 76032
        }
    ],
    "buffers" : [
        {
            "byteLength" : 78144,
            "uri" : "bisect-3-4-6.bin"
        }
    ]
}
