{
    "asset" : {
        "generator" : "Khronos glTF Blender I/O v1.1.46",
        "version" : "2.0"
    },
    "scene" : 0,
    "scenes" : [
        {
            "name" : "Scene",
            "nodes" : [
                0
            ]
        }
    ],
    "nodes" : [
        {
            "mesh" : 0,
            "name" : "bisect-2-5-10"
        }
    ],
    "materials" : [
        {
            "doubleSided" : true,
            "emissiveFactor" : [
                0,
                0,
                0
            ],
            "name" : "Material.003",
            "pbrMetallicRoughness" : {
                "metallicFactor" : 0,
                "roughnessFactor" : 0.5
            }
        }
    ],
    "meshes" : [
        {
            "name" : "bisect-2-5-10",
            "primitives" : [
                {
                    "attributes" : {
                        "POSITION" : 0,
                        "NORMAL" : 1,
                        "TEXCOORD_0" : 2,
                        "COLOR_0" : 3,
                        "JOINTS_0" : 4,
                        "WEIGHTS_0" : 5
                    },
                    "indices" : 6,
                    "material" : 0
                }
            ]
        }
    ],
    "accessors" : [
        {
            "bufferView" : 0,
            "componentType" : 5126,
            "count" : 903,
            "max" : [
                62,
                114.18385314941406,
                -204.6767120361328
            ],
            "min" : [
                42,
                102,
                -222
            ],
            "type" : "VEC3"
        },
        {
            "bufferView" : 1,
            "componentType" : 5126,
            "count" : 903,
            "type" : "VEC3"
        },
        {
            "bufferView" : 2,
            "componentType" : 5126,
            "count" : 903,
            "type" : "VEC2"
        },
        {
            "bufferView" : 3,
            "componentType" : 5126,
            "count" : 903,
            "type" : "VEC4"
        },
        {
            "bufferView" : 4,
            "componentType" : 5123,
            "count" : 903,
            "type" : "VEC4"
        },
        {
            "bufferView" : 5,
            "componentType" : 5126,
            "count" : 903,
            "type" : "VEC4"
        },
        {
            "bufferView" : 6,
            "componentType" : 5123,
            "count" : 903,
            "type" : "SCALAR"
        }
    ],
    "bufferViews" : [
        {
            "buffer" : 0,
            "byteLength" : 10836,
            "byteOffset" : 0
        },
        {
            "buffer" : 0,
            "byteLength" : 10836,
            "byteOffset" : 10836
        },
        {
            "buffer" : 0,
            "byteLength" : 7224,
            "byteOffset" : 21672
        },
        {
            "buffer" : 0,
            "byteLength" : 14448,
            "byteOffset" : 28896
        },
        {
            "buffer" : 0,
            "byteLength" : 7224,
            "byteOffset" : 43344
        },
        {
            "buffer" : 0,
            "byteLength" : 14448,
            "byteOffset" : 50568
        },
        {
            "buffer" : 0,
            "byteLength" : 1806,
            "byteOffset" : 65016
        }
    ],
    "buffers" : [
        {
            "byteLength" : 66824,
            "uri" : "bisect-2-5-10.bin"
        }
    ]
}
