{
    "asset" : {
        "generator" : "Khronos glTF Blender I/O v1.1.46",
        "version" : "2.0"
    },
    "scene" : 0,
    "scenes" : [
        {
            "name" : "Scene",
            "nodes" : [
                0
            ]
        }
    ],
    "nodes" : [
        {
            "mesh" : 0,
            "name" : "bisect-4-5-0"
        }
    ],
    "materials" : [
        {
            "doubleSided" : true,
            "emissiveFactor" : [
                0,
                0,
                0
            ],
            "name" : "Material.003",
            "pbrMetallicRoughness" : {
                "metallicFactor" : 0,
                "roughnessFactor" : 0.5
            }
        }
    ],
    "meshes" : [
        {
            "name" : "bisect-4-5-0",
            "primitives" : [
                {
                    "attributes" : {
                        "POSITION" : 0,
                        "NORMAL" : 1,
                        "TEXCOORD_0" : 2,
                        "COLOR_0" : 3,
                        "JOINTS_0" : 4,
                        "WEIGHTS_0" : 5
                    },
                    "indices" : 6,
                    "material" : 0
                }
            ]
        }
    ],
    "accessors" : [
        {
            "bufferView" : 0,
            "componentType" : 5126,
            "count" : 501,
            "max" : [
                100.5608139038086,
                110.71964263916016,
                -9.394021987915039
            ],
            "min" : [
                82,
                102,
                -22
            ],
            "type" : "VEC3"
        },
        {
            "bufferView" : 1,
            "componentType" : 5126,
            "count" : 501,
            "type" : "VEC3"
        },
        {
            "bufferView" : 2,
            "componentType" : 5126,
            "count" : 501,
            "type" : "VEC2"
        },
        {
            "bufferView" : 3,
            "componentType" : 5126,
            "count" : 501,
            "type" : "VEC4"
        },
        {
            "bufferView" : 4,
            "componentType" : 5123,
            "count" : 501,
            "type" : "VEC4"
        },
        {
            "bufferView" : 5,
            "componentType" : 5126,
            "count" : 501,
            "type" : "VEC4"
        },
        {
            "bufferView" : 6,
            "componentType" : 5123,
            "count" : 501,
            "type" : "SCALAR"
        }
    ],
    "bufferViews" : [
        {
            "buffer" : 0,
            "byteLength" : 6012,
            "byteOffset" : 0
        },
        {
            "buffer" : 0,
            "byteLength" : 6012,
            "byteOffset" : 6012
        },
        {
            "buffer" : 0,
            "byteLength" : 4008,
            "byteOffset" : 12024
        },
        {
            "buffer" : 0,
            "byteLength" : 8016,
            "byteOffset" : 16032
        },
        {
            "buffer" : 0,
            "byteLength" : 4008,
            "byteOffset" : 24048
        },
        {
            "buffer" : 0,
            "byteLength" : 8016,
            "byteOffset" : 28056
        },
        {
            "buffer" : 0,
            "byteLength" : 1002,
            "byteOffset" : 36072
        }
    ],
    "buffers" : [
        {
            "byteLength" : 37076,
            "uri" : "bisect-4-5-0.bin"
        }
    ]
}
