{
    "asset" : {
        "generator" : "Khronos glTF Blender I/O v1.1.46",
        "version" : "2.0"
    },
    "scene" : 0,
    "scenes" : [
        {
            "name" : "Scene",
            "nodes" : [
                0
            ]
        }
    ],
    "nodes" : [
        {
            "mesh" : 0,
            "name" : "bisect-3-5-5"
        }
    ],
    "materials" : [
        {
            "doubleSided" : true,
            "emissiveFactor" : [
                0,
                0,
                0
            ],
            "name" : "Material.003",
            "pbrMetallicRoughness" : {
                "metallicFactor" : 0,
                "roughnessFactor" : 0.5
            }
        }
    ],
    "meshes" : [
        {
            "name" : "bisect-3-5-5",
            "primitives" : [
                {
                    "attributes" : {
                        "POSITION" : 0,
                        "NORMAL" : 1,
                        "TEXCOORD_0" : 2,
                        "COLOR_0" : 3,
                        "JOINTS_0" : 4,
                        "WEIGHTS_0" : 5
                    },
                    "indices" : 6,
                    "material" : 0
                }
            ]
        }
    ],
    "accessors" : [
        {
            "bufferView" : 0,
            "componentType" : 5126,
            "count" : 8025,
            "max" : [
                73.12185668945312,
                122,
                -102
            ],
            "min" : [
                62,
                102,
                -122
            ],
            "type" : "VEC3"
        },
        {
            "bufferView" : 1,
            "componentType" : 5126,
            "count" : 8025,
            "type" : "VEC3"
        },
        {
            "bufferView" : 2,
            "componentType" : 5126,
            "count" : 8025,
            "type" : "VEC2"
        },
        {
            "bufferView" : 3,
            "componentType" : 5126,
            "count" : 8025,
            "type" : "VEC4"
        },
        {
            "bufferView" : 4,
            "componentType" : 5123,
            "count" : 8025,
            "type" : "VEC4"
        },
        {
            "bufferView" : 5,
            "componentType" : 5126,
            "count" : 8025,
            "type" : "VEC4"
        },
        {
            "bufferView" : 6,
            "componentType" : 5123,
            "count" : 8025,
            "type" : "SCALAR"
        }
    ],
    "bufferViews" : [
        {
            "buffer" : 0,
            "byteLength" : 96300,
            "byteOffset" : 0
        },
        {
            "buffer" : 0,
            "byteLength" : 96300,
            "byteOffset" : 96300
        },
        {
            "buffer" : 0,
            "byteLength" : 64200,
            "byteOffset" : 192600
        },
        {
            "buffer" : 0,
            "byteLength" : 128400,
            "byteOffset" : 256800
        },
        {
            "buffer" : 0,
            "byteLength" : 64200,
            "byteOffset" : 385200
        },
        {
            "buffer" : 0,
            "byteLength" : 128400,
            "byteOffset" : 449400
        },
        {
            "buffer" : 0,
            "byteLength" : 16050,
            "byteOffset" : 577800
        }
    ],
    "buffers" : [
        {
            "byteLength" : 593852,
            "uri" : "bisect-3-5-5.bin"
        }
    ]
}
