{
    "asset" : {
        "generator" : "Khronos glTF Blender I/O v1.1.46",
        "version" : "2.0"
    },
    "scene" : 0,
    "scenes" : [
        {
            "name" : "Scene",
            "nodes" : [
                0
            ]
        }
    ],
    "nodes" : [
        {
            "mesh" : 0,
            "name" : "bisect-7-1-4"
        }
    ],
    "materials" : [
        {
            "doubleSided" : true,
            "emissiveFactor" : [
                0,
                0,
                0
            ],
            "name" : "Material.003",
            "pbrMetallicRoughness" : {
                "metallicFactor" : 0,
                "roughnessFactor" : 0.5
            }
        }
    ],
    "meshes" : [
        {
            "name" : "bisect-7-1-4",
            "primitives" : [
                {
                    "attributes" : {
                        "POSITION" : 0,
                        "NORMAL" : 1,
                        "TEXCOORD_0" : 2,
                        "COLOR_0" : 3,
                        "JOINTS_0" : 4,
                        "WEIGHTS_0" : 5
                    },
                    "indices" : 6,
                    "material" : 0
                }
            ]
        }
    ],
    "accessors" : [
        {
            "bufferView" : 0,
            "componentType" : 5126,
            "count" : 564,
            "max" : [
                162,
                42,
                -88.8499984741211
            ],
            "min" : [
                142,
                26.707956314086914,
                -102
            ],
            "type" : "VEC3"
        },
        {
            "bufferView" : 1,
            "componentType" : 5126,
            "count" : 564,
            "type" : "VEC3"
        },
        {
            "bufferView" : 2,
            "componentType" : 5126,
            "count" : 564,
            "type" : "VEC2"
        },
        {
            "bufferView" : 3,
            "componentType" : 5126,
            "count" : 564,
            "type" : "VEC4"
        },
        {
            "bufferView" : 4,
            "componentType" : 5123,
            "count" : 564,
            "type" : "VEC4"
        },
        {
            "bufferView" : 5,
            "componentType" : 5126,
            "count" : 564,
            "type" : "VEC4"
        },
        {
            "bufferView" : 6,
            "componentType" : 5123,
            "count" : 564,
            "type" : "SCALAR"
        }
    ],
    "bufferViews" : [
        {
            "buffer" : 0,
            "byteLength" : 6768,
            "byteOffset" : 0
        },
        {
            "buffer" : 0,
            "byteLength" : 6768,
            "byteOffset" : 6768
        },
        {
            "buffer" : 0,
            "byteLength" : 4512,
            "byteOffset" : 13536
        },
        {
            "buffer" : 0,
            "byteLength" : 9024,
            "byteOffset" : 18048
        },
        {
            "buffer" : 0,
            "byteLength" : 4512,
            "byteOffset" : 27072
        },
        {
            "buffer" : 0,
            "byteLength" : 9024,
            "byteOffset" : 31584
        },
        {
            "buffer" : 0,
            "byteLength" : 1128,
            "byteOffset" : 40608
        }
    ],
    "buffers" : [
        {
            "byteLength" : 41736,
            "uri" : "bisect-7-1-4.bin"
        }
    ]
}
