{
    "asset" : {
        "generator" : "Khronos glTF Blender I/O v1.1.46",
        "version" : "2.0"
    },
    "scene" : 0,
    "scenes" : [
        {
            "name" : "Scene",
            "nodes" : [
                0
            ]
        }
    ],
    "nodes" : [
        {
            "mesh" : 0,
            "name" : "bisect-4-4-3"
        }
    ],
    "materials" : [
        {
            "doubleSided" : true,
            "emissiveFactor" : [
                0,
                0,
                0
            ],
            "name" : "Material.003",
            "pbrMetallicRoughness" : {
                "metallicFactor" : 0,
                "roughnessFactor" : 0.5
            }
        }
    ],
    "meshes" : [
        {
            "name" : "bisect-4-4-3",
            "primitives" : [
                {
                    "attributes" : {
                        "POSITION" : 0,
                        "NORMAL" : 1,
                        "TEXCOORD_0" : 2,
                        "COLOR_0" : 3,
                        "JOINTS_0" : 4,
                        "WEIGHTS_0" : 5
                    },
                    "indices" : 6,
                    "material" : 0
                }
            ]
        }
    ],
    "accessors" : [
        {
            "bufferView" : 0,
            "componentType" : 5126,
            "count" : 1116,
            "max" : [
                93.20108795166016,
                102,
                -68.06980895996094
            ],
            "min" : [
                82,
                82,
                -82
            ],
            "type" : "VEC3"
        },
        {
            "bufferView" : 1,
            "componentType" : 5126,
            "count" : 1116,
            "type" : "VEC3"
        },
        {
            "bufferView" : 2,
            "componentType" : 5126,
            "count" : 1116,
            "type" : "VEC2"
        },
        {
            "bufferView" : 3,
            "componentType" : 5126,
            "count" : 1116,
            "type" : "VEC4"
        },
        {
            "bufferView" : 4,
            "componentType" : 5123,
            "count" : 1116,
            "type" : "VEC4"
        },
        {
            "bufferView" : 5,
            "componentType" : 5126,
            "count" : 1116,
            "type" : "VEC4"
        },
        {
            "bufferView" : 6,
            "componentType" : 5123,
            "count" : 1116,
            "type" : "SCALAR"
        }
    ],
    "bufferViews" : [
        {
            "buffer" : 0,
            "byteLength" : 13392,
            "byteOffset" : 0
        },
        {
            "buffer" : 0,
            "byteLength" : 13392,
            "byteOffset" : 13392
        },
        {
            "buffer" : 0,
            "byteLength" : 8928,
            "byteOffset" : 26784
        },
        {
            "buffer" : 0,
            "byteLength" : 17856,
            "byteOffset" : 35712
        },
        {
            "buffer" : 0,
            "byteLength" : 8928,
            "byteOffset" : 53568
        },
        {
            "buffer" : 0,
            "byteLength" : 17856,
            "byteOffset" : 62496
        },
        {
            "buffer" : 0,
            "byteLength" : 2232,
            "byteOffset" : 80352
        }
    ],
    "buffers" : [
        {
            "byteLength" : 82584,
            "uri" : "bisect-4-4-3.bin"
        }
    ]
}
