{
    "asset" : {
        "generator" : "Khronos glTF Blender I/O v1.1.46",
        "version" : "2.0"
    },
    "scene" : 0,
    "scenes" : [
        {
            "name" : "Scene",
            "nodes" : [
                0
            ]
        }
    ],
    "nodes" : [
        {
            "mesh" : 0,
            "name" : "bisect-2-6-6"
        }
    ],
    "materials" : [
        {
            "doubleSided" : true,
            "emissiveFactor" : [
                0,
                0,
                0
            ],
            "name" : "Material.003",
            "pbrMetallicRoughness" : {
                "metallicFactor" : 0,
                "roughnessFactor" : 0.5
            }
        }
    ],
    "meshes" : [
        {
            "name" : "bisect-2-6-6",
            "primitives" : [
                {
                    "attributes" : {
                        "POSITION" : 0,
                        "NORMAL" : 1,
                        "TEXCOORD_0" : 2,
                        "COLOR_0" : 3,
                        "JOINTS_0" : 4,
                        "WEIGHTS_0" : 5
                    },
                    "indices" : 6,
                    "material" : 0
                }
            ]
        }
    ],
    "accessors" : [
        {
            "bufferView" : 0,
            "componentType" : 5126,
            "count" : 6630,
            "max" : [
                61.87400817871094,
                126.4371337890625,
                -122
            ],
            "min" : [
                42,
                122,
                -142
            ],
            "type" : "VEC3"
        },
        {
            "bufferView" : 1,
            "componentType" : 5126,
            "count" : 6630,
            "type" : "VEC3"
        },
        {
            "bufferView" : 2,
            "componentType" : 5126,
            "count" : 6630,
            "type" : "VEC2"
        },
        {
            "bufferView" : 3,
            "componentType" : 5126,
            "count" : 6630,
            "type" : "VEC4"
        },
        {
            "bufferView" : 4,
            "componentType" : 5123,
            "count" : 6630,
            "type" : "VEC4"
        },
        {
            "bufferView" : 5,
            "componentType" : 5126,
            "count" : 6630,
            "type" : "VEC4"
        },
        {
            "bufferView" : 6,
            "componentType" : 5123,
            "count" : 6630,
            "type" : "SCALAR"
        }
    ],
    "bufferViews" : [
        {
            "buffer" : 0,
            "byteLength" : 79560,
            "byteOffset" : 0
        },
        {
            "buffer" : 0,
            "byteLength" : 79560,
            "byteOffset" : 79560
        },
        {
            "buffer" : 0,
            "byteLength" : 53040,
            "byteOffset" : 159120
        },
        {
            "buffer" : 0,
            "byteLength" : 106080,
            "byteOffset" : 212160
        },
        {
            "buffer" : 0,
            "byteLength" : 53040,
            "byteOffset" : 318240
        },
        {
            "buffer" : 0,
            "byteLength" : 106080,
            "byteOffset" : 371280
        },
        {
            "buffer" : 0,
            "byteLength" : 13260,
            "byteOffset" : 477360
        }
    ],
    "buffers" : [
        {
            "byteLength" : 490620,
            "uri" : "bisect-2-6-6.bin"
        }
    ]
}
