{
    "asset" : {
        "generator" : "Khronos glTF Blender I/O v1.1.46",
        "version" : "2.0"
    },
    "scene" : 0,
    "scenes" : [
        {
            "name" : "Scene",
            "nodes" : [
                0
            ]
        }
    ],
    "nodes" : [
        {
            "mesh" : 0,
            "name" : "bisect-6-3-3"
        }
    ],
    "materials" : [
        {
            "doubleSided" : true,
            "emissiveFactor" : [
                0,
                0,
                0
            ],
            "name" : "Material.003",
            "pbrMetallicRoughness" : {
                "metallicFactor" : 0,
                "roughnessFactor" : 0.5
            }
        }
    ],
    "meshes" : [
        {
            "name" : "bisect-6-3-3",
            "primitives" : [
                {
                    "attributes" : {
                        "POSITION" : 0,
                        "NORMAL" : 1,
                        "TEXCOORD_0" : 2,
                        "COLOR_0" : 3,
                        "JOINTS_0" : 4,
                        "WEIGHTS_0" : 5
                    },
                    "indices" : 6,
                    "material" : 0
                }
            ]
        }
    ],
    "accessors" : [
        {
            "bufferView" : 0,
            "componentType" : 5126,
            "count" : 453,
            "max" : [
                137.48834228515625,
                82,
                -62
            ],
            "min" : [
                128.1844940185547,
                62,
                -82
            ],
            "type" : "VEC3"
        },
        {
            "bufferView" : 1,
            "componentType" : 5126,
            "count" : 453,
            "type" : "VEC3"
        },
        {
            "bufferView" : 2,
            "componentType" : 5126,
            "count" : 453,
            "type" : "VEC2"
        },
        {
            "bufferView" : 3,
            "componentType" : 5126,
            "count" : 453,
            "type" : "VEC4"
        },
        {
            "bufferView" : 4,
            "componentType" : 5123,
            "count" : 453,
            "type" : "VEC4"
        },
        {
            "bufferView" : 5,
            "componentType" : 5126,
            "count" : 453,
            "type" : "VEC4"
        },
        {
            "bufferView" : 6,
            "componentType" : 5123,
            "count" : 453,
            "type" : "SCALAR"
        }
    ],
    "bufferViews" : [
        {
            "buffer" : 0,
            "byteLength" : 5436,
            "byteOffset" : 0
        },
        {
            "buffer" : 0,
            "byteLength" : 5436,
            "byteOffset" : 5436
        },
        {
            "buffer" : 0,
            "byteLength" : 3624,
            "byteOffset" : 10872
        },
        {
            "buffer" : 0,
            "byteLength" : 7248,
            "byteOffset" : 14496
        },
        {
            "buffer" : 0,
            "byteLength" : 3624,
            "byteOffset" : 21744
        },
        {
            "buffer" : 0,
            "byteLength" : 7248,
            "byteOffset" : 25368
        },
        {
            "buffer" : 0,
            "byteLength" : 906,
            "byteOffset" : 32616
        }
    ],
    "buffers" : [
        {
            "byteLength" : 33524,
            "uri" : "bisect-6-3-3.bin"
        }
    ]
}
