{
    "asset" : {
        "generator" : "Khronos glTF Blender I/O v1.1.46",
        "version" : "2.0"
    },
    "scene" : 0,
    "scenes" : [
        {
            "name" : "Scene",
            "nodes" : [
                0
            ]
        }
    ],
    "nodes" : [
        {
            "mesh" : 0,
            "name" : "bisect-1-5-5"
        }
    ],
    "materials" : [
        {
            "doubleSided" : true,
            "emissiveFactor" : [
                0,
                0,
                0
            ],
            "name" : "Material.003",
            "pbrMetallicRoughness" : {
                "metallicFactor" : 0,
                "roughnessFactor" : 0.5
            }
        }
    ],
    "meshes" : [
        {
            "name" : "bisect-1-5-5",
            "primitives" : [
                {
                    "attributes" : {
                        "POSITION" : 0,
                        "NORMAL" : 1,
                        "TEXCOORD_0" : 2,
                        "COLOR_0" : 3,
                        "JOINTS_0" : 4,
                        "WEIGHTS_0" : 5
                    },
                    "indices" : 6,
                    "material" : 0
                }
            ]
        }
    ],
    "accessors" : [
        {
            "bufferView" : 0,
            "componentType" : 5126,
            "count" : 1965,
            "max" : [
                42,
                122,
                -102
            ],
            "min" : [
                25.381214141845703,
                107.38508605957031,
                -122
            ],
            "type" : "VEC3"
        },
        {
            "bufferView" : 1,
            "componentType" : 5126,
            "count" : 1965,
            "type" : "VEC3"
        },
        {
            "bufferView" : 2,
            "componentType" : 5126,
            "count" : 1965,
            "type" : "VEC2"
        },
        {
            "bufferView" : 3,
            "componentType" : 5126,
            "count" : 1965,
            "type" : "VEC4"
        },
        {
            "bufferView" : 4,
            "componentType" : 5123,
            "count" : 1965,
            "type" : "VEC4"
        },
        {
            "bufferView" : 5,
            "componentType" : 5126,
            "count" : 1965,
            "type" : "VEC4"
        },
        {
            "bufferView" : 6,
            "componentType" : 5123,
            "count" : 1965,
            "type" : "SCALAR"
        }
    ],
    "bufferViews" : [
        {
            "buffer" : 0,
            "byteLength" : 23580,
            "byteOffset" : 0
        },
        {
            "buffer" : 0,
            "byteLength" : 23580,
            "byteOffset" : 23580
        },
        {
            "buffer" : 0,
            "byteLength" : 15720,
            "byteOffset" : 47160
        },
        {
            "buffer" : 0,
            "byteLength" : 31440,
            "byteOffset" : 62880
        },
        {
            "buffer" : 0,
            "byteLength" : 15720,
            "byteOffset" : 94320
        },
        {
            "buffer" : 0,
            "byteLength" : 31440,
            "byteOffset" : 110040
        },
        {
            "buffer" : 0,
            "byteLength" : 3930,
            "byteOffset" : 141480
        }
    ],
    "buffers" : [
        {
            "byteLength" : 145412,
            "uri" : "bisect-1-5-5.bin"
        }
    ]
}
