{
    "asset" : {
        "generator" : "Khronos glTF Blender I/O v1.1.46",
        "version" : "2.0"
    },
    "scene" : 0,
    "scenes" : [
        {
            "name" : "Scene",
            "nodes" : [
                0
            ]
        }
    ],
    "nodes" : [
        {
            "mesh" : 0,
            "name" : "bisect-7-2-6"
        }
    ],
    "materials" : [
        {
            "doubleSided" : true,
            "emissiveFactor" : [
                0,
                0,
                0
            ],
            "name" : "Material.003",
            "pbrMetallicRoughness" : {
                "metallicFactor" : 0,
                "roughnessFactor" : 0.5
            }
        }
    ],
    "meshes" : [
        {
            "name" : "bisect-7-2-6",
            "primitives" : [
                {
                    "attributes" : {
                        "POSITION" : 0,
                        "NORMAL" : 1,
                        "TEXCOORD_0" : 2,
                        "COLOR_0" : 3,
                        "JOINTS_0" : 4,
                        "WEIGHTS_0" : 5
                    },
                    "indices" : 6,
                    "material" : 0
                }
            ]
        }
    ],
    "accessors" : [
        {
            "bufferView" : 0,
            "componentType" : 5126,
            "count" : 1335,
            "max" : [
                162,
                62,
                -122
            ],
            "min" : [
                142,
                42,
                -142
            ],
            "type" : "VEC3"
        },
        {
            "bufferView" : 1,
            "componentType" : 5126,
            "count" : 1335,
            "type" : "VEC3"
        },
        {
            "bufferView" : 2,
            "componentType" : 5126,
            "count" : 1335,
            "type" : "VEC2"
        },
        {
            "bufferView" : 3,
            "componentType" : 5126,
            "count" : 1335,
            "type" : "VEC4"
        },
        {
            "bufferView" : 4,
            "componentType" : 5123,
            "count" : 1335,
            "type" : "VEC4"
        },
        {
            "bufferView" : 5,
            "componentType" : 5126,
            "count" : 1335,
            "type" : "VEC4"
        },
        {
            "bufferView" : 6,
            "componentType" : 5123,
            "count" : 1335,
            "type" : "SCALAR"
        }
    ],
    "bufferViews" : [
        {
            "buffer" : 0,
            "byteLength" : 16020,
            "byteOffset" : 0
        },
        {
            "buffer" : 0,
            "byteLength" : 16020,
            "byteOffset" : 16020
        },
        {
            "buffer" : 0,
            "byteLength" : 10680,
            "byteOffset" : 32040
        },
        {
            "buffer" : 0,
            "byteLength" : 21360,
            "byteOffset" : 42720
        },
        {
            "buffer" : 0,
            "byteLength" : 10680,
            "byteOffset" : 64080
        },
        {
            "buffer" : 0,
            "byteLength" : 21360,
            "byteOffset" : 74760
        },
        {
            "buffer" : 0,
            "byteLength" : 2670,
            "byteOffset" : 96120
        }
    ],
    "buffers" : [
        {
            "byteLength" : 98792,
            "uri" : "bisect-7-2-6.bin"
        }
    ]
}
