{
    "asset" : {
        "generator" : "Khronos glTF Blender I/O v1.1.46",
        "version" : "2.0"
    },
    "scene" : 0,
    "scenes" : [
        {
            "name" : "Scene",
            "nodes" : [
                0
            ]
        }
    ],
    "nodes" : [
        {
            "mesh" : 0,
            "name" : "bisect-4-6-10"
        }
    ],
    "materials" : [
        {
            "doubleSided" : true,
            "emissiveFactor" : [
                0,
                0,
                0
            ],
            "name" : "Material.003",
            "pbrMetallicRoughness" : {
                "metallicFactor" : 0,
                "roughnessFactor" : 0.5
            }
        }
    ],
    "meshes" : [
        {
            "name" : "bisect-4-6-10",
            "primitives" : [
                {
                    "attributes" : {
                        "POSITION" : 0,
                        "NORMAL" : 1,
                        "TEXCOORD_0" : 2,
                        "COLOR_0" : 3,
                        "JOINTS_0" : 4,
                        "WEIGHTS_0" : 5
                    },
                    "indices" : 6,
                    "material" : 0
                }
            ]
        }
    ],
    "accessors" : [
        {
            "bufferView" : 0,
            "componentType" : 5126,
            "count" : 8808,
            "max" : [
                102,
                128.60362243652344,
                -209.19790649414062
            ],
            "min" : [
                82,
                122,
                -222
            ],
            "type" : "VEC3"
        },
        {
            "bufferView" : 1,
            "componentType" : 5126,
            "count" : 8808,
            "type" : "VEC3"
        },
        {
            "bufferView" : 2,
            "componentType" : 5126,
            "count" : 8808,
            "type" : "VEC2"
        },
        {
            "bufferView" : 3,
            "componentType" : 5126,
            "count" : 8808,
            "type" : "VEC4"
        },
        {
            "bufferView" : 4,
            "componentType" : 5123,
            "count" : 8808,
            "type" : "VEC4"
        },
        {
            "bufferView" : 5,
            "componentType" : 5126,
            "count" : 8808,
            "type" : "VEC4"
        },
        {
            "bufferView" : 6,
            "componentType" : 5123,
            "count" : 8808,
            "type" : "SCALAR"
        }
    ],
    "bufferViews" : [
        {
            "buffer" : 0,
            "byteLength" : 105696,
            "byteOffset" : 0
        },
        {
            "buffer" : 0,
            "byteLength" : 105696,
            "byteOffset" : 105696
        },
        {
            "buffer" : 0,
            "byteLength" : 70464,
            "byteOffset" : 211392
        },
        {
            "buffer" : 0,
            "byteLength" : 140928,
            "byteOffset" : 281856
        },
        {
            "buffer" : 0,
            "byteLength" : 70464,
            "byteOffset" : 422784
        },
        {
            "buffer" : 0,
            "byteLength" : 140928,
            "byteOffset" : 493248
        },
        {
            "buffer" : 0,
            "byteLength" : 17616,
            "byteOffset" : 634176
        }
    ],
    "buffers" : [
        {
            "byteLength" : 651792,
            "uri" : "bisect-4-6-10.bin"
        }
    ]
}
