{
    "asset" : {
        "generator" : "Khronos glTF Blender I/O v1.1.46",
        "version" : "2.0"
    },
    "scene" : 0,
    "scenes" : [
        {
            "name" : "Scene",
            "nodes" : [
                0
            ]
        }
    ],
    "nodes" : [
        {
            "mesh" : 0,
            "name" : "bisect-1-6-6"
        }
    ],
    "materials" : [
        {
            "doubleSided" : true,
            "emissiveFactor" : [
                0,
                0,
                0
            ],
            "name" : "Material.003",
            "pbrMetallicRoughness" : {
                "metallicFactor" : 0,
                "roughnessFactor" : 0.5
            }
        }
    ],
    "meshes" : [
        {
            "name" : "bisect-1-6-6",
            "primitives" : [
                {
                    "attributes" : {
                        "POSITION" : 0,
                        "NORMAL" : 1,
                        "TEXCOORD_0" : 2,
                        "COLOR_0" : 3,
                        "JOINTS_0" : 4,
                        "WEIGHTS_0" : 5
                    },
                    "indices" : 6,
                    "material" : 0
                }
            ]
        }
    ],
    "accessors" : [
        {
            "bufferView" : 0,
            "componentType" : 5126,
            "count" : 7428,
            "max" : [
                42,
                138.9179229736328,
                -122
            ],
            "min" : [
                22,
                122,
                -142
            ],
            "type" : "VEC3"
        },
        {
            "bufferView" : 1,
            "componentType" : 5126,
            "count" : 7428,
            "type" : "VEC3"
        },
        {
            "bufferView" : 2,
            "componentType" : 5126,
            "count" : 7428,
            "type" : "VEC2"
        },
        {
            "bufferView" : 3,
            "componentType" : 5126,
            "count" : 7428,
            "type" : "VEC4"
        },
        {
            "bufferView" : 4,
            "componentType" : 5123,
            "count" : 7428,
            "type" : "VEC4"
        },
        {
            "bufferView" : 5,
            "componentType" : 5126,
            "count" : 7428,
            "type" : "VEC4"
        },
        {
            "bufferView" : 6,
            "componentType" : 5123,
            "count" : 7428,
            "type" : "SCALAR"
        }
    ],
    "bufferViews" : [
        {
            "buffer" : 0,
            "byteLength" : 89136,
            "byteOffset" : 0
        },
        {
            "buffer" : 0,
            "byteLength" : 89136,
            "byteOffset" : 89136
        },
        {
            "buffer" : 0,
            "byteLength" : 59424,
            "byteOffset" : 178272
        },
        {
            "buffer" : 0,
            "byteLength" : 118848,
            "byteOffset" : 237696
        },
        {
            "buffer" : 0,
            "byteLength" : 59424,
            "byteOffset" : 356544
        },
        {
            "buffer" : 0,
            "byteLength" : 118848,
            "byteOffset" : 415968
        },
        {
            "buffer" : 0,
            "byteLength" : 14856,
            "byteOffset" : 534816
        }
    ],
    "buffers" : [
        {
            "byteLength" : 549672,
            "uri" : "bisect-1-6-6.bin"
        }
    ]
}
