{
    "asset" : {
        "generator" : "Khronos glTF Blender I/O v1.1.46",
        "version" : "2.0"
    },
    "scene" : 0,
    "scenes" : [
        {
            "name" : "Scene",
            "nodes" : [
                0
            ]
        }
    ],
    "nodes" : [
        {
            "mesh" : 0,
            "name" : "bisect-4-3-10"
        }
    ],
    "materials" : [
        {
            "doubleSided" : true,
            "emissiveFactor" : [
                0,
                0,
                0
            ],
            "name" : "Material.003",
            "pbrMetallicRoughness" : {
                "metallicFactor" : 0,
                "roughnessFactor" : 0.5
            }
        }
    ],
    "meshes" : [
        {
            "name" : "bisect-4-3-10",
            "primitives" : [
                {
                    "attributes" : {
                        "POSITION" : 0,
                        "NORMAL" : 1,
                        "TEXCOORD_0" : 2,
                        "COLOR_0" : 3,
                        "JOINTS_0" : 4,
                        "WEIGHTS_0" : 5
                    },
                    "indices" : 6,
                    "material" : 0
                }
            ]
        }
    ],
    "accessors" : [
        {
            "bufferView" : 0,
            "componentType" : 5126,
            "count" : 1845,
            "max" : [
                102,
                82,
                -202
            ],
            "min" : [
                82,
                62.953678131103516,
                -222
            ],
            "type" : "VEC3"
        },
        {
            "bufferView" : 1,
            "componentType" : 5126,
            "count" : 1845,
            "type" : "VEC3"
        },
        {
            "bufferView" : 2,
            "componentType" : 5126,
            "count" : 1845,
            "type" : "VEC2"
        },
        {
            "bufferView" : 3,
            "componentType" : 5126,
            "count" : 1845,
            "type" : "VEC4"
        },
        {
            "bufferView" : 4,
            "componentType" : 5123,
            "count" : 1845,
            "type" : "VEC4"
        },
        {
            "bufferView" : 5,
            "componentType" : 5126,
            "count" : 1845,
            "type" : "VEC4"
        },
        {
            "bufferView" : 6,
            "componentType" : 5123,
            "count" : 1845,
            "type" : "SCALAR"
        }
    ],
    "bufferViews" : [
        {
            "buffer" : 0,
            "byteLength" : 22140,
            "byteOffset" : 0
        },
        {
            "buffer" : 0,
            "byteLength" : 22140,
            "byteOffset" : 22140
        },
        {
            "buffer" : 0,
            "byteLength" : 14760,
            "byteOffset" : 44280
        },
        {
            "buffer" : 0,
            "byteLength" : 29520,
            "byteOffset" : 59040
        },
        {
            "buffer" : 0,
            "byteLength" : 14760,
            "byteOffset" : 88560
        },
        {
            "buffer" : 0,
            "byteLength" : 29520,
            "byteOffset" : 103320
        },
        {
            "buffer" : 0,
            "byteLength" : 3690,
            "byteOffset" : 132840
        }
    ],
    "buffers" : [
        {
            "byteLength" : 136532,
            "uri" : "bisect-4-3-10.bin"
        }
    ]
}
