{
    "asset" : {
        "generator" : "Khronos glTF Blender I/O v1.1.46",
        "version" : "2.0"
    },
    "scene" : 0,
    "scenes" : [
        {
            "name" : "Scene",
            "nodes" : [
                0
            ]
        }
    ],
    "nodes" : [
        {
            "mesh" : 0,
            "name" : "bisect-2-5-6"
        }
    ],
    "materials" : [
        {
            "doubleSided" : true,
            "emissiveFactor" : [
                0,
                0,
                0
            ],
            "name" : "Material.003",
            "pbrMetallicRoughness" : {
                "metallicFactor" : 0,
                "roughnessFactor" : 0.5
            }
        }
    ],
    "meshes" : [
        {
            "name" : "bisect-2-5-6",
            "primitives" : [
                {
                    "attributes" : {
                        "POSITION" : 0,
                        "NORMAL" : 1,
                        "TEXCOORD_0" : 2,
                        "COLOR_0" : 3,
                        "JOINTS_0" : 4,
                        "WEIGHTS_0" : 5
                    },
                    "indices" : 6,
                    "material" : 0
                }
            ]
        }
    ],
    "accessors" : [
        {
            "bufferView" : 0,
            "componentType" : 5126,
            "count" : 7554,
            "max" : [
                62,
                122,
                -122
            ],
            "min" : [
                42,
                107.43110656738281,
                -142
            ],
            "type" : "VEC3"
        },
        {
            "bufferView" : 1,
            "componentType" : 5126,
            "count" : 7554,
            "type" : "VEC3"
        },
        {
            "bufferView" : 2,
            "componentType" : 5126,
            "count" : 7554,
            "type" : "VEC2"
        },
        {
            "bufferView" : 3,
            "componentType" : 5126,
            "count" : 7554,
            "type" : "VEC4"
        },
        {
            "bufferView" : 4,
            "componentType" : 5123,
            "count" : 7554,
            "type" : "VEC4"
        },
        {
            "bufferView" : 5,
            "componentType" : 5126,
            "count" : 7554,
            "type" : "VEC4"
        },
        {
            "bufferView" : 6,
            "componentType" : 5123,
            "count" : 7554,
            "type" : "SCALAR"
        }
    ],
    "bufferViews" : [
        {
            "buffer" : 0,
            "byteLength" : 90648,
            "byteOffset" : 0
        },
        {
            "buffer" : 0,
            "byteLength" : 90648,
            "byteOffset" : 90648
        },
        {
            "buffer" : 0,
            "byteLength" : 60432,
            "byteOffset" : 181296
        },
        {
            "buffer" : 0,
            "byteLength" : 120864,
            "byteOffset" : 241728
        },
        {
            "buffer" : 0,
            "byteLength" : 60432,
            "byteOffset" : 362592
        },
        {
            "buffer" : 0,
            "byteLength" : 120864,
            "byteOffset" : 423024
        },
        {
            "buffer" : 0,
            "byteLength" : 15108,
            "byteOffset" : 543888
        }
    ],
    "buffers" : [
        {
            "byteLength" : 558996,
            "uri" : "bisect-2-5-6.bin"
        }
    ]
}
